/* XPM */
static char *_29d7ad0ab10481dca3ccbcc4a255858[] = {
/* columns rows colors chars-per-pixel */
"128 128 27 1 ",
"  c black",
". c #202020",
"X c #2C2C2C",
"o c #543C1C",
"O c #744C28",
"+ c #484848",
"@ c gray33",
"# c #646464",
"$ c gray44",
"% c #7C7C7C",
"& c #80502C",
"* c #A86840",
"= c #B47044",
"- c #C87C4C",
"; c #DC8854",
": c #E88C58",
"> c #F0945C",
", c #FC9C60",
"< c #FCA470",
"1 c gray55",
"2 c #989898",
"3 c gray66",
"4 c #FCB080",
"5 c #FCB890",
"6 c #FCC4A4",
"7 c #FCD8C4",
"8 c None",
/* pixels */
"88888888888888888888888888888888888888888888888888888888888888888888888888888888888888888888888888888888888888888888888888888888",
"88888888888888888888888888888888888888888888888888888888888888888888888888888888888888888888888888888888888888888888888888888888",
"88888888888888888888888888888888888888888888888888888888888888888888888888888888888888888888888888888888888888888888888888888888",
"88888888888888888888888888888888888888888888888888888888888888888888888888888888888888888888888888888888888888888888888888888888",
"88888888888888888888888888888888888888888888888888888888888888888888888888888888888888888888888888888888888888888888888888888888",
"88888888888888888888888888888888888888888888888888888888888888888888888888888888888888888888888888888888888888888888888888888888",
"88888888888888888888888888888888888888888888888888888888888888888888888888888888888888888888888888888888888888888888888888888888",
"88888888888888888888888888888888888888888888888888888888888888888888888888888888888888888888888888888888888888888888888888888888",
"88888888888888888888888888888888888888888888888888888888888888888888888888888888888888888888888888888888888888888888888888888888",
"88888888888888888888888888888888888888888888888888888888888888888888888888888888888888888888888888888888888888888888888888888888",
"88888888888888888888888888888888888888888888888888888888888888888888888888888888888888888888888888888888888888888888888888888888",
"88888888888888888888888888888888888888888888888888888888888888888888888888888888888888888888888888888888888888888888888888888888",
"88888888888888888888888888888888888888888888888888888888888888888888888888888888888888888888888888888888888888888888888888888888",
"88888888888888888888888888888888888888888888888888888888888888888888888888888888888888888888888888888888888888888888888888888888",
"88888888888888888888888888888888888888888888888888888888888888888888888888888888888888888888888888888888888888888888888888888888",
"88888888888888888888888888888888888888888888888888888888888888888888888888888888888888888888888888888888888888888888888888888888",
"88888888888888888888888888888888888888888888888888888888888888888888888888888888888888888888888888888888888888888888888888888888",
"88888888888888888888888888888888888888888888888888888888888888888888888888888888888888888888888888888888888888888888888888888888",
"88888888888888888888888888888888888888888888888888888888888888888888888888888888888888888888888888888888888888888888888888888888",
"88888888888888888888888888888888888888888888888888888888888888888888888888888888888888888888888888888888888888888888888888888888",
"88888888888888888888888888888888888888888888888888888888888888888888888888888888888888888888888888888888888888888888888888888888",
"88888888888888888888888888888888888888888888888888888888888888888888888888888888888888888888888888888888888888888888888888888888",
"88888888888888888888888888888888888888888888888888888888888888888888888888888888888888888888888888888888888888888888888888888888",
"88888888888888888888888888888888888888888888888888888888888888888888888888888888888888888888888888888888888888888888888888888888",
"88888888888888888888888888888888888888888888888888888888888888888888888888888888888888888888888888888888888888888888888888888888",
"88888888888888888888888888888888888888888888888888888888888888888888888888888888888888888888888888888888888888888888888888888888",
"88888888888888888888888888888888888888888888888888888888888888888888888888888888888888888888888888888888888888888888888888888888",
"88888888888888888888888888888888888888888888888888888888888888888888888888888888888888888888888888888888888888888888888888888888",
"88888888888888888888888888888888888888888888888888888888888888888888888888888888888888888888888888888888888888888888888888888888",
"88888888888888888888888888888888888888888888888888888888888888888888888888888888888888888888888888888888888888888888888888888888",
"88888888888888888888888888888888888888888888888888888888888888888888888888888888888888888888888888888888888888888888888888888888",
"88888888888888888888888888888888888888888888888888888888888888888888888888888888888888888888888888888888888888888888888888888888",
"88888888888888888888888888888888888888888888888888888888888888888888888888888888888888888888888888888888888888888888888888888888",
"88888888888888888888888888888888888888888888888888888888888888888888888888888888888888888888888888888888888888888888888888888888",
"88888888888888888888888888888888888888888888888888888888888888888888888888888888888888888888888888888888888888888888888888888888",
"88888888888888888888888888888888888888888888888888888888888888888888888888888888888888888888888888888888888888888888888888888888",
"88888888888888888888888888888888888888888888888888888888888888888888888888888888888888888888888888888888888888888888888888888888",
"88888888888888888888888888888888888888888888888888888888888888888888888888888888888888888888888888888888888888888888888888888888",
"88888888888888888888888888888888888888888888888888888888888888888888888888888888888888888888888888888888888888888888888888888888",
"88888888888888888888888888888888888888888888888888888888888888888888888888888888888888888888888888888888888888888888888888888888",
"88888888888888888888888888888888888888888888888888888888888888888888888888888888888888888888888888888888888888888888888888888888",
"88888888888888888888888888888888888888888888888888888888888888888888888888888888888888888888888888888888888888888888888888888888",
"88888888888888888888888888888888888888888888888888888888888888888888888888888888888888888888888888888888888888888888888888888888",
"88888888888888888888888888888888888888888888888888888888888888888888888888888888888888888888888888888888888888888888888888888888",
"88888888888888888888888888888888888888888888888888888888888888888888888888888888888888888888888888888888888888888888888888888888",
"88888888888888888888888888888888888888888888888888888888888888888888888888888888888888888888888888888888888888888888888888888888",
"88888888888888888888888888888888888888888888888888888888888888888888888888888888888888888888888888888888888888888888888888888888",
"88888888888888888888888888888888888888888888888888888888888888888888888888888888888888888888888888888888888888888888888888888888",
"88888888888888888888888888888888888888888888888888888888888888888888888888888888888888888888888888888888888888888888888888888888",
"88888888888888888888888888888888888888888888888888888888888888888888888888888888888888888888888888888888888888888888888888888888",
"88888888888888888888888888888888888888888888888888888888888888888888888888888888888888888888888888888888888888888888888888888888",
"88888888888888888888888888888888888888888888888888888888888888888888888888888888888888888888888888888888888888888888888888888888",
"88888888888888888888888888888888888888888888888888888888888888888888888888888888888888888888888888888888888888888888888888888888",
"88888888888888888888888888888888888888888888888888888888888888888888888888888888888888888888888888888888888888888888888888888888",
"88888888888888888888888888888888888888888888888888888888888888888888888888888888888888888888888888888888888888888888888888888888",
"88888888888888888888888888888888888888888888888888888888888888888888888888888888888888888888888888888888888888888888888888888888",
"88888888888888888888888888888888888888888888888888888888888888888888888888888888888888888888888888888888888888888888888888888888",
"88888888888888888888888888888888888888888888888888888888888888888888888888888888888888888888888888888888888888888888888888888888",
"88888888888888888888888888888888888888888888888888888888888888888888888888888888888888888888888888888888888888888888888888888888",
"88888888888888888888888888888888888888888888888888888888888888888888888888888888888888888888888888888888888888888888888888888888",
"88888888888888888888888888888888888888888888888888888888888888888888888888888888888888888888888888888888888888888888888888888888",
"88888888888888888888888888888888888888888888888888888888888888888888888888888888888888888888888888888888888888888888888888888888",
"88888888888888888888888888888888888888888888888888888888888888888888888888888888888888888888888888888888888888888888888888888888",
"88888888888888888888888888888888888888888888888888888888888888888888888888888888888888888888888888888888888888888888888888888888",
"88888888888888888888888888888888888888888888888888888888888888888888888888888888888888888888888888888888888888888888888888888888",
"88888888888888888888888888888888888888888888888888888888888888888888888888888888888888888888888888888888888888888888888888888888",
"88888888888888888888888888888888888888888888888888888888888888888888888888888888888888888888888888888888888888888888888888888888",
"88888888888888888888888888888888888888888888888888888888888888888888888888888888888888888888888888888888888888888888888888888888",
"88888888888888888888888888888888888888888888888888888888888888888888888888888888888888888888888888888888888888888888888888888888",
"88888888888888888888888888888888888888888888888888888888888888888888888888888888888888888888888888888888888888888888888888888888",
"88888888888888888888888888888888888888888888888888888888888888888888888888888888888888888888888888888888888888888888888888888888",
"88888888888888888888888888888888888888888888888888888888888888888888888888888888888888888888888888888888888888888888888888888888",
"88888888888888888888888888888888888888888888888888888888888888888888888888888888888888888888888888888888888888888888888888888888",
"88888888888888888888888888888888888888888888888888888888888888888888888888888888888888888888888888888888888888888888888888888888",
"88888888888888888888888888888888888888888888888888888888888888888888888888888888888888888888888888888888888888888888888888888888",
"88888888888888888888888888888888888888888888888888888888888888888888888888888888888888888888888888888888888888888888888888888888",
"88888888888888888888888888888888888888888888888888888888888888888888888888888888888888888888888888888888888888888888888888888888",
"88888888888888888888888888888888888888888888888888888888888888888888888888888888888888888888888888888888888888888888888888888888",
"88888888888888888888888888888888888888888888888888888888888888888888888888888888888888888888888888888888888888888888888888888888",
"88888888888888888888888888888888888888888888888888888888888888888888888888888888888888888888888888888888888888888888888888888888",
"8888888888888888888888888888888888888888888888888888888888888888  88888888888888888888888888888888888888888888888888888888888888",
"8888888888888888888888888888888888888888888888888888888888888888  88888888888888888888888888888888888888888888888888888888888888",
"88888888888888888888888888888888888888888888888888888888888888@@$$@@888888888888888888888888888888888888888888888888888888888888",
"88888888888888888888888888888888888888888888888888888888888888@@$$@@888888888888888888888888888888888888888888888888888888888888",
"888888888888888888888888888888888888888888888888888888888888++%%33%%++8888888888888888888888888888888888888888888888888888888888",
"888888888888888888888888888888888888888888888888888888888888++%%33%%++8888888888888888888888888888888888888888888888888888888888",
"888888888888888888888888888888888888888888888888888888888888++%%33%%++8888888888888888888888888888888888888888888888888888888888",
"888888888888888888888888888888888888888888888888888888888888++%%33%%++8888888888888888888888888888888888888888888888888888888888",
"8888888888888888888888888888888888888888888888888888888888%%%%++%%++%%%%88888888888888888888888888888888888888888888888888888888",
"8888888888888888888888888888888888888888888888888888888888%%%%++%%++%%%%88888888888888888888888888888888888888888888888888888888",
"88888888888888888888888888888888888888888888888888888888XX%%22XXXXXX##%%@@888888888888888888888888888888888888888888888888888888",
"88888888888888888888888888888888888888888888888888888888XX%%22XXXXXX##%%@@888888888888888888888888888888888888888888888888888888",
"88888888888888888888888888888888888888888888888888888888XX%%33$$%%$$##%%++888888888888888888888888888888888888888888888888888888",
"88888888888888888888888888888888888888888888888888888888XX%%33$$%%$$##%%++888888888888888888888888888888888888888888888888888888",
"88888888888888888888888888888888888888888888888888888888XX%%33222222##%%XX888888888888888888888888888888888888888888888888888888",
"88888888888888888888888888888888888888888888888888888888XX%%33222222##%%XX888888888888888888888888888888888888888888888888888888",
"88888888888888888888888888888888888888888888888888888888XX++22333333++++  888888888888888888888888888888888888888888888888888888",
"88888888888888888888888888888888888888888888888888888888XX++22333333++++  888888888888888888888888888888888888888888888888888888",
"88888888888888888888888888888888888888888888888888888888XX..%%++++++  ..  **8888888888888888888888888888888888888888888888888888",
"88888888888888888888888888888888888888888888888888888888XX..%%++++++  ..  **8888888888888888888888888888888888888888888888888888",
"888888888888888888888888888888888888888888888888888888>>XX..##XXXXXX  ..  **==88888888888888888888888888888888888888888888888888",
"888888888888888888888888888888888888888888888888888888>>XX..##XXXXXX  ..  **==88888888888888888888888888888888888888888888888888",
"8888888888888888888888888888888888888888888888888888>>4444..##XXXXXX  ..oo**==88888888888888888888888888888888888888888888888888",
"8888888888888888888888888888888888888888888888888888>>4444..##XXXXXX  ..oo**==88888888888888888888888888888888888888888888888888",
"8888888888888888888888888888888888888888888888888888<<6677--        ....OO======888888888888888888888888888888888888888888888888",
"8888888888888888888888888888888888888888888888888888<<6677--        ....OO======888888888888888888888888888888888888888888888888",
"8888888888888888888888888888888888888888888888888888<<447777--&&&&&&==::::;;--==888888888888888888888888888888888888888888888888",
"8888888888888888888888888888888888888888888888888888<<447777--&&&&&&==::::;;--==888888888888888888888888888888888888888888888888",
"88888888888888888888888888888888888888888888888888<<444477777777665544<<::::;;==888888888888888888888888888888888888888888888888",
"88888888888888888888888888888888888888888888888888<<444477777777665544<<::::;;==888888888888888888888888888888888888888888888888",
"88888888888888888888888888888888888888888888888888<<44::44777777665544<<,,::;;--888888888888888888888888888888888888888888888888",
"88888888888888888888888888888888888888888888888888<<44::44777777665544<<,,::;;--888888888888888888888888888888888888888888888888",
"88888888888888888888888888888888888888888888888888<<44<<::4444444444<<,,,,::;;--888888888888888888888888888888888888888888888888",
"88888888888888888888888888888888888888888888888888<<44<<::4444444444<<,,,,::;;--888888888888888888888888888888888888888888888888",
"88888888888888888888888888888888888888888888888888>>4444,,,,444444<<<<,,,,::;;--888888888888888888888888888888888888888888888888",
"88888888888888888888888888888888888888888888888888>>4444,,,,444444<<<<,,,,::;;--888888888888888888888888888888888888888888888888",
"88888888888888888888888888888888888888888888888888222222::::-->>>>>>>>>>222222%%%%8888888888888888888888888888888888888888888888",
"88888888888888888888888888888888888888888888888888222222::::-->>>>>>>>>>222222%%%%8888888888888888888888888888888888888888888888",
"8888888888888888888888888888888888888888888888882233332211$$##******##2233332222%%##88888888888888888888888888888888888888888888",
"8888888888888888888888888888888888888888888888882233332211$$##******##2233332222%%##88888888888888888888888888888888888888888888",
"88888888888888888888888888888888888888888888882233332222%%$$##@@++##%%113333222222%%##888888888888888888888888888888888888888888",
"88888888888888888888888888888888888888888888882233332222%%$$##@@++##%%113333222222%%##888888888888888888888888888888888888888888",
"888888888888888888888888888888888888888888882233332222%%%%$$##@@@@##%%11221111112222##@@8888888888888888888888888888888888888888",
"888888888888888888888888888888888888888888882233332222%%%%$$##@@@@##%%11221111112222##@@8888888888888888888888888888888888888888",
"88888888888888888888888888888888888888888888%%%%2222%%$$######@@@@##%%##%%2233332222%%##++88888888888888888888888888888888888888",
"88888888888888888888888888888888888888888888%%%%2222%%$$######@@@@##%%##%%2233332222%%##++88888888888888888888888888888888888888",
"888888888888888888888888888888888888888888%%2233332222%%%%$$##@@@@######222222333322%%##++++888888888888888888888888888888888888",
"888888888888888888888888888888888888888888%%2233332222%%%%$$##@@@@######222222333322%%##++++888888888888888888888888888888888888"
};
