/* XPM */
static char *_2692a65970a4b1394396b9c7719c3eb[] = {
/* columns rows colors chars-per-pixel */
"128 128 26 1 ",
"  c black",
". c #202020",
"X c #2C2C2C",
"o c #543C1C",
"O c #744C28",
"+ c #484848",
"@ c gray33",
"# c #646464",
"$ c gray44",
"% c #7C7C7C",
"& c #80502C",
"* c #A86840",
"= c #B47044",
"- c #C87C4C",
"; c #DC8854",
": c #E88C58",
"> c #F0945C",
", c #FC9C60",
"< c #FCA470",
"1 c #989898",
"2 c gray66",
"3 c #FCB080",
"4 c #FCB890",
"5 c #FCC4A4",
"6 c #FCD8C4",
"7 c None",
/* pixels */
"77777777777777777777777777777777777777777777777777777777777777777777777777777777777777777777777777777777777777777777777777777777",
"77777777777777777777777777777777777777777777777777777777777777777777777777777777777777777777777777777777777777777777777777777777",
"77777777777777777777777777777777777777777777777777777777777777777777777777777777777777777777777777777777777777777777777777777777",
"77777777777777777777777777777777777777777777777777777777777777777777777777777777777777777777777777777777777777777777777777777777",
"77777777777777777777777777777777777777777777777777777777777777777777777777777777777777777777777777777777777777777777777777777777",
"77777777777777777777777777777777777777777777777777777777777777777777777777777777777777777777777777777777777777777777777777777777",
"77777777777777777777777777777777777777777777777777777777777777777777777777777777777777777777777777777777777777777777777777777777",
"77777777777777777777777777777777777777777777777777777777777777777777777777777777777777777777777777777777777777777777777777777777",
"77777777777777777777777777777777777777777777777777777777777777777777777777777777777777777777777777777777777777777777777777777777",
"77777777777777777777777777777777777777777777777777777777777777777777777777777777777777777777777777777777777777777777777777777777",
"77777777777777777777777777777777777777777777777777777777777777777777777777777777777777777777777777777777777777777777777777777777",
"77777777777777777777777777777777777777777777777777777777777777777777777777777777777777777777777777777777777777777777777777777777",
"77777777777777777777777777777777777777777777777777777777777777777777777777777777777777777777777777777777777777777777777777777777",
"77777777777777777777777777777777777777777777777777777777777777777777777777777777777777777777777777777777777777777777777777777777",
"77777777777777777777777777777777777777777777777777777777777777777777777777777777777777777777777777777777777777777777777777777777",
"77777777777777777777777777777777777777777777777777777777777777777777777777777777777777777777777777777777777777777777777777777777",
"77777777777777777777777777777777777777777777777777777777777777777777777777777777777777777777777777777777777777777777777777777777",
"77777777777777777777777777777777777777777777777777777777777777777777777777777777777777777777777777777777777777777777777777777777",
"77777777777777777777777777777777777777777777777777777777777777777777777777777777777777777777777777777777777777777777777777777777",
"77777777777777777777777777777777777777777777777777777777777777777777777777777777777777777777777777777777777777777777777777777777",
"77777777777777777777777777777777777777777777777777777777777777777777777777777777777777777777777777777777777777777777777777777777",
"77777777777777777777777777777777777777777777777777777777777777777777777777777777777777777777777777777777777777777777777777777777",
"77777777777777777777777777777777777777777777777777777777777777777777777777777777777777777777777777777777777777777777777777777777",
"77777777777777777777777777777777777777777777777777777777777777777777777777777777777777777777777777777777777777777777777777777777",
"77777777777777777777777777777777777777777777777777777777777777777777777777777777777777777777777777777777777777777777777777777777",
"77777777777777777777777777777777777777777777777777777777777777777777777777777777777777777777777777777777777777777777777777777777",
"77777777777777777777777777777777777777777777777777777777777777777777777777777777777777777777777777777777777777777777777777777777",
"77777777777777777777777777777777777777777777777777777777777777777777777777777777777777777777777777777777777777777777777777777777",
"77777777777777777777777777777777777777777777777777777777777777777777777777777777777777777777777777777777777777777777777777777777",
"77777777777777777777777777777777777777777777777777777777777777777777777777777777777777777777777777777777777777777777777777777777",
"77777777777777777777777777777777777777777777777777777777777777777777777777777777777777777777777777777777777777777777777777777777",
"77777777777777777777777777777777777777777777777777777777777777777777777777777777777777777777777777777777777777777777777777777777",
"77777777777777777777777777777777777777777777777777777777777777777777777777777777777777777777777777777777777777777777777777777777",
"77777777777777777777777777777777777777777777777777777777777777777777777777777777777777777777777777777777777777777777777777777777",
"77777777777777777777777777777777777777777777777777777777777777777777777777777777777777777777777777777777777777777777777777777777",
"77777777777777777777777777777777777777777777777777777777777777777777777777777777777777777777777777777777777777777777777777777777",
"77777777777777777777777777777777777777777777777777777777777777777777777777777777777777777777777777777777777777777777777777777777",
"77777777777777777777777777777777777777777777777777777777777777777777777777777777777777777777777777777777777777777777777777777777",
"77777777777777777777777777777777777777777777777777777777777777777777777777777777777777777777777777777777777777777777777777777777",
"77777777777777777777777777777777777777777777777777777777777777777777777777777777777777777777777777777777777777777777777777777777",
"77777777777777777777777777777777777777777777777777777777777777777777777777777777777777777777777777777777777777777777777777777777",
"77777777777777777777777777777777777777777777777777777777777777777777777777777777777777777777777777777777777777777777777777777777",
"77777777777777777777777777777777777777777777777777777777777777777777777777777777777777777777777777777777777777777777777777777777",
"77777777777777777777777777777777777777777777777777777777777777777777777777777777777777777777777777777777777777777777777777777777",
"77777777777777777777777777777777777777777777777777777777777777777777777777777777777777777777777777777777777777777777777777777777",
"77777777777777777777777777777777777777777777777777777777777777777777777777777777777777777777777777777777777777777777777777777777",
"77777777777777777777777777777777777777777777777777777777777777777777777777777777777777777777777777777777777777777777777777777777",
"77777777777777777777777777777777777777777777777777777777777777777777777777777777777777777777777777777777777777777777777777777777",
"77777777777777777777777777777777777777777777777777777777777777777777777777777777777777777777777777777777777777777777777777777777",
"77777777777777777777777777777777777777777777777777777777777777777777777777777777777777777777777777777777777777777777777777777777",
"77777777777777777777777777777777777777777777777777777777777777777777777777777777777777777777777777777777777777777777777777777777",
"77777777777777777777777777777777777777777777777777777777777777777777777777777777777777777777777777777777777777777777777777777777",
"77777777777777777777777777777777777777777777777777777777777777777777777777777777777777777777777777777777777777777777777777777777",
"77777777777777777777777777777777777777777777777777777777777777777777777777777777777777777777777777777777777777777777777777777777",
"77777777777777777777777777777777777777777777777777777777777777777777777777777777777777777777777777777777777777777777777777777777",
"77777777777777777777777777777777777777777777777777777777777777777777777777777777777777777777777777777777777777777777777777777777",
"77777777777777777777777777777777777777777777777777777777777777777777777777777777777777777777777777777777777777777777777777777777",
"77777777777777777777777777777777777777777777777777777777777777777777777777777777777777777777777777777777777777777777777777777777",
"77777777777777777777777777777777777777777777777777777777777777777777777777777777777777777777777777777777777777777777777777777777",
"77777777777777777777777777777777777777777777777777777777777777777777777777777777777777777777777777777777777777777777777777777777",
"77777777777777777777777777777777777777777777777777777777777777777777777777777777777777777777777777777777777777777777777777777777",
"77777777777777777777777777777777777777777777777777777777777777777777777777777777777777777777777777777777777777777777777777777777",
"77777777777777777777777777777777777777777777777777777777777777777777777777777777777777777777777777777777777777777777777777777777",
"77777777777777777777777777777777777777777777777777777777777777777777777777777777777777777777777777777777777777777777777777777777",
"77777777777777777777777777777777777777777777777777777777777777777777777777777777777777777777777777777777777777777777777777777777",
"77777777777777777777777777777777777777777777777777777777777777777777777777777777777777777777777777777777777777777777777777777777",
"77777777777777777777777777777777777777777777777777777777777777777777777777777777777777777777777777777777777777777777777777777777",
"77777777777777777777777777777777777777777777777777777777777777777777777777777777777777777777777777777777777777777777777777777777",
"77777777777777777777777777777777777777777777777777777777777777777777777777777777777777777777777777777777777777777777777777777777",
"77777777777777777777777777777777777777777777777777777777777777777777777777777777777777777777777777777777777777777777777777777777",
"77777777777777777777777777777777777777777777777777777777777777777777777777777777777777777777777777777777777777777777777777777777",
"77777777777777777777777777777777777777777777777777777777777777777777777777777777777777777777777777777777777777777777777777777777",
"77777777777777777777777777777777777777777777777777777777777777777777777777777777777777777777777777777777777777777777777777777777",
"77777777777777777777777777777777777777777777777777777777777777777777777777777777777777777777777777777777777777777777777777777777",
"77777777777777777777777777777777777777777777777777777777777777777777777777777777777777777777777777777777777777777777777777777777",
"77777777777777777777777777777777777777777777777777777777777777777777777777777777777777777777777777777777777777777777777777777777",
"77777777777777777777777777777777777777777777777777777777777777777777777777777777777777777777777777777777777777777777777777777777",
"77777777777777777777777777777777777777777777777777777777777777777777777777777777777777777777777777777777777777777777777777777777",
"77777777777777777777777777777777777777777777777777777777777777777777777777777777777777777777777777777777777777777777777777777777",
"77777777777777777777777777777777777777777777777777777777777777777777777777777777777777777777777777777777777777777777777777777777",
"77777777777777777777777777777777777777777777777777777777777777777777777777777777777777777777777777777777777777777777777777777777",
"77777777777777777777777777777777777777777777777777777777777777777777777777777777777777777777777777777777777777777777777777777777",
"77777777777777777777777777777777777777777777777777777777777777777777777777777777777777777777777777777777777777777777777777777777",
"77777777777777777777777777777777777777777777777777777777777777777777777777777777777777777777777777777777777777777777777777777777",
"77777777777777777777777777777777777777777777777777777777777777777777777777777777777777777777777777777777777777777777777777777777",
"77777777777777777777777777777777777777777777777777777777777777777777777777777777777777777777777777777777777777777777777777777777",
"77777777777777777777777777777777777777777777777777777777777777777777777777777777777777777777777777777777777777777777777777777777",
"77777777777777777777777777777777777777777777777777777777777777777777777777777777777777777777777777777777777777777777777777777777",
"77777777777777777777777777777777777777777777777777777777777777777777777777777777777777777777777777777777777777777777777777777777",
"77777777777777777777777777777777777777777777777777777777777777777777777777777777777777777777777777777777777777777777777777777777",
"77777777777777777777777777777777777777777777777777777777777777777777777777777777777777777777777777777777777777777777777777777777",
"77777777777777777777777777777777777777777777777777777777777777777777777777777777777777777777777777777777777777777777777777777777",
"7777777777777777777777777777777777777777777777777777777777777777  77777777777777777777777777777777777777777777777777777777777777",
"7777777777777777777777777777777777777777777777777777777777777777  77777777777777777777777777777777777777777777777777777777777777",
"77777777777777777777777777777777777777777777777777777777777777@@$$@@777777777777777777777777777777777777777777777777777777777777",
"77777777777777777777777777777777777777777777777777777777777777@@$$@@777777777777777777777777777777777777777777777777777777777777",
"777777777777777777777777777777777777777777777777777777777777++%%22%%++7777777777777777777777777777777777777777777777777777777777",
"777777777777777777777777777777777777777777777777777777777777++%%22%%++7777777777777777777777777777777777777777777777777777777777",
"777777777777777777777777777777777777777777777777777777777777++%%22%%++7777777777777777777777777777777777777777777777777777777777",
"777777777777777777777777777777777777777777777777777777777777++%%22%%++7777777777777777777777777777777777777777777777777777777777",
"7777777777777777777777777777777777777777777777777777777777%%%%++%%++%%%%77777777777777777777777777777777777777777777777777777777",
"7777777777777777777777777777777777777777777777777777777777%%%%++%%++%%%%77777777777777777777777777777777777777777777777777777777",
"77777777777777777777777777777777777777777777777777777777XX%%11XXXXXX##%%@@777777777777777777777777777777777777777777777777777777",
"77777777777777777777777777777777777777777777777777777777XX%%11XXXXXX##%%@@777777777777777777777777777777777777777777777777777777",
"77777777777777777777777777777777777777777777777777777777XX%%22$$%%$$##%%++777777777777777777777777777777777777777777777777777777",
"77777777777777777777777777777777777777777777777777777777XX%%22$$%%$$##%%++777777777777777777777777777777777777777777777777777777",
"77777777777777777777777777777777777777777777777777777777XX%%22111111##%%XX777777777777777777777777777777777777777777777777777777",
"77777777777777777777777777777777777777777777777777777777XX%%22111111##%%XX777777777777777777777777777777777777777777777777777777",
"77777777777777777777777777777777777777777777777777777777XX++11222222++++  777777777777777777777777777777777777777777777777777777",
"77777777777777777777777777777777777777777777777777777777XX++11222222++++  777777777777777777777777777777777777777777777777777777",
"77777777777777777777777777777777777777777777777777777777XX..%%++++++  ..  **7777777777777777777777777777777777777777777777777777",
"77777777777777777777777777777777777777777777777777777777XX..%%++++++  ..  **7777777777777777777777777777777777777777777777777777",
"777777777777777777777777777777777777777777777777777777>>XX..##XXXXXX  ..  **==77777777777777777777777777777777777777777777777777",
"777777777777777777777777777777777777777777777777777777>>XX..##XXXXXX  ..  **==77777777777777777777777777777777777777777777777777",
"7777777777777777777777777777777777777777777777777777>>3333..##XXXXXX  ..oo**==77777777777777777777777777777777777777777777777777",
"7777777777777777777777777777777777777777777777777777>>3333..##XXXXXX  ..oo**==77777777777777777777777777777777777777777777777777",
"7777777777777777777777777777777777777777777777777777<<5566--        ....OO======777777777777777777777777777777777777777777777777",
"7777777777777777777777777777777777777777777777777777<<5566--        ....OO======777777777777777777777777777777777777777777777777",
"7777777777777777777777777777777777777777777777777777<<336666--&&&&&&==::::;;--==777777777777777777777777777777777777777777777777",
"7777777777777777777777777777777777777777777777777777<<336666--&&&&&&==::::;;--==777777777777777777777777777777777777777777777777",
"77777777777777777777777777777777777777777777777777<<333366666666554433<<::::;;==777777777777777777777777777777777777777777777777",
"77777777777777777777777777777777777777777777777777<<333366666666554433<<::::;;==777777777777777777777777777777777777777777777777",
"77777777777777777777777777777777777777777777777777<<33::33666666554433<<,,::;;--777777777777777777777777777777777777777777777777",
"77777777777777777777777777777777777777777777777777<<33::33666666554433<<,,::;;--777777777777777777777777777777777777777777777777",
"77777777777777777777777777777777777777777777777777<<33<<::3333333333<<,,,,::;;--777777777777777777777777777777777777777777777777",
"77777777777777777777777777777777777777777777777777<<33<<::3333333333<<,,,,::;;--777777777777777777777777777777777777777777777777",
"77777777777777777777777777777777777777777777777777<<3333,,,,333333<<<<,,,,::;;--777777777777777777777777777777777777777777777777",
"77777777777777777777777777777777777777777777777777<<3333,,,,333333<<<<,,,,::;;--777777777777777777777777777777777777777777777777"
};
