/* XPM */
static char *e5aacdaf5f2544a1c0f8b9568fc3c300[] = {
/* columns rows colors chars-per-pixel */
"128 128 29 1 ",
"  c black",
". c #202020",
"X c #2C2C2C",
"o c gray22",
"O c #484848",
"+ c gray33",
"@ c #646464",
"# c gray44",
"$ c #7C7C7C",
"% c #80502C",
"& c #B47044",
"* c #BC7848",
"= c #C87C4C",
"- c #D08050",
"; c #DC8854",
": c #E88C58",
"> c #F0945C",
", c #FC9C60",
"< c #FCA470",
"1 c gray55",
"2 c #989898",
"3 c gray66",
"4 c #B4B4B4",
"5 c #FCB080",
"6 c #FCB890",
"7 c #FCBC9C",
"8 c #FCC4A4",
"9 c #FCD8C4",
"0 c None",
/* pixels */
"00000000000000000000000000000000000000000000000000000000000000000000000000000000000000000000000000000000000000000000000000000000",
"00000000000000000000000000000000000000000000000000000000000000000000000000000000000000000000000000000000000000000000000000000000",
"00000000000000000000000000000000000000000000000000000000000000000000000000000000000000000000000000000000000000000000000000000000",
"00000000000000000000000000000000000000000000000000000000000000000000000000000000000000000000000000000000000000000000000000000000",
"00000000000000000000000000000000000000000000000000000000000000000000000000000000000000000000000000000000000000000000000000000000",
"00000000000000000000000000000000000000000000000000000000000000000000000000000000000000000000000000000000000000000000000000000000",
"00000000000000000000000000000000000000000000000000000000000000000000000000000000000000000000000000000000000000000000000000000000",
"00000000000000000000000000000000000000000000000000000000000000000000000000000000000000000000000000000000000000000000000000000000",
"00000000000000000000000000000000000000000000000000000000000000000000000000000000000000000000000000000000000000000000000000000000",
"00000000000000000000000000000000000000000000000000000000000000000000000000000000000000000000000000000000000000000000000000000000",
"00000000000000000000000000000000000000000000000000000000000000000000000000000000000000000000000000000000000000000000000000000000",
"00000000000000000000000000000000000000000000000000000000000000000000000000000000000000000000000000000000000000000000000000000000",
"00000000000000000000000000000000000000000000000000000000000000000000000000000000000000000000000000000000000000000000000000000000",
"00000000000000000000000000000000000000000000000000000000000000000000000000000000000000000000000000000000000000000000000000000000",
"00000000000000000000000000000000000000000000000000000000000000000000000000000000000000000000000000000000000000000000000000000000",
"00000000000000000000000000000000000000000000000000000000000000000000000000000000000000000000000000000000000000000000000000000000",
"00000000000000000000000000000000000000000000000000000000000000000000000000000000000000000000000000000000000000000000000000000000",
"00000000000000000000000000000000000000000000000000000000000000000000000000000000000000000000000000000000000000000000000000000000",
"00000000000000000000000000000000000000000000000000000000000000000000000000000000000000000000000000000000000000000000000000000000",
"00000000000000000000000000000000000000000000000000000000000000000000000000000000000000000000000000000000000000000000000000000000",
"00000000000000000000000000000000000000000000000000000000000000000000000000000000000000000000000000000000000000000000000000000000",
"00000000000000000000000000000000000000000000000000000000000000000000000000000000000000000000000000000000000000000000000000000000",
"00000000000000000000000000000000000000000000000000000000000000000000000000000000000000000000000000000000000000000000000000000000",
"00000000000000000000000000000000000000000000000000000000000000000000000000000000000000000000000000000000000000000000000000000000",
"00000000000000000000000000000000000000000000000000000000000000000000000000000000000000000000000000000000000000000000000000000000",
"00000000000000000000000000000000000000000000000000000000000000000000000000000000000000000000000000000000000000000000000000000000",
"00000000000000000000000000000000000000000000000000000000000000000000000000000000000000000000000000000000000000000000000000000000",
"00000000000000000000000000000000000000000000000000000000000000000000000000000000000000000000000000000000000000000000000000000000",
"00000000000000000000000000000000000000000000000000000000000000000000000000000000000000000000000000000000000000000000000000000000",
"00000000000000000000000000000000000000000000000000000000000000000000000000000000000000000000000000000000000000000000000000000000",
"00000000000000000000000000000000000000000000000000000000000000000000000000000000000000000000000000000000000000000000000000000000",
"00000000000000000000000000000000000000000000000000000000000000000000000000000000000000000000000000000000000000000000000000000000",
"00000000000000000000000000000000000000000000000000000000000000000000000000000000000000000000000000000000000000000000000000000000",
"00000000000000000000000000000000000000000000000000000000000000000000000000000000000000000000000000000000000000000000000000000000",
"00000000000000000000000000000000000000000000000000000000000000000000000000000000000000000000000000000000000000000000000000000000",
"00000000000000000000000000000000000000000000000000000000000000000000000000000000000000000000000000000000000000000000000000000000",
"00000000000000000000000000000000000000000000000000000000000000000000000000000000000000000000000000000000000000000000000000000000",
"00000000000000000000000000000000000000000000000000000000000000000000000000000000000000000000000000000000000000000000000000000000",
"00000000000000000000000000000000000000000000000000000000000000000000000000000000000000000000000000000000000000000000000000000000",
"00000000000000000000000000000000000000000000000000000000000000000000000000000000000000000000000000000000000000000000000000000000",
"00000000000000000000000000000000000000000000000000000000000000000000000000000000000000000000000000000000000000000000000000000000",
"00000000000000000000000000000000000000000000000000000000000000000000000000000000000000000000000000000000000000000000000000000000",
"00000000000000000000000000000000000000000000000000000000000000000000000000000000000000000000000000000000000000000000000000000000",
"00000000000000000000000000000000000000000000000000000000000000000000000000000000000000000000000000000000000000000000000000000000",
"00000000000000000000000000000000000000000000000000000000000000000000000000000000000000000000000000000000000000000000000000000000",
"00000000000000000000000000000000000000000000000000000000000000000000000000000000000000000000000000000000000000000000000000000000",
"00000000000000000000000000000000000000000000000000000000000000000000000000000000000000000000000000000000000000000000000000000000",
"00000000000000000000000000000000000000000000000000000000000000000000000000000000000000000000000000000000000000000000000000000000",
"00000000000000000000000000000000000000000000000000000000000000000000000000000000000000000000000000000000000000000000000000000000",
"00000000000000000000000000000000000000000000000000000000000000000000000000000000000000000000000000000000000000000000000000000000",
"00000000000000000000000000000000000000000000000000000000000000000000000000000000000000000000000000000000000000000000000000000000",
"00000000000000000000000000000000000000000000000000000000000000000000000000000000000000000000000000000000000000000000000000000000",
"00000000000000000000000000000000000000000000000000000000000000000000000000000000000000000000000000000000000000000000000000000000",
"00000000000000000000000000000000000000000000000000000000000000000000000000000000000000000000000000000000000000000000000000000000",
"00000000000000000000000000000000000000000000000000000000000000000000000000000000000000000000000000000000000000000000000000000000",
"00000000000000000000000000000000000000000000000000000000000000000000000000000000000000000000000000000000000000000000000000000000",
"00000000000000000000000000000000000000000000000000000000000000000000000000000000000000000000000000000000000000000000000000000000",
"00000000000000000000000000000000000000000000000000000000000000000000000000000000000000000000000000000000000000000000000000000000",
"00000000000000000000000000000000000000000000000000000000000000000000000000000000000000000000000000000000000000000000000000000000",
"00000000000000000000000000000000000000000000000000000000000000000000000000000000000000000000000000000000000000000000000000000000",
"00000000000000000000000000000000000000000000000000000000000000000000000000000000000000000000000000000000000000000000000000000000",
"00000000000000000000000000000000000000000000000000000000000000000000000000000000000000000000000000000000000000000000000000000000",
"00000000000000000000000000000000000000000000000000000000000000000000000000000000000000000000000000000000000000000000000000000000",
"00000000000000000000000000000000000000000000000000000000000000000000000000000000000000000000000000000000000000000000000000000000",
"00000000000000000000000000000000000000000000000000000000000000000000000000000000000000000000000000000000000000000000000000000000",
"00000000000000000000000000000000000000000000000000000000000000000000000000000000000000000000000000000000000000000000000000000000",
"00000000000000000000000000000000000000000000000000000000000000000000000000000000000000000000000000000000000000000000000000000000",
"00000000000000000000000000000000000000000000000000000000000000000000000000000000000000000000000000000000000000000000000000000000",
"0000000000000000000000000000000000000000000000000000000000000000oo00000000000000000000000000000000000000000000000000000000000000",
"0000000000000000000000000000000000000000000000000000000000000000oo00000000000000000000000000000000000000000000000000000000000000",
"00000000000000000000000000000000000000000000000000000000000000++##++000000000000000000000000000000000000000000000000000000000000",
"00000000000000000000000000000000000000000000000000000000000000++##++000000000000000000000000000000000000000000000000000000000000",
"000000000000000000000000000000000000000000000000000000000000OO$$33$$OO0000000000000000000000000000000000000000000000000000000000",
"000000000000000000000000000000000000000000000000000000000000OO$$33$$OO0000000000000000000000000000000000000000000000000000000000",
"000000000000000000000000000000000000000000000000000000000000OO$$33$$OO0000000000000000000000000000000000000000000000000000000000",
"000000000000000000000000000000000000000000000000000000000000OO$$33$$OO0000000000000000000000000000000000000000000000000000000000",
"000000000000000000000000000000000000000000000000000000000000OO$$33$$OO0000000000000000000000000000000000000000000000000000000000",
"000000000000000000000000000000000000000000000000000000000000OO$$33$$OO0000000000000000000000000000000000000000000000000000000000",
"000000000000000000000000000000000000000000000000000000000000OO$$33$$OO0000000000000000000000000000000000000000000000000000000000",
"000000000000000000000000000000000000000000000000000000000000OO$$33$$OO0000000000000000000000000000000000000000000000000000000000",
"0000000000000000000000000000000000000000000000000000000000$$$$@@11@@$$$$00000000000000000000000000000000000000000000000000000000",
"0000000000000000000000000000000000000000000000000000000000$$$$@@11@@$$$$00000000000000000000000000000000000000000000000000000000",
"00000000000000000000000000000000000000000000000000000000@@$$$$@@11@@$$$$@@000000000000000000000000000000000000000000000000000000",
"00000000000000000000000000000000000000000000000000000000@@$$$$@@11@@$$$$@@000000000000000000000000000000000000000000000000000000",
"00000000000000000000000000000000000000000000000000000000++$$33ooOOoo@@$$++000000000000000000000000000000000000000000000000000000",
"00000000000000000000000000000000000000000000000000000000++$$33ooOOoo@@$$++000000000000000000000000000000000000000000000000000000",
"00000000000000000000000000000000000000000000000000000000++2222XXXXXX@@$$OO000000000000000000000000000000000000000000000000000000",
"00000000000000000000000000000000000000000000000000000000++2222XXXXXX@@$$OO000000000000000000000000000000000000000000000000000000",
"00000000000000000000000000000000000000000000000000000000++3344##$$##@@$$oo000000000000000000000000000000000000000000000000000000",
"00000000000000000000000000000000000000000000000000000000++3344##$$##@@$$oo000000000000000000000000000000000000000000000000000000",
"00000000000000000000000000000000000000000000000000000000++3344444444@@OOXX&&0000000000000000000000000000000000000000000000000000",
"00000000000000000000000000000000000000000000000000000000++3344444444@@OOXX&&0000000000000000000000000000000000000000000000000000",
"000000000000000000000000000000000000000000000000000000<<++1144111111OOOO  &&&&00000000000000000000000000000000000000000000000000",
"000000000000000000000000000000000000000000000000000000<<++1144111111OOOO  &&&&00000000000000000000000000000000000000000000000000",
"0000000000000000000000000000000000000000000000000000<<77++++$$OOOOOOXX..  &&&&00000000000000000000000000000000000000000000000000",
"0000000000000000000000000000000000000000000000000000<<77++++$$OOOOOOXX..  &&&&00000000000000000000000000000000000000000000000000",
"0000000000000000000000000000000000000000000000000000<<77@@++@@XXXXXX  ..  **&&&&000000000000000000000000000000000000000000000000",
"0000000000000000000000000000000000000000000000000000<<77@@++@@XXXXXX  ..  **&&&&000000000000000000000000000000000000000000000000",
"0000000000000000000000000000000000000000000000000000<<77$$++@@XXXXXX    ++==**&&000000000000000000000000000000000000000000000000",
"0000000000000000000000000000000000000000000000000000<<77$$++@@XXXXXX    ++==**&&000000000000000000000000000000000000000000000000",
"00000000000000000000000000000000000000000000000000<<<<5555$$++      ..++&&==**&&000000000000000000000000000000000000000000000000",
"00000000000000000000000000000000000000000000000000<<<<5555$$++      ..++&&==**&&000000000000000000000000000000000000000000000000",
"00000000000000000000000000000000000000000000000000<<<<559966==%%%%%%&&::::;;==&&000000000000000000000000000000000000000000000000",
"00000000000000000000000000000000000000000000000000<<<<559966==%%%%%%&&::::;;==&&000000000000000000000000000000000000000000000000",
"00000000000000000000000000000000000000000000000000<<555599888888886655<<::::;;&&000000000000000000000000000000000000000000000000",
"00000000000000000000000000000000000000000000000000<<555599888888886655<<::::;;&&000000000000000000000000000000000000000000000000",
"00000000000000000000000000000000000000000000000000<<55::55888888886655<<,,::;;==000000000000000000000000000000000000000000000000",
"00000000000000000000000000000000000000000000000000<<55::55888888886655<<,,::;;==000000000000000000000000000000000000000000000000",
"00000000000000000000000000000000000000000000000000<<55<<::<<<<<<<<<<<<,,,,::;;==000000000000000000000000000000000000000000000000",
"00000000000000000000000000000000000000000000000000<<55<<::<<<<<<<<<<<<,,,,::;;==000000000000000000000000000000000000000000000000",
"00000000000000000000000000000000000000000000000000>>5555::::,,,,,,,,,,,,::::--==000000000000000000000000000000000000000000000000",
"00000000000000000000000000000000000000000000000000>>5555::::,,,,,,,,,,,,::::--==000000000000000000000000000000000000000000000000",
"00000000000000000000000000000000000000000000000000;;555555;;------------------==000000000000000000000000000000000000000000000000",
"00000000000000000000000000000000000000000000000000;;555555;;------------------==000000000000000000000000000000000000000000000000",
"00000000000000000000000000000000000000000000000022222222$$**********$$$$$$$$$$$$@@0000000000000000000000000000000000000000000000",
"00000000000000000000000000000000000000000000000022222222$$**********$$$$$$$$$$$$@@0000000000000000000000000000000000000000000000",
"00000000000000000000000000000000000000000000002233333322$$####==**++$$222222$$$$$$@@00000000000000000000000000000000000000000000",
"00000000000000000000000000000000000000000000002233333322$$####==**++$$222222$$$$$$@@00000000000000000000000000000000000000000000",
"00000000000000000000000000000000000000000000002233333322$$$$##++++$$$$2222$$$$$$$$@@00000000000000000000000000000000000000000000",
"00000000000000000000000000000000000000000000002233333322$$$$##++++$$$$2222$$$$$$$$@@00000000000000000000000000000000000000000000",
"000000000000000000000000000000000000000000002222332211##$$$$@@++++$$$$$$######@@@@@@@@000000000000000000000000000000000000000000",
"000000000000000000000000000000000000000000002222332211##$$$$@@++++$$$$$$######@@@@@@@@000000000000000000000000000000000000000000",
"00000000000000000000000000000000000000000022333333332222##@@@@@@OO++$$##$$11$$$$$$@@@@@@0000000000000000000000000000000000000000",
"00000000000000000000000000000000000000000022333333332222##@@@@@@OO++$$##$$11$$$$$$@@@@@@0000000000000000000000000000000000000000",
"000000000000000000000000000000000000000000333333332222$$$$$$@@++OO++##$$111111$$$$$$@@@@0000000000000000000000000000000000000000",
"000000000000000000000000000000000000000000333333332222$$$$$$@@++OO++##$$111111$$$$$$@@@@0000000000000000000000000000000000000000",
"0000000000000000000000000000000000000000223333332222$$$$$$@@@@++OO++##$$111111$$$$$$$$@@@@00000000000000000000000000000000000000",
"0000000000000000000000000000000000000000223333332222$$$$$$@@@@++OO++##$$111111$$$$$$$$@@@@00000000000000000000000000000000000000"
};
