/* XPM */
static char *bec497fd945e4e4dd273ca84d1f88521[] = {
/* columns rows colors chars-per-pixel */
"128 128 29 1 ",
"  c black",
". c #202020",
"X c #2C2C2C",
"o c #543C1C",
"O c #744C28",
"+ c #484848",
"@ c gray33",
"# c #646464",
"$ c gray44",
"% c #7C7C7C",
"& c #80502C",
"* c #905C34",
"= c #A0643C",
"- c #A86840",
"; c #B47044",
": c #C87C4C",
"> c #DC8854",
", c #E88C58",
"< c #F0945C",
"1 c #FC9C60",
"2 c #FCA470",
"3 c gray55",
"4 c #989898",
"5 c gray66",
"6 c #FCB080",
"7 c #FCB890",
"8 c #FCC4A4",
"9 c #FCD8C4",
"0 c None",
/* pixels */
"00000000000000000000000000000000000000000000000000000000000000000000000000000000000000000000000000000000000000000000000000000000",
"00000000000000000000000000000000000000000000000000000000000000000000000000000000000000000000000000000000000000000000000000000000",
"00000000000000000000000000000000000000000000000000000000000000000000000000000000000000000000000000000000000000000000000000000000",
"00000000000000000000000000000000000000000000000000000000000000000000000000000000000000000000000000000000000000000000000000000000",
"00000000000000000000000000000000000000000000000000000000000000000000000000000000000000000000000000000000000000000000000000000000",
"00000000000000000000000000000000000000000000000000000000000000000000000000000000000000000000000000000000000000000000000000000000",
"00000000000000000000000000000000000000000000000000000000000000000000000000000000000000000000000000000000000000000000000000000000",
"00000000000000000000000000000000000000000000000000000000000000000000000000000000000000000000000000000000000000000000000000000000",
"00000000000000000000000000000000000000000000000000000000000000000000000000000000000000000000000000000000000000000000000000000000",
"00000000000000000000000000000000000000000000000000000000000000000000000000000000000000000000000000000000000000000000000000000000",
"00000000000000000000000000000000000000000000000000000000000000000000000000000000000000000000000000000000000000000000000000000000",
"00000000000000000000000000000000000000000000000000000000000000000000000000000000000000000000000000000000000000000000000000000000",
"00000000000000000000000000000000000000000000000000000000000000000000000000000000000000000000000000000000000000000000000000000000",
"00000000000000000000000000000000000000000000000000000000000000000000000000000000000000000000000000000000000000000000000000000000",
"00000000000000000000000000000000000000000000000000000000000000000000000000000000000000000000000000000000000000000000000000000000",
"00000000000000000000000000000000000000000000000000000000000000000000000000000000000000000000000000000000000000000000000000000000",
"00000000000000000000000000000000000000000000000000000000000000000000000000000000000000000000000000000000000000000000000000000000",
"00000000000000000000000000000000000000000000000000000000000000000000000000000000000000000000000000000000000000000000000000000000",
"00000000000000000000000000000000000000000000000000000000000000000000000000000000000000000000000000000000000000000000000000000000",
"00000000000000000000000000000000000000000000000000000000000000000000000000000000000000000000000000000000000000000000000000000000",
"00000000000000000000000000000000000000000000000000000000000000000000000000000000000000000000000000000000000000000000000000000000",
"00000000000000000000000000000000000000000000000000000000000000000000000000000000000000000000000000000000000000000000000000000000",
"00000000000000000000000000000000000000000000000000000000000000000000000000000000000000000000000000000000000000000000000000000000",
"00000000000000000000000000000000000000000000000000000000000000000000000000000000000000000000000000000000000000000000000000000000",
"00000000000000000000000000000000000000000000000000000000000000000000000000000000000000000000000000000000000000000000000000000000",
"00000000000000000000000000000000000000000000000000000000000000000000000000000000000000000000000000000000000000000000000000000000",
"00000000000000000000000000000000000000000000000000000000000000000000000000000000000000000000000000000000000000000000000000000000",
"00000000000000000000000000000000000000000000000000000000000000000000000000000000000000000000000000000000000000000000000000000000",
"00000000000000000000000000000000000000000000000000000000000000000000000000000000000000000000000000000000000000000000000000000000",
"00000000000000000000000000000000000000000000000000000000000000000000000000000000000000000000000000000000000000000000000000000000",
"00000000000000000000000000000000000000000000000000000000000000000000000000000000000000000000000000000000000000000000000000000000",
"00000000000000000000000000000000000000000000000000000000000000000000000000000000000000000000000000000000000000000000000000000000",
"00000000000000000000000000000000000000000000000000000000000000000000000000000000000000000000000000000000000000000000000000000000",
"00000000000000000000000000000000000000000000000000000000000000000000000000000000000000000000000000000000000000000000000000000000",
"00000000000000000000000000000000000000000000000000000000000000000000000000000000000000000000000000000000000000000000000000000000",
"00000000000000000000000000000000000000000000000000000000000000000000000000000000000000000000000000000000000000000000000000000000",
"00000000000000000000000000000000000000000000000000000000000000000000000000000000000000000000000000000000000000000000000000000000",
"00000000000000000000000000000000000000000000000000000000000000000000000000000000000000000000000000000000000000000000000000000000",
"00000000000000000000000000000000000000000000000000000000000000000000000000000000000000000000000000000000000000000000000000000000",
"00000000000000000000000000000000000000000000000000000000000000000000000000000000000000000000000000000000000000000000000000000000",
"00000000000000000000000000000000000000000000000000000000000000000000000000000000000000000000000000000000000000000000000000000000",
"00000000000000000000000000000000000000000000000000000000000000000000000000000000000000000000000000000000000000000000000000000000",
"00000000000000000000000000000000000000000000000000000000000000000000000000000000000000000000000000000000000000000000000000000000",
"00000000000000000000000000000000000000000000000000000000000000000000000000000000000000000000000000000000000000000000000000000000",
"00000000000000000000000000000000000000000000000000000000000000000000000000000000000000000000000000000000000000000000000000000000",
"00000000000000000000000000000000000000000000000000000000000000000000000000000000000000000000000000000000000000000000000000000000",
"00000000000000000000000000000000000000000000000000000000000000000000000000000000000000000000000000000000000000000000000000000000",
"00000000000000000000000000000000000000000000000000000000000000000000000000000000000000000000000000000000000000000000000000000000",
"00000000000000000000000000000000000000000000000000000000000000000000000000000000000000000000000000000000000000000000000000000000",
"00000000000000000000000000000000000000000000000000000000000000000000000000000000000000000000000000000000000000000000000000000000",
"00000000000000000000000000000000000000000000000000000000000000000000000000000000000000000000000000000000000000000000000000000000",
"00000000000000000000000000000000000000000000000000000000000000000000000000000000000000000000000000000000000000000000000000000000",
"00000000000000000000000000000000000000000000000000000000000000000000000000000000000000000000000000000000000000000000000000000000",
"00000000000000000000000000000000000000000000000000000000000000000000000000000000000000000000000000000000000000000000000000000000",
"00000000000000000000000000000000000000000000000000000000000000000000000000000000000000000000000000000000000000000000000000000000",
"00000000000000000000000000000000000000000000000000000000000000000000000000000000000000000000000000000000000000000000000000000000",
"00000000000000000000000000000000000000000000000000000000000000000000000000000000000000000000000000000000000000000000000000000000",
"00000000000000000000000000000000000000000000000000000000000000000000000000000000000000000000000000000000000000000000000000000000",
"00000000000000000000000000000000000000000000000000000000000000000000000000000000000000000000000000000000000000000000000000000000",
"00000000000000000000000000000000000000000000000000000000000000000000000000000000000000000000000000000000000000000000000000000000",
"00000000000000000000000000000000000000000000000000000000000000000000000000000000000000000000000000000000000000000000000000000000",
"00000000000000000000000000000000000000000000000000000000000000000000000000000000000000000000000000000000000000000000000000000000",
"00000000000000000000000000000000000000000000000000000000000000000000000000000000000000000000000000000000000000000000000000000000",
"00000000000000000000000000000000000000000000000000000000000000000000000000000000000000000000000000000000000000000000000000000000",
"00000000000000000000000000000000000000000000000000000000000000000000000000000000000000000000000000000000000000000000000000000000",
"00000000000000000000000000000000000000000000000000000000000000000000000000000000000000000000000000000000000000000000000000000000",
"00000000000000000000000000000000000000000000000000000000000000000000000000000000000000000000000000000000000000000000000000000000",
"00000000000000000000000000000000000000000000000000000000000000000000000000000000000000000000000000000000000000000000000000000000",
"00000000000000000000000000000000000000000000000000000000000000000000000000000000000000000000000000000000000000000000000000000000",
"00000000000000000000000000000000000000000000000000000000000000000000000000000000000000000000000000000000000000000000000000000000",
"00000000000000000000000000000000000000000000000000000000000000000000000000000000000000000000000000000000000000000000000000000000",
"00000000000000000000000000000000000000000000000000000000000000000000000000000000000000000000000000000000000000000000000000000000",
"00000000000000000000000000000000000000000000000000000000000000000000000000000000000000000000000000000000000000000000000000000000",
"00000000000000000000000000000000000000000000000000000000000000000000000000000000000000000000000000000000000000000000000000000000",
"00000000000000000000000000000000000000000000000000000000000000000000000000000000000000000000000000000000000000000000000000000000",
"00000000000000000000000000000000000000000000000000000000000000000000000000000000000000000000000000000000000000000000000000000000",
"00000000000000000000000000000000000000000000000000000000000000000000000000000000000000000000000000000000000000000000000000000000",
"00000000000000000000000000000000000000000000000000000000000000000000000000000000000000000000000000000000000000000000000000000000",
"00000000000000000000000000000000000000000000000000000000000000000000000000000000000000000000000000000000000000000000000000000000",
"00000000000000000000000000000000000000000000000000000000000000000000000000000000000000000000000000000000000000000000000000000000",
"00000000000000000000000000000000000000000000000000000000000000000000000000000000000000000000000000000000000000000000000000000000",
"00000000000000000000000000000000000000000000000000000000000000000000000000000000000000000000000000000000000000000000000000000000",
"00000000000000000000000000000000000000000000000000000000000000000000000000000000000000000000000000000000000000000000000000000000",
"00000000000000000000000000000000000000000000000000000000000000000000000000000000000000000000000000000000000000000000000000000000",
"00000000000000000000000000000000000000000000000000000000000000000000000000000000000000000000000000000000000000000000000000000000",
"00000000000000000000000000000000000000000000000000000000000000000000000000000000000000000000000000000000000000000000000000000000",
"0000000000000000000000000000000000000000000000000000000000000000  00000000000000000000000000000000000000000000000000000000000000",
"0000000000000000000000000000000000000000000000000000000000000000  00000000000000000000000000000000000000000000000000000000000000",
"00000000000000000000000000000000000000000000000000000000000000@@$$@@000000000000000000000000000000000000000000000000000000000000",
"00000000000000000000000000000000000000000000000000000000000000@@$$@@000000000000000000000000000000000000000000000000000000000000",
"000000000000000000000000000000000000000000000000000000000000++%%55%%++0000000000000000000000000000000000000000000000000000000000",
"000000000000000000000000000000000000000000000000000000000000++%%55%%++0000000000000000000000000000000000000000000000000000000000",
"000000000000000000000000000000000000000000000000000000000000++%%55%%++0000000000000000000000000000000000000000000000000000000000",
"000000000000000000000000000000000000000000000000000000000000++%%55%%++0000000000000000000000000000000000000000000000000000000000",
"0000000000000000000000000000000000000000000000000000000000%%%%++%%++%%%%00000000000000000000000000000000000000000000000000000000",
"0000000000000000000000000000000000000000000000000000000000%%%%++%%++%%%%00000000000000000000000000000000000000000000000000000000",
"00000000000000000000000000000000000000000000000000000000XX%%44XXXXXX##%%@@000000000000000000000000000000000000000000000000000000",
"00000000000000000000000000000000000000000000000000000000XX%%44XXXXXX##%%@@000000000000000000000000000000000000000000000000000000",
"00000000000000000000000000000000000000000000000000000000XX%%55$$%%$$##%%++000000000000000000000000000000000000000000000000000000",
"00000000000000000000000000000000000000000000000000000000XX%%55$$%%$$##%%++000000000000000000000000000000000000000000000000000000",
"00000000000000000000000000000000000000000000000000000000XX%%55444444##%%XX000000000000000000000000000000000000000000000000000000",
"00000000000000000000000000000000000000000000000000000000XX%%55444444##%%XX000000000000000000000000000000000000000000000000000000",
"00000000000000000000000000000000000000000000000000000000XX++44555555++++  000000000000000000000000000000000000000000000000000000",
"00000000000000000000000000000000000000000000000000000000XX++44555555++++  000000000000000000000000000000000000000000000000000000",
"00000000000000000000000000000000000000000000000000000000XX..%%++++++  ..  --0000000000000000000000000000000000000000000000000000",
"00000000000000000000000000000000000000000000000000000000XX..%%++++++  ..  --0000000000000000000000000000000000000000000000000000",
"000000000000000000000000000000000000000000000000000000<<XX..##XXXXXX  ..  --;;00000000000000000000000000000000000000000000000000",
"000000000000000000000000000000000000000000000000000000<<XX..##XXXXXX  ..  --;;00000000000000000000000000000000000000000000000000",
"0000000000000000000000000000000000000000000000000000<<6666..##XXXXXX  ..oo--;;00000000000000000000000000000000000000000000000000",
"0000000000000000000000000000000000000000000000000000<<6666..##XXXXXX  ..oo--;;00000000000000000000000000000000000000000000000000",
"0000000000000000000000000000000000000000000000000000228899::        ....OO;;;;;;000000000000000000000000000000000000000000000000",
"0000000000000000000000000000000000000000000000000000228899::        ....OO;;;;;;000000000000000000000000000000000000000000000000",
"000000000000000000000000000000000000000000000000000022669999::&&&&&&;;,,,,>>::;;000000000000000000000000000000000000000000000000",
"000000000000000000000000000000000000000000000000000022669999::&&&&&&;;,,,,>>::;;000000000000000000000000000000000000000000000000",
"000000000000000000000000000000000000000000000000002266669999999988776622,,,,>>;;000000000000000000000000000000000000000000000000",
"000000000000000000000000000000000000000000000000002266669999999988776622,,,,>>;;000000000000000000000000000000000000000000000000",
"000000000000000000000000000000000000000000000000002266,,669999998877662211,,>>::000000000000000000000000000000000000000000000000",
"000000000000000000000000000000000000000000000000002266,,669999998877662211,,>>::000000000000000000000000000000000000000000000000",
"00000000000000000000000000000000000000000000000000<<6622,,6666666666221111,,>>::000000000000000000000000000000000000000000000000",
"00000000000000000000000000000000000000000000000000<<6622,,6666666666221111,,>>::000000000000000000000000000000000000000000000000",
"00000000000000000000000000000000000000000000000000<<6666111166666622221111,,>>::000000000000000000000000000000000000000000000000",
"00000000000000000000000000000000000000000000000000<<6666111166666622221111,,>>::000000000000000000000000000000000000000000000000",
"0000000000000000000000000000000000000000000000000044444455,,::<<<<<<<<<<444444%%%%0000000000000000000000000000000000000000000000",
"0000000000000000000000000000000000000000000000000044444455,,::<<<<<<<<<<444444%%%%0000000000000000000000000000000000000000000000",
"0000000000000000000000000000000000000000000000004455554433$$##----==**4455554444%%##00000000000000000000000000000000000000000000",
"0000000000000000000000000000000000000000000000004455554433$$##----==**4455554444%%##00000000000000000000000000000000000000000000",
"00000000000000000000000000000000000000000000004455554444%%$$##@@++##%%335555444444%%##000000000000000000000000000000000000000000",
"00000000000000000000000000000000000000000000004455554444%%$$##@@++##%%335555444444%%##000000000000000000000000000000000000000000"
};
