/* XPM */
static char *_a3ae77b552444baaddd725ce256709b[] = {
/* columns rows colors chars-per-pixel */
"128 128 30 1 ",
"  c #25577D",
". c #26587E",
"X c #2D5B7F",
"o c #305C7F",
"O c #2F5B80",
"+ c #345E80",
"@ c #385F81",
"# c #3C6282",
"$ c #436684",
"% c #486783",
"& c #476885",
"* c #4B6A86",
"= c #4F6D88",
"- c #546E86",
"; c #526E88",
": c #577086",
"> c #5B7287",
", c #56718A",
"< c #5C758C",
"1 c #627689",
"2 c #62798E",
"3 c #6A7B8A",
"4 c #667C90",
"5 c #697E92",
"6 c #6D8193",
"7 c #748697",
"8 c #778897",
"9 c #768798",
"0 c #778898",
"q c #788899",
/* pixels */
"+++o+o@+++++++++++++++++++++++++++++++++++++++++++++++++++++++++++++++++++++++++++++++++++++++++++++++++++++++++++++++++++++++++",
"+++++@++++++++++++++++++++++++++++++++++++++++++++++++++++++++++++++++++++++++++++++++++++++++++++++++++XO++++++++++++++++++++++",
"+++++++++++++++++++++++++++++++++++++++++++++++++++++++++++++++++++++++++++++++++++++++++++++++++++++O+&=*+O++++++++++o+++++++++",
"++++++++++++++++++++++++++++++++++++++++++++++++++++++++++++++++++++++++++++++++++++++++++++++++oXXX+;70996,O+++++++++@+++++++++",
"+++++++++++++++++++++++++++++++++++++++++++++++++++++++++++++++++++++++++++++++++++++++++++++++o#,<*<0777799,o@+++++++++++++++++",
"+++++++++++++++++++++++++++++++++++++++O+++++++++++++++++++++++++++++++++++++++++++++++++++++o.*9000777777779&o+++++++++++++++++",
"+++++++++++++++++++++++++++++++++++++OOOOO++++++++++++++++@++@+++++++++++++++++++++++++++++++*<707777777777792o+++++++++++++++++",
"+++++++++++++++++++++++++++++++++++O+#&&&#OO+@++#+++++++XOO.O++++++++++++++++++++++++++++++o;78777777777777796o+++++++++++++++++",
"+++++++++++++++++++++++++++++++++O+,6770774=+O+OXOO+++OO&=<;=#X+++++++++++++++++++++++++++o+777777777707777797*o++++++++++++++++",
"++++++++++++++++++++++++++++++++O&60777777006$O#&&&+OO=67800772#+++++++++++++++++++++++++++,7777777777777777779<++++++++++++++++",
"++++++++++++++++++++++++++++o++o=0077777777706268776=2q777777707;X+++++++++++++++++++++++o2777777777777777777779$o++++++++++++++",
"++++++++++++++++++++++++++++++o-77777777777770007777q777777777778;.oo+++++++++++++++++++X=7777777777777777777770;X++++++++++++++",
"+++++++++++++++++++++++++++++o+67777777777777777778777777777777777<;#X++++++++++++++++++.;8777777077777777777779*o++++++++++++++",
"+++++++++++++++++++++++++++++o>87777777777777777777777777777777777886;o+++++++++++++++++o*7777777777777777777704++++++++++++++++",
"+++++++++++++++++++++++++++oo#6877777077777777777777777777777777777777;o+++++++++++++++++X<8777777777777777777,+o+++++++++++++++",
"+++++++++++++++++++++++++oo*2688777777777777777777777777777777777777777#++++++++++++++++++o*<7779777777700709$OO++++++++++++++++",
"++++++++++++++++++++++++++288777777777777770777777777777777777777777778<O++++++++++++++++++o.*66599777994576=O@+++++++++++++++++",
"++++++++++++++++++++++++o68777777777777777777777777777777777977777777776*+O++++++++++++++++++Xo+o;69996,++#+O+++++++++++++++++++",
"++++++++++++++++++++++oX,8777777777777777777077777777707777777777777777706$++++++++++++++++++++++X+&=*@O++++++++++++++++++++++++",
"++++++++++++++++++++++o#687777770777077777777777777777770777777777777777777#O+++++++++++++++++++++OXOO++++++++++++++++++++++++++",
"++++++++++++++++++++++X*7777777777777770777777777707777777777777877777777776++++++++++++++++++++++++++++++++++++++++++++++++++++",
"++++++++++++++++++++++o<0777777777777777777777777777777777777777777777777770&+++++++++++++++++++++++++++++++++++++++++++++++++++",
"++++++++++++++++++++++X<0777777777777777777777777777777777777977777777777777,O++++++++++++++++++++++++++++++++++++++++++++++++++",
"+++++++++++++++++++++#X,0707777707777777077777777777777777777777777777777777<O++++++++++++++++++++++++++++++++++++++++++++++++++",
"++++++++++++++++++++++O*7777777777777777770777777777777777777777777777777770<X++++++++++++++++++++++++o@+++++OXXoXX+++++++++++++",
"++++++++++++++++++++++++6777777777777777777777777777707777779777777777778777#O++++++++++++++++++++++++@o+++O+*<442,#O+++++++++++",
"XXX++++++++++++++++++++O=0777777777777777777777777777777777777777777777777q2O+++++++++++++++++++++++o#o#++O*599979972@ooooo+++XX",
"<;&oo+++++++++++++++++++O<0777777777077777777777777777777777777777787777776O+++++++++++++++++++++++++o+o+o,99777777796##*%#Xo+*;",
"7776*o++++++++++++++++++++;7777777777707777777777777777777777777777777776,+++++++++++++++++++++++++++++@O,77777777777077877;=678",
"77777;ooXoOX++++++++++o+++O#<667777777777770777777777077777777777778q2&&#XO++++++++++++++++++++++++++XXX#77777777777777777787877",
"777777=*242*OO++++++++++++++XoX$7777777777777777777777777777777970072+OOO+++++++++++++++++++++++O++O#*,,497777777777777777777777",
"7777777799982@+++++++++++++++++X=777777777777777777777777777778<#*&#XO++++++++++++++++++++++++++@O@<6999977777777777777777777777",
"777777777777q<X#+O++++++++++++++O&7877777777066799999879977997=oooo++++++++++++++++++++++++++++oO#5q9699777777777777777777777777",
"77777777777777276$.O++++++++++++++#<7q700777<#+*,242<**26662=@X++++++++++++++++++++++++++++++Xo+#5979779777777977777777777777777",
"777777777777777706<=+O+++++++++++++O#=<22<*#OO+OOXooXOXOO+OOXO++++++++++++++++++++++++++++++O*6669977777977777778777777977777779",
"777777777777777777086#O+++++++++++++XXXOXXOO++++++++++++++++@+++++++++++++++++++++++++++++@O,70799977777777777777777777797777777",
"7777777777777777777776++++++++++++++++++++++++++++++++++++++++++++++++++++++++++++++++++++O*077797777777777777777777777777777777",
"7777777777777777777778*o++++++++++++++++++++++++++++++++++++++@o++++++++++++++++++++++++++X4077777777779777777777777777777777777",
"7777777777777777777777<.+++++++++++++++++++++++++++++++++++++++++++++++++++++++++++++++++O+6777777777777779777997777777777777077",
"7777787777777777777778,X++++++++++++++++++++++++++++++++++++++++++++++++++++++++++++++++++@6777777777777777777997777777777777777",
"7777777777777778777777*X++++++++++++++++++++++++++++++++++++++++++++++++++++++++++++++++++o2777777777777777777767777777777707777",
"7777777777777777777782++++++++++++++++++++++++++++++++++++++++++++++++++++++++++++++++++++X*777777777777777777797777777777777777",
"777777777777777788882#o++++++++++++++++++++++++++++++++++++++++++++++++++++++++++++++++++++o;77799977777777777777777777777777777",
"7777777787777706:<<*+o+++++++++++++++++++++++++++++++++++++++OOOXX++++++++++++++++++++++++++o*2662697779779777777777777777777777",
"777777877777777*.+oo+++++++++++++++++++++++++++++++++++++++O+=;<;*+X+++++++++++++++++++++++++oo++O$49qq9996q99777999777777770777",
"7777q7267q7006&O+++++++++++++++++++++++++++++++++++++++++++*6700876;o+++++++++++++++++++++++++++++O+*<22<*@<7qqq96*<779970762707",
"7q776#O+=<2<*+O+++++++++++++++++++++++++++++++++++++++++++<777777778<+++++++++++++++++++++++++++++++OOOOOOOO$,2<*@OX#,<22,*+X$27",
"&&&#X++OOOOOO++++++++++++++++++++++++++++++++++++++++O.OO,07777777777;.oXo+++++++++++++++++++++++++++++++++@OXXXO+++OOOOOOO++OX@",
"+X+++++++++++++++++++++++++++++++++++++++++++++++++O+$=*=7777777777777<62=O+++++++++++++++++++++++++++++++++++++++++++@+++@+++++",
"++++++++++++++++++++++++++++#+++++++++++++++++++++o#47997777777777777787772+++++++++++++++++++++++++++++++++++++++++++++++++++++",
"++++++++++++++++++++++++++++++++++++++++++++++++OO#797777777777777777777778;O#@+Xo++++++++++++++++++++++++++++++++++++++++++++++",
"++++++++++++++++++++++++++++++++++++++++++++++O+#$497977777777777777777777776766=o++++++++++++++++++++++++++++++++++++++++++++++",
"++++++++++++++++++++++++++++++++++++++++++++oo;6777777777777777777777777777777778,o+++++++++++++++++++++++++++++++++++++++++++++",
"+++++++++++++++++++++++++++++++++++++++++++++6007777777777777777777777777777777777&X++++++++++++++++++++++++++++++++++++++++++++",
"+++++O+++++++++++++++++++++++++++++++++++++X287777777977777077777777787777777777772X+X++++++++++++++++++++++++++++++++++++++++++",
"++++++++++++++++++++++++++++++++++++++++++X*77777777777777777777777777777777777777766;o+++++++++++++++++++++++++++++++++++++++++",
"++++++++++++++++++++++++++++++++++++++++++o<8777777777777777777777777777777777777778882+++++++++++++++++++++++++++++++++++++++++",
"++++++++++++++++++++++++++++++++++++++++++o67777777777777777777777777770777777777777778<o+++++++++++++++++++++++++++++++++++++++",
"++++++++++++++++++++++++++++++++++++++++++o677777777777777777777777777777777777778777777#+++++++++++++++++++++++++++++++++++++++",
"++++++++++++++++++++++++++++++++++++++++++.,77777777777777777777777777777777777777777777&o++++++++++++++++++++++++++++++++++++++",
"++++++++++++++++++++++++++++++++++++++++++o&77777777777777777770777777777777777777777777&o++++++++++++++++++++++++++++++++++++++",
"+++++++++++++++++++++++++++++++++++++++++++o<8777777777777777777770777777777777777777777#o+++++++++++++++++++++++++++++++@++++++",
"XOXX+++++++++++++++++++++++++++++++++++++++++277977777777777777777777777777777777777778<o++++++++++++++++++++++++++++++OOOXX+++X",
"222=@O++++++++++++++++++++++++++++++++++++++++*6777777777777777777777770707077077787786++++++++++++++++++++++++++++++O#=22<=+X@=",
"99977=o+++++++++++++++++++++++++++++++++++++@+OO##*9977777779977777097777797777788676>+o++++++++++++++++++++++++++++o,7000996;77",
"777777,X@+++++++++++++++++++++++++++++++++++++++O+X*7997779q657q0076*############$##+o+++++++++++++++++++++++++@++oo<07777777977",
"7777777&oX++o@+++++++++++++++++++++++++++++++++++++O#279976<@+*;,,&+OOO+++O+OO+++oooo+++++++++++++++++++++++++++o+o=077777777777",
"777777776,+o++++++++++++++++++++++++++++++++++++++++OO#$*$@X++oXOOO+++++++++++++++++++++++++++++++++++++++++++o#2667877777777777",
"77777777772o+++++++++++++++++++++++++++++++++++++++++++Oo+++++@+++++++++++++@+++++++++++++++++++++++++++++++++#68999777777777777",
"77777777779*O@+++++++++++++++++++++++++++++++++++++++++++++++o+++++++++++++++++++++++++++++++++++++++++++++++.<77777777777777777",
"777777777792.+++++++++++++++++++++++++++++++++++++++++++++++o#o++++++++++++++++++++++++++++++++++++++++++++X#6777777777777777777",
"777777777777*O+++++O+++++++++++++++++++++++++++++++++++++++++o#o++++++++++++++++++++++++++++++++++++++++++X&77777777777777777777",
"7777777777777=X+++++++++++++++++++++++++++++++++++++++++++o+++o#+++++++++++++++++++++++++++++++++++++++++o+677770777777777777777",
"77797777777776++++++++++++++++++++oX++@+OOO+++++++++++++++++++@o++++++++++++++++++++++++++++++++++++++++#o%877777777777770777777",
"77777777777777#O+++++++++++++++++O$<46664,#O++O++++++++++++++++++++++++++++++++++++++++++++++++++++++++++o%677777777777777777777",
"77777777777776++++++++++++++++++#<799979qq6,+++@+++@+++++++++++++++++++++++++++++++++++++++++++++++++++++o+687777777777777777777",
"7777977777770<X++++++++++++OOOO#6q777777779q2+++XXOO++++++++++++++++++++++++++++++++++++++++++++++++++++++o-88777777777777777770",
"7777777777072++++++++++++O#<22<6977777797776q2X#*=,$+O+++++++++++++++++++++++++++++++++++++++++++++++++++++o%6877777777777777777",
"9777777707<#++++++++++++O,700000777777777777974679976;++++++++++++++++++++++++++++++++++++++++++++++++++++++ >887777707777777777",
"777779097;.O+++++++++++o<077777777777777777777997779994+++++++++++++++++++++++++++++++++++++++++++++++++++++o#687700777777777777",
"77797,,,$O+@++++++++++O$777777777777777777777777777777q4+O+++++++++++++++++++++++++++++++++++++++++++++++++++X$176<;777777770777",
"9076&OOXO+++++++++@+O++2q7777777777777777777777777877779,X++++++++++++++++++++++++++++++++++++++++++++++++++++oX@+OO&6700772*677",
",=$+O++@++++++++++O+,677777777777777779777777777777777796+++++++++++++++++++++++++++++++++++++++o@+++++++++++++@++++++&=<*#OO+#,",
"OXO+++++++++++++++#60077777777777777777770777777797777777$X++++++++++++++++++++++++++++++++++oo++ooo++++++++++++++++O++OOO++++OO",
"+@++++++++++++++O#707777777777977797777777777777777777779=OO+++++++++++++++++++++++o+++++++o+%>111-oo+++++++++++++++++++++++++++",
"++++++++++++++++O6q77777777777777777777777777777777777779*O++++++++++++++++++++++++++oooooo@13333331#o++++++++++++++++++++++++++",
"+++++++++++++++O=07777777777777777777777777077777777797772$++++++++++++++++++++++++o#:111:#1333333333#++++++++++++++++++++++++++",
"+++++++++++++++O47777777777777777777777777777777777777777q6*O+++++++++++++++++++++o%33333333333333333>X+++++++++++++++++++++++++",
"+++++++++++++++@67777777777777777777777777777777777777777797$O+++++++++++++++++++o%6333333133333333333#Xo+++++++++++++++++++++++",
"++++++++++++++o#707777777777777777777777777777707777777777792O+++++++++++++++++++#333333333333333333331>$+++++++++++++++++++++++",
"+++++++++++++++@677777777770777077707770777777777777777777995+++++++++++++++++++ -33333333333333333333333*X+++++++++++++++++++++",
"+++++++++++++++O407777777777777777777777777777777777977777996@++++++++++++++++o+#>333333333333333333333333$Xo+++++++++++++++++++",
"+++++++++++++++X;077777770777777707777777777777777777797796q5O+++++++++++++++O%1333333333333333333333333333>#o++++++++++++++++++",
"+++++++++++++++++607777777777777777777777777777777797777777q;O++++++++++++++o*3333333333333333333333333333332#o+++++++++++++++++",
"++++++++++++++++O&7077707777777777777777777777777777777779q4+O++++++++++++++$61333333333333333333333333333336>++++++++++++++++++",
"++++++++++++++++OO&607777777770777777707777077777777777797<+++++++++++++++++1613333333333333333333333333333333#+++++++++++++++++",
"++++++++++++++++o@o#<77777777777777777977777777777777777=#O+++++++++++++++o+1333333333333333333333333333333313*oo@o@++++++++++++",
"+++++++++++++++++++o.<7777777777777777777777777777777772.+++++++++++++++++o%3333333333333333333333333333333333%oo@++++++++++++++",
"++++++++++++++++o++@o,077777777777777777777777777777779=X+++++++o+++++++++o$3333333333333333333333333333333333#o++++++++++++++++",
"++++++++++++++++@+++o@797777777777777777777777777777776+++++++++++++++++++o#133333333333333333333333333333336>Xo++++++++++++++++",
"+++++++++++++++++++o@X*9977777777777777777777777777777$o+++++++++++#+++++++o:33333333333333333333333333333331@++++++++++++++++++",
"++++++++++++++++++++++O*79990777777777777077777777797&O+++++++++++oo++++++++#133333133333333333333333333331:++++++++++++++++++++",
"++++++++++++++++++++++@X@,24<69777777777777797777995$O++++++++++#o#o+++++++++#133333333333333333333333333%ooo+++++++++++++++++++",
"++++++++++++++++++++++++OXoo.@407777777707*,667762=+O+++++++++++oo#o+++++++++oo-111133333313333333331131%oo@++++++++++++++++++++",
"++++o+++++++++++++++++++++@+++O,779790972#Xo++##@OO+++++++++++++o#+o#o#o+++++++ooo++>333333333333333$+$oo@++++++++++++++++++++++",
"+oX+oXXO@++++++++++++++++++++++O@*2462,$oo++++++++++++++++++++++ooo#o++++++++++++o++o%>111133333333*o+oo+o++++++++++++++++++++++",
"o&<666<$O++++++++++++++++++++++++XXoXOXO@+++++++++++++++++++++++##oo++o#+++++++++++++ooo+o+>333331%o++++++++++++++@+++++++++++@o",
"277778772+O+XX+++++++++++++++++++++@++++++++++++++++++++++++++++oo+++++o+++++++++++++++o+++o#-:-%@oo++++++++++++++o@o+++++++++o#",
"7777777794o#**@o@++++++++++++++++++++++++++++++++++++++++++++++++++++++++++++++oo+++++++++++oooooo@++++++++++++++++++++++++++o@6",
"777777777866986*o++++++++++++++++++++++++++++++++++++++++++++++++++o+++++++++++##+++++++++++++++@++++++++++++++++++++++++++Xoo38",
"7777777777777777#X++++++++++++++++++++++++++++++++++++++++++OO++oXo++++++++++++oo+++++++++++++++o+++++++++++++++++++++++OO#=:<77",
"77777777777777794#o++++++++++++++++++++++++++++++++++++++++O*2556<#o#+++++++++o#o++++++++++++++++++++++++++++++++++++++o@2788877",
"777777777777777797<@O++++++++++++++++++++++++++++++++++oXX+29999886=XX.++++++++++++++++++++++++++++++++++++++++++++++@o#77777777",
"77977777777777777792o+++++++++@o++++++++++++++++++++++O&<4699777778826,o+++++++++++++++++++++++++++++++++++++++++++++O@677777777",
"77777779778777777779*O++++++o@o@++++++++++++++++++++++27999777777777888<oXo++++++++++++++++++++++++++++++++++++++++++o<977777777",
"777777777777777778794O++++++@o@o+++++++++++++++++OXXO2q77777777777777787<*#X+++++++++++++++++++++++++++++++++++++++++@6977777777",
"777777777777777977795+++++++++++++++++++++++++++O#<449777777777777777777876&o+++++++++++++++++++++++++++++++++++++++o&7777777777",
"777777777777777777795o+++++++++++++++++++++++++o&7qq977777777797777777777777#o+++++++++++++++++++++++++++++++++++++@X*9777777777",
"77777777777777777779<X++++++++++++++++++++++++++5997777777777777777777877777;X++++++++++++++++++++++++++++++++++++++X*9777777777",
"77977777977778777777#+++++++++++++++++++++++++X*9777777777777777777777777778<X++++++++++++++++++++++++++++++++++++++o#7777777777",
"7770777777777777888=+++++++++++++o#o#oo@++++++X*9977777777777777777777777777;X+++++++++++++++++++++++++++++++++++++++o4977777777",
"777777777797777772%X++++++++++++o#o+++@o++++++O$7777777777777777777777777706#++++++++++++++++++++++++++++++++++++++++o*977977777",
"777777777777796##oX++++++++++++++oo+o+o@++++++@O<9779q967779777777777777086&++++++++++++++++++++++++++++++++++++++++++X,07777977",
"777777777777792.o++++++++++++++++o#o#o#o+++++++O+<79946q9779999779760992=;@o+++++++++++++++++++++++++++++++++++++++++++o,7999999",
"777777779997q6#o+++++++++++++++++++#+++++++++++++O#*$O#<7776267974$@=2=+OO++++++++++++++++++++++++++++++++++++++++++++++O#<6776<",
"*67700074,662$o@o++++++++++++++++++o++++++++++++++OOX+OO+##+O+$&#+O+OOO+++++++++++++++++++++++++++++++++++++++++++++++++@OX+@@oX",
"++*<22<*OO+@oO@o+++++++++++++++++++++++++++++++++++++++++OO++OOOO+++++++++++++++++++++++++++++++++++++++++++++++++++++++++@+O+++",
"++O.O+.X+++++++++++++++++++++++++++++o+++++++++++++++++++@++++++++++++++++++++++++++++++++++++++++++++++++++++++++++++++++++++++"
};
