/* XPM */
static char *_062_bfc92d938f2b021677cfb34ea2312be496253aee6c8075817af64149bdb0bfc4[] = {
/* columns rows colors chars-per-pixel */
"128 128 51 1 ",
"  c #382C14",
". c #202020",
"X c #2C2C2C",
"o c gray22",
"O c #4C0000",
"+ c #640000",
"@ c #700000",
"# c #7C0000",
"$ c #483818",
"% c #543C1C",
"& c #5C4020",
"* c #6C4824",
"= c #744C28",
"- c #484848",
"; c gray33",
": c #646464",
"> c gray44",
", c #7C7C7C",
"< c #880000",
"1 c #980000",
"2 c #A40000",
"3 c #A80000",
"4 c #D40000",
"5 c #80502C",
"6 c #885830",
"7 c #905C34",
"8 c #9C6038",
"9 c #A0643C",
"0 c #A86840",
"q c #B47044",
"w c #BC7848",
"e c #C87C4C",
"r c #D08050",
"t c #DC8854",
"y c #E88C58",
"u c #F0945C",
"i c #FC9C60",
"p c #FCA470",
"a c gray55",
"s c #989898",
"d c gray66",
"f c #B4B4B4",
"g c #FCB080",
"h c #FCB890",
"j c #FCBC9C",
"k c #FCC4A4",
"l c #FCD4BC",
"z c #C0C0C0",
"x c #D0D0D0",
"c c gainsboro",
"v c #ECECEC",
/* pixels */
"XXXXXXXXXXXXXXXXXXXXXXXXXXXXXXXXXXXXXXXXXXXXXXXXXXXXXXXXXXXXXXXXXXXXXXXXXXXXXXXXXXXXXXXXXXXXXXXXXXXXXXXXXXXXXXXXXXXXXXXXXXXXXXXX",
"XXXXXXXXXXXXXXXXXXXXXXXXXXXXXXXXXXXXXXXXXXXXXXXXXXXXXXXXXXXXXXXXXXXXXXXXXXXXXXXXXXXXXXXXXXXXXXXXXXXXXXXXXXXXXXXXXXXXXXXXXXXXXXXX",
";;;;;;;;;;;;;;;;;;;;;;;;;;;;;;;;;;;;;;..........;;;;;;;;----------------;;;;;;;;;;;;;;;;;;;;;;;;;;;;;;;;;;;;;;;;;;;;;;;;;;;;;;;;",
";;;;;;;;;;;;;;;;;;;;;;;;;;;;;;;;;;;;;;..........;;;;;;;;----------------;;;;;;;;;;;;;;;;;;;;;;;;;;;;;;;;;;;;;;;;;;;;;;;;;;;;;;;;",
";;ccccccccccccccccccccccccccccccccccccccccdd>>..;;--ddzzccccccccccccccxxdd,,--oo;;;;>>ddcccccczzddaaaa>>::;;------------------;;",
";;ccccccccccccccccccccccccccccccccccccccccdd>>..;;--ddzzccccccccccccccxxdd,,--oo;;;;>>ddcccccczzddaaaa>>::;;------------------;;",
";;cccccczzzzzzzzzzzzzz,,,,,,,,,,,,,,,,,,,,,,,,,,,,>>>>>>>>>>>>>>>>>>>>>>>>>>>>>>>>>>>>>>>>>>>>>>>>>>>>>>>>>>ccccccccccxxzzzzffss",
";;cccccczzzzzzzzzzzzzz,,,,,,,,,,,,,,,,,,,,,,,,,,,,>>>>>>>>>>>>>>>>>>>>>>>>>>>>>>>>>>>>>>>>>>>>>>>>>>>>>>>>>>ccccccccccxxzzzzffss",
";;cccczzaassdddddddddd,,----------------oooooooooooooooooooooooooooooooooooo................................cccccccccccccccccccc",
";;cccczzaassdddddddddd,,----------------oooooooooooooooooooooooooooooooooooo................................cccccccccccccccccccc",
";;cczzdddddd,,aaddddss,,--ssssssssssssssssssssssssssssssssssssssssssssssssssssssssssssssssssssssssssssss;;..>>ddddaaaaddddaaaadd",
";;cczzdddddd,,aaddddss,,--ssssssssssssssssssssssssssssssssssssssssssssssssssssssssssssssssssssssssssssss;;..>>ddddaaaaddddaaaadd",
";;ffzzaaddaadd,,ddaass,,--ssssssssssssssssssssssssssssssssssssssssssssssssssssssssssssssssssssssssssssss;;..>>,,aaddaa,,aaddaaaa",
";;ffzzaaddaadd,,ddaass,,--ssssssssssssssssssssssssssssssssssssssssssssssssssssssssssssssssssssssssssssss;;..>>,,aaddaa,,aaddaaaa",
";;ffzzssddddaaddaaaaaa,,--ssssssssssssssssssssssssssssssssssssssssssssssssssssssssssssssssssssssssssssss;;..>>ssddaaddssddaaddss",
";;ffzzssddddaaddaaaaaa,,--ssssssssssssssssssssssssssssssssssssssssssssssssssssssssssssssssssssssssssssss;;..>>ssddaaddssddaaddss",
";;aazzaassaaddaaddssdd,,--ssssssssssssssssssssssssss,,::--------------,,aassssssssssssssssssssssssssssss;;..>>ssssddddssssdd,,ss",
";;aazzaassaaddaaddssdd,,--ssssssssssssssssssssssssss,,::--------------,,aassssssssssssssssssssssssssssss;;..>>ssssddddssssdd,,ss",
";;aazzaaaassaaaaaaaaaa,,--ssssssssssssssssssssssss;;----..................----,,ssssssssssssssssssssssss::..>>ddaaddaaddaaddaass",
";;aazzaaaassaaaaaaaaaa,,--ssssssssssssssssssssssss;;----..................----,,ssssssssssssssssssssssss::..>>ddaaddaaddaaddaass",
"..>>zzddaassddddssaass,,--ssssssssssssssssssssss;;--....oooo;;oooooooooo......--ssssssssssssssssssssssss::..>>aassssssaassssssaa",
"..>>zzddaassddddssaass,,--ssssssssssssssssssssss;;--....oooo;;oooooooooo......--ssssssssssssssssssssssss::..>>aassssssaassssssaa",
"..;;zzaassaaddaaaassdd,,--ssssssssssssssssssssttee>>oooooo;;;;aa,,;;oo--;;oooo....ssssssssssssssssssssss::..>>aa>>>>::::;;;;;;;;",
"..;;zzaassaaddaaaassdd,,--ssssssssssssssssssssttee>>oooooo;;;;aa,,;;oo--;;oooo....ssssssssssssssssssssss::..>>aa>>>>::::;;;;;;;;",
"..;;zz,,ddddaassaassdd,,--ssssssssssssssssssssiigggggg>>eeww>>,,aa::XX::>>::ooXX..--ssssssssssssssssssss::..;;;;;;;;;;;;;;----oo",
"..;;zz,,ddddaassaassdd,,--ssssssssssssssssssssiigggggg>>eeww>>,,aa::XX::>>::ooXX..--ssssssssssssssssssss::..;;;;;;;;;;;;;;----oo",
"oo;;,,;;;;;;;;;;::>>,,,,oossssssssssssssssssttgghhhhjjgg>>rrww;;;;ooXX--;;----XX....::ssssssssssssssssss::..----ooooXX..........",
"oo;;,,;;;;;;;;;;::>>,,,,oossssssssssssssssssttgghhhhjjgg>>rrww;;;;ooXX--;;----XX....::ssssssssssssssssss::..----ooooXX..........",
"oo........oo----;;;;;;,,oossssssssssssssssssiigghhhhkkgg>>rrooooooooXXooooooooXX....--ssssssssssssssssss::......................",
"oo........oo----;;;;;;,,oossssssssssssssssssiigghhhhkkgg>>rrooooooooXXooooooooXX....--ssssssssssssssssss::......................",
";;oo............XXXXXX,,oossssssssssssssssiigggghhkkgggggguuooooooooXXooooooooXX....XXssssssssssssssssss::....XXXXoooooooooo--;;",
";;oo............XXXXXX,,oossssssssssssssssiigggghhkkgggggguuooooooooXXooooooooXX....XXssssssssssssssssss::....XXXXoooooooooo--;;",
"aa,,>>;;--oooo........,,oossssssssssssssssee00wwppkkggggggggqq88886655ooooooXX......XXssssssssssssssssss::..;;;;;;;;;;;;>>,,dddd",
"aa,,>>;;--oooo........,,oossssssssssssssssee00wwppkkggggggggqq88886655ooooooXX......XXssssssssssssssssss::..;;;;;;;;;;;;>>,,dddd",
"cccccczzzzddaa,,;;;;;;,,oossssssssssssssssss    66wwkkgggghhppuu0000000055oo......XXXXssssssssssssssssss>>..>>oo;;;;,,sszzvvvvvv",
"cccccczzzzddaa,,;;;;;;,,oossssssssssssssssss    66wwkkgggghhppuu0000000055oo......XXXXssssssssssssssssss>>..>>oo;;;;,,sszzvvvvvv",
"cccccccccccccccccccccc,,oosssssssssssssssshhee--wwppuuggkkppuuuuttuuuu0077&&......XX--ssssssssssssssssss>>..;;oo;;aazzccccffzzss",
"cccccccccccccccccccccc,,oosssssssssssssssshhee--wwppuuggkkppuuuuttuuuu0077&&......XX--ssssssssssssssssss>>..;;oo;;aazzccccffzzss",
"ddddzzzzxxcccccccccccc,,oosssssssssssssshhllggttppggggggppuuuuyyii&&00uu&&&&....XX-->>ssssssssssssssssss>>..;;oo;;ddccxxzzzzssff",
"ddddzzzzxxcccccccccccc,,oosssssssssssssshhllggttppggggggppuuuuyyii&&00uu&&&&....XX-->>ssssssssssssssssss>>..;;oo;;ddccxxzzzzssff",
"aaddddddssaazzzzddzzdd,,oosssssssssssskkllkkppiitthhggppuuuuyyttpprr55pp&&&&....XX>>ssssssssssssssssssss>>..;;oo;;zzccffddssssdd",
"aaddddddssaazzzzddzzdd,,oosssssssssssskkllkkppiitthhggppuuuuyyttpprr55pp&&&&....XX>>ssssssssssssssssssss>>..;;oo;;zzccffddssssdd",
"ddaaaaaaaaddssaassaadd,,oossssssssssssyywwwwwweeiittiiiiiiyyttttrr00uuww&&&&..XX--ssssssssssssssssssssss>>..;;oo;;zzcczzaassaaaa",
"ddaaaaaaaaddssaassaadd,,oossssssssssssyywwwwwweeiittiiiiiiyyttttrr00uuww&&&&..XX--ssssssssssssssssssssss>>..;;oo;;zzcczzaassaaaa",
"aaaassaassddddddddssaa,,oossssssssssssssssiiiippttppiiiiuuyytteeiipprr==&&&&..XX>>ssssssssssssssssssssss>>..;;..;;zzccddaaaaaass",
"aaaassaassddddddddssaa,,oossssssssssssssssiippppttppiiiiuuyytteeiipprr==&&&&..XX>>ssssssssssssssssssssss>>..;;..;;zzccddaaaaaass",
"aaddddaaddssddaassdddd,,oossssssssssssssssllppggppuuppuuyyeeww00rr66======&&&&--ssssssssssssssssssssssss>>..;;..--ccccaassddddss",
"aaddddaaddssddaassdddd,,oossssssssssssssssll88ggppuuppuuyyeeww00rr66======&&&&--ssssssssssssssssssssssss>>..;;..--ccccaassddddss",
"ddaaaaddaassaaaaaaaadd,,oossssssssssssssss88ttiiggppuuuuee000088wwtt7777==&&&&>>ssssssssssssssssssssssss>>..;;..--ccccddaassaaaa",
"ddaaaaddaassaaaaaaaadd,,oossssssssssssssss88ttiiggppuuuuee000088wwtt7777==&&&&>>ssssssssssssssssssssssss>>..;;..--ccccddaassaaaa",
"aaddaaaassaaddssaaddss,,oossssssssssssssssrrppuuggppiiyyee008888qqppttww66&&&&ssssssssssssssssssssssssss>>..;;..--ccccaaddssssss",
"aaddaaaassaaddssaaddss,,oossssssssssssssssrrppuuggppiiyyee008888qqppttww66&&&&ssssssssssssssssssssssssss>>..;;..--ccccaaddssssss",
";;;;;;;;>>>>aaaaaaaaaa,,oosssssssssssssssspphhppttiittww887788qqppppppuuww00====ssssssssssssssssssssssss>>..;;..--ccdd,,;;;;;;;;",
";;;;;;;;>>>>aaaaaaaaaa,,oosssssssssssssssspphhppttiittww887788qqppppppuuww00====ssssssssssssssssssssssss>>..;;..--ccdd,,;;;;;;;;",
";;;;;;;;;;;;;;;;;;;;;;,,oossssssssssssssssuuppttww0088777788qqttppppwwww7755====,,aassssssssssssssssssss>>..oo..--dd,,;;;;;;;;;;",
";;;;;;;;;;;;;;;;;;;;;;,,oossssssssssssssssuuppttww0088777788qqttppppwwww7755====,,aassssssssssssssssssss>>..oo..--dd,,;;;;;;;;;;",
"..........oooooooooooo,,oossssssssssssssssssssss8866666688qqttppwwww7777775555%%====>>aassssssssssssssss>>......................",
"..........oooooooooooo,,oossssssssssssssssssssss8866666688qqttppwwww7777775555%%====>>aassssssssssssssss>>......................",
"......................,,oossssssssssssssssssssssssssqq88qqqqppww7777887766==%%5555======>>aassssssssssss>>..oooo................",
"......................,,oossssssssssssssssssssssssssqq88qqqqppww7777887766==%%5555======>>aassssssssssss>>..oooo................",
";;;;--ooooXXXXXX......>>oossssssssssssssssssssssaarrqqqqrrpp7777888888==%%5599999977775566==>>aassssssss>>..;;;;;;;;;;;;;;oo;;;;",
";;;;--ooooXXXXXX......>>oossssssssssssssssssssssaarrqqqqrrpp7777888888==%%5599999977775566==>>aassssssss>>..;;;;;;;;;;;;;;oo;;;;",
";;;;;;;;-------------->>..ssssssssssssssssssaaaarrwwrrrrqq8888qqqq==%%5599qqqqqqqqqqqqqq888866==>>ssssss>>..,,aacccccczzddXXoo;;",
";;;;;;;;-------------->>..ssssssssssssssssssaaaarrwwrrrrqq8888qqqq==%%5599qqqqqqqqqqqqqq888866==>>ssssss>>..,,aacccccczzddXXoo;;",
";;;;>>ddffcccccccccccc>>..ssssssssssssssssaa>>rrrrwwrree99qqqq66%%5599qqqqqqqqqqqqqqqqqqqqqq8866==,,ssss>>..aaffcccczzdd>>XXXX;;",
";;;;>>ddffcccccccccccc>>..ssssssssssssssssaa>>rrrrwwrree99qqqq66%%5599qqqqqqqqqqqqqqqqqqqqqq8866==,,ssss>>..aaffcccczzdd>>XXXX;;",
";;--ddcccccccccccccccc>>..ssssssssssssssaa>>==rr99rrrreeeeqq==%%88qqqqqqqq0088558888qqqqqqqqqq8855==,,ss>>..>>ddaaddaa>>;;..XX;;",
";;--ddcccccccccccccccc>>..ssssssssssssssaa>>==rr99rrrreeeeqq==%%88qqqqqqqq0088558888qqqqqqqqqq8855==,,ss>>..>>ddaaddaa>>;;..XX;;",
";;--ffccffddddddaaddaa>>..ssssssssssssss>>55==rr99rrrreeqq====99qqqqqqqq0099555588888888666666666655==ss>>..>>ssaaaaaa;;oo....;;",
";;--ffccffddddddaaddaa>>..ssssssssssssss>>55==rr99rrrreeqq====99qqqqqqqq0099555588888888666666666655==ss>>..>>ssaaaaaa;;oo....;;",
";;--ccccaaddaaddddddaa>>..ssssssssssssaa5555==rr5599rrqq====qqqqqqqqqqqq9977==5588886688888866666666==ss>>..>>aaddaaaa;;oo....;;",
";;--ccccaaddaaddddddaa>>..ssssssssssssaa5555==rr5599rrqq====qqqqqqqqqqqq9977==5588886688888866666666==ss>>..>>aaddaaaa;;oo....;;",
";;--ccccddssssaassaadd>>..ssssssssssss>>7777==88==99==%%99qqqqqqqqqqqq007755&&&&qqqqqqqqqq8888665555&&ss>>..>>ddssddss;;oo....;;",
";;--ccccddssssaassaadd>>..ssssssssssss>>7777==88==99==%%99qqqqqqqqqqqq007755&&&&qqqqqqqqqq8888665555&&ss>>..>>ddssddss;;oo....;;",
";;--ccccaassaaddaassaa>>..ssssssssssss887777==55==999977qqqqqqqqqqqqqq9955&&&&qqqqrrqqqqqq88qq88====$$ss>>..>>ssssaass;;oo....;;",
";;--ccccaassaaddaassaa>>..ssssssssssss887777==55==999977qqqqqqqqqqqqqq9955&&&&qqqqrrqqqqqq88qq88====$$ss>>..>>ssssaass;;oo....;;",
";;--ccddaaaaddaaaaaaaa>>..ssssssssssaa887777&&==669999qqqqqqqqqqqqqq000055&&qqqqrrqqqqrr8877qq88==&&$$ss>>..>>aassssdd;;oo....;;",
";;--ccddaaaaddaaaaaaaa>>..ssssssssssaa887777&&==669999qqqqqqqqqqqqqq000055&&qqqqrrqqqqrr8877qq88==&&$$ss>>..>>aassssdd;;oo....;;",
";;--dd>>>>>>aaaassaadd>>..ssssssssss>>887777====9999wwwweeeeqqqqqqqq8855&&&&qqrrqqqqrrqq8877qq66==&&$$ss>>..>>ddssaadd;;oo....;;",
";;--dd>>>>>>aaaassaadd>>..ssssssssss>>887777====9999wwwweeeeqqqqqqqq8855&&&&qqrrqqqqrrqq8877qq66==&&$$ss>>..>>ddssaadd;;oo....;;",
";;--;;;;;;-->>ddddaaaa>>..ssssssssss99887777==6699wwwweeeewwwwww==8866&&&&8888qqqqqqrr887799qq66==&&$$ss>>..>>aaddddaa;;oo....;;",
";;--;;;;;;-->>ddddaaaa>>..ssssssssss99887777==6699wwwweeeewwwwww==8866&&&&8888qqqqqqrr887799qq66==&&$$ss>>..>>aaddddaa;;oo....;;",
";;--oooo....--;;;;;;;;>>..ssssssssaa999977====9999wwwweewwwwww==886666&&sscccc88rrrrqq9977qqqq55&&$$;;ss>>..>>ddaassaa;;oo....;;",
";;--oooo....--;;;;;;;;>>..ssssssssaa999977====9999wwwweewwwwww==886666&&cccccc88rrrrqq9977qqqq55&&$$;;ss>>..>>ddaassaa;;oo....;;",
";;;;;;;;oo....oooooooo>>..ssssssss>>99777777==999977==$$$$wwww==66&&&&xxcccccccc44rr==8877qqqq==&&$$>>ss>>..>>aassaadd;;oo....;;",
";;;;;;;;oo....oooooooo>>..ssssssss>>99777777==999977==$$$$wwww==66&&ssxxcccccccc44rr==8877qqqq==&&$$>>ss>>..>>aassaadd;;oo....;;",
";;;;;;;;;;oo..........>>..ssssssaa88887777==6699qqwwww$$$$====66&&sccxccccxxcccccc44==7788qqqq==&&$$,,ss>>..>>ssaaaa>>;;oo....;;",
";;;;;;;;;;oo..........>>..ssssssaa88887777==6699qqwwww$$$$====66&&sccxcccccccccccc44==7788qqqq==&&$$,,ss>>..>>ssaaaa>>;;oo....;;",
";;;;;;;;;;;;ooooXXXXXX>>..ssssss>>00000077==9999wwwwee55006666&&##sccccccccccccczz33111177qqqq==$$&&ssss>>..;;;;;;;;;;;;oo....;;",
";;;;;;;;;;;;ooooXXXXXX>>..ssssss>>00000077==9999wwwwee55006666&&##cccccccccccccczz33111177qqqq==$$&&ssss>>..;;;;;;;;;;;;oo....;;",
";;;;----;;;;;;;;;;;;;;>>..ssssss88880000====99qqwwwwee77006666##22ccccccccccccccss3311<<<<7766==$$&&ssss>>..oooooooooooooo....;;",
";;;;----;;;;;;;;;;;;;;>>..ssssss88880000====99qqwwwwee77006666##22ccccccccccccccss3311<<<<7766==$$&&ssss>>..oooooooooooooo....;;",
";;sszzzzzzzzffss>>::;;>>..ssssssqq007777==5599qqwwwwww0066&&881111cccccccccccccs,,11<<<<##@@==$$&&&&ssss>>..................oo;;",
";;sszzzzzzzzffss>>::;;>>..ssssssqq007777==5599qqwwwwww0066&&88111144ssccccccccss,,11<<<<##@@==$$&&&&ssss>>..................oo;;",
";;zzcccccccccccccccccc>>..ssssssqq770077997799qqwwwwww66&&yywwee55%%44sccccccc,,11<<<<##@@++==$$&&&&ssss>>................oooo;;",
";;zzcccccccccccccccccc>>..ssssssqq770077997799qqwwwwww66&&yywwee55%%44sszcczss,,11<<<<##@@++==$$&&&&ssss>>................oooo;;",
";;zzccccxxxxxxxxxxxxxx>>..sssstteeqq77==qq8888666666wwyyee99yyeeee55%%4444331111<<<<##@@++++OO&&&&==ssss>>..XXXXXXXXXXXXoooo;;;;",
";;zzccccxxxxxxxxxxxxxx>>..sssstteeqq77==qq8888666666wwyyee99yyeeee55%%4444331111<<<<##@@++++OO&&&&==ssss>>..XXXXXXXXXXXXoooo;;;;",
";;zzccxxssaaaaaaaadddd>>..ssssttrreeqqqqqq8888888888yyyyyy9999yywwqqqq%%%%1111<<<<##@@++++OO&&&&====ssss>>..;;----------------..",
";;zzccxxssaaaaaaaadddd>>..ssssttrreeqqqqqq8888888888yyyyyy9999yywwqqqq%%%%1111<<<<##@@++++OO&&&&====ssss>>..;;----------------..",
";;zzxxssaaaassddddddss>>..ssssssttrrrrtttt888888eeeeyyyyeeyywwyyyyqq8888%%%%<<<<##@@++++OO&&&&&&==66ssss>>..aaaadddddddddddd,,..",
";;zzxxssaaaassddddddss>>..ssssssttrrrrtttt888888eeeeyyyyeeyywwyyyyqq8888%%%%<<<<##@@++++OO&&&&&&==66ssss>>..aaaadddddddddddd,,..",
";;zzxxaassddaaaaaassaa>>..ssssssssttttssttttqqqqwwyyyywwwweeyyyyyyee8888==%%<<##@@++++OO&&&&&&666688ssss>>..aaffcccccccccczz;;..",
";;zzxxaassddaaaaaassaa>>..ssssssssttttssttttqqqqwwyyyywwwweeyyyyyyee8888==%%<<##@@++++OO&&&&&&666688ssss>>..aaffcccccccccczz;;..",
";;zzxxddaaddddaaddssaa>>..sssssssssssssssssseeeeqqyyww00008888eeeeee8866**%%%%@@++OO&&&&&&&&==6688qqssss>>..>>ddddaaaaddaaaa;;..",
";;zzxxddaaddddaaddssaa>>..sssssssssssssssssseeeeqqyyww00008888eeeeee8866**%%%%@@++OO&&&&&&&&==6688qqssss>>..>>ddddaaaaddaaaa;;..",
";;zzxxddddssaassaaaaaa>>..ssssssssssssssssssuueeeewwqqqq00005555555566======**++OO&&&&====667788qqeessss>>..>>ddaaddaaaaddaa;;..",
";;zzxxddddssaassaaaaaa>>..ssssssssssssssssssuueeeewwqqqq00005555555566======**++OO&&&&====667788qqeessss>>..>>ddaaddaaaaddaa;;..",
";;zzxxaassaaddaaddaadd>>..ssssssssssssssssssssuueeeeeeeeeewwqqqq00666666666666OO&&====667788qqeeeeiissss>>..>>aaaaddaassaadd;;..",
";;zzxxaassaaddaaddaadd>>..ssssssssssssssssssssuueeeeeeeeeewwqqqq00666666666666OO&&====667788qqeeeeiissss>>..>>aaaaddaassaadd;;..",
";;zzxxddaassaaaaaassaa>>..ssssssssssssssssssssssssuutttttttttttttteeee00888888==66667788qqeeeeiiiissssss>>..>>aassaaddaaddaa;;..",
";;zzxxddaassaaaaaassaa>>..ssssssssssssssssssssssssuutttttttttttttteeee00888888==66667788qqeeeeiiiissssss>>..>>aassaaddaaddaa;;..",
";;zzxxaaddaassaaaaaaaa>>..ssssssssssssssssssssssssssssssuuuuuuuuuuuuuuuuuurrrrrrrrrreeeeiiiissssssssssss>>..>>ddaassaassss::;;..",
";;zzxxaaddaassaaaaaaaa>>..ssssssssssssssssssssssssssssssuuuuuuuuuuuuuuuuuurrrrrrrrrreeeeiiiissssssssssss>>..>>ddaassaassss::;;..",
";;zzxxaaaassaaaaaaaaaa>>..ssssssssssssssssssssssssssssssssiiiiiissssssssssyyyyyyyyyyyyyyssssssssssssssss>>..::::::::::::::;;;;..",
";;zzxxaaaassaaaaaaaaaa>>..ssssssssssssssssssssssssssssssssiiiiiissssssssssyyyyyyyyyyyyyyssssssssssssssss>>..::::::::::::::;;;;..",
";;zzxxddaaaaaaaaaaddaa>>..ssssssssssssssssssssssssssssssssssssssssssssssssssssssssssssssssssssssssssssss>>..;;;;;;;;;;;;;;;;oo..",
";;zzxxddaaaaaaaaaaddaa>>..ssssssssssssssssssssssssssssssssssssssssssssssssssssssssssssssssssssssssssssss>>..;;;;;;;;;;;;;;;;oo..",
";;zzxxaaaaaaddaassaadd>>..;;;;;;;;;;::::::::::::::>>>>>>>>>>>>>>>>>>>>>>>>>>>>>>>>>>>>>>>>>>>>>>>>>>>>>>>>......................",
";;zzxxaaaaaaddaassaadd>>..;;;;;;;;;;::::::::::::::>>>>>>>>>>>>>>>>>>>>>>>>>>>>>>>>>>>>>>>>>>>>>>>>>>>>>>>>......................",
";;ssff::::::::::::::::>>........................................................................................................",
";;ssff::::::::::::::::>>........................................................................................................",
";;;;>>--------ooooooooooooooooXX..XXXX................................................XXXXXXXXoooooooooooo..oooooooooooooooooo;;",
";;;;>>--------ooooooooooooooooXX..XXXX................................................XXXXXXXXoooooooooooo..oooooooooooooooooo;;",
";;................................;;;;--ooXXXXXXXXXXXXXXXXXXXXXXXXXXXXXXXXXXXXXXXXXXoo;;;;;;;;;;;;;;;;;;;;;;;;;;;;;;;;;;;;;;;;;;",
";;................................;;;;--ooXXXXXXXXXXXXXXXXXXXXXXXXXXXXXXXXXXXXXXXXXXoo;;;;;;;;;;;;;;;;;;;;;;;;;;;;;;;;;;;;;;;;;;",
"oooooooooooooooooooooooooooooooooooooooooooooooooooooooooooooooooooooooooooooooooooooooooooooooooooooooooooooooooooooooooooooooo",
"oooooooooooooooooooooooooooooooooooooooooooooooooooooooooooooooooooooooooooooooooooooooooooooooooooooooooooooooooooooooooooooooo"
