/* XPM */
static char *_9520_fb5f7a1cd72530508ffbd4110c9234b33a21ca50459e7d061730ed5f3d8e889e[] = {
/* columns rows colors chars-per-pixel */
"127 126 39 1 ",
"  c black",
". c #202020",
"X c #2C2C2C",
"o c gray22",
"O c #700000",
"+ c #7C0000",
"@ c #484848",
"# c gray33",
"$ c #646464",
"% c gray44",
"& c #7C7C7C",
"* c #880000",
"= c #980000",
"- c #A40000",
"; c #A80000",
": c #B00000",
"> c #BC0000",
", c #C80000",
"< c #D40000",
"1 c #E00000",
"2 c #EC0000",
"3 c #FC0000",
"4 c #FC2020",
"5 c #9C4C00",
"6 c #CC6000",
"7 c #FC5C5C",
"8 c #FC8820",
"9 c #FCF400",
"0 c #FCA85C",
"q c gray55",
"w c #989898",
"e c gray66",
"r c #B4B4B4",
"t c #C0C0C0",
"y c #D0D0D0",
"u c gainsboro",
"i c #FCFCD8",
"p c #ECECEC",
"a c gray99",
/* pixels */
"XXXXXXXXXXXXXXXXXXXXXXXXXXXXXXXXXXXXXXXXXXXXXXXXXXXXXXXXXXXXXXXXXXXXXXXXXXXXXXXXXXXXXXXXXXXXXXXXXXXXXXXXXXXXXXXXXXXXXXXXXXXXXXX",
"XXXXXXXXXXXXXXXXXXXXXXXXXXXXXXXXXXXXXXXXXXXXXXXXXXXXXXXXXXXXXXXXXXXXXXXXXXXXXXXXXXXXXXXXXXXXXXXXXXXXXXXXXXXXXXXXXXXXXXXXXXXXXXX",
"####################@@uuuuuuuuuuuuuuuuuuuuuuuuuuuuuuuu..ooqqeettyyyyyyyyyyyytttteeqq##..@@@@@@@@@@@@@@@@@@@@###################",
"####################@@uuuuuuuuuuuuuuuuuuuuuuuuuuuuuuuu..ooqqeettyyyyyyyyyyyytttteeqq##..@@@@@@@@@@@@@@@@@@@@###################",
"####################@@uuyyyyyyttyyyyyyyyyyyyttyyyyyyqq..ooqqttrrqqeeqqqqqqqqqqqqee##oo..oo%%qqqqqqqqqqqq&&%%$$@@@@@@@@@@@@@@@@@",
"####################@@uuyyyyyyttyyyyyyyyyyyyttyyyyyyqq..ooqqttrrqqeeqqqqqqqqqqqqee##oo..oo%%qqqqqqqqqqqq&&%%$$@@@@@@@@@@@@@@@@@",
"qqqqqqqqqqqqqq99..##@@uuyyttrryyrryyttrryyttttrryyqq$$..ooeeuueeqqeeqqeeqqeeqqeeqq##oo..ooqquuuuuuuuuuuuttrreeqqqq99qqqqqqqqqqq",
"qqqqqqqqqqqqqq99..##@@uuyyttrryyrryyttrryyttttrryyqq$$..ooeeuueeqqeeqqeeqqeeqqeeqq##oo..ooqquuuuuuuuuuuuttrreeqqqq99qqqqqqqqqqq",
"yyuuyyyyrree00ii..##@@uuyyeeeeeeeeqqeeeeeeeewweeee&&##..ooqqttqqqqqqeeeeeeeeqqqq%%##oo..ooqquuuuttttttyyuuuuuuuuuuii00yyyyyyyyy",
"yyuuyyyyrree00ii..##@@uuyyeeeeeeeeqqeeeeeeeewweeee&&##..ooqqttqqqqqqeeeeeeeeqqqq%%##oo..ooqquuuuttttttyyuuuuuuuuuuii00yyyyyyyyy",
"eeeeeeee0099iiii88999999    99999999999999999999999999999999999999999999999999999999999999999999999999    999999iiii999900eeqqw",
"eeeeeeee0099iiii88999999    99999999999999999999999999999999999999999999999999999999999999999999999999    999999iiii999900eeqqw",
"rrwweeww6666669955555555ee      55555555555555555555555555555555555555555555555555555555555555555555    ee  55555500666666##qqe",
"rrwweeww6666669955555555ee      55555555555555555555555555555555555555555555555555555555555555555555    ee  55555500666666##qqe",
"rrrr&&rrqq$$##88..####....3333::    XXXXXXXXXXXXXXXXXXXXXXXXXXXXXXXXXXXXXXXXXXXXXXXXXXXXXXXXXXXX    **::    ######66########eew",
"rrrr&&rrqq$$##88..####....3333::    XXXXXXXXXXXXXXXXXXXXXXXXXXXXXXXXXXXXXXXXXXXXXXXXXXXXXXXXXXXX    **::    ######66########eew",
"wweeeewwww%%@@@@..XX@@$$$$33331111::==++++  oooo@@@@@@##########################@@@@@@ooooooOO::::::>>::####$$&&&&$$##$$&&&&&&q",
"wweeeewwww%%@@@@..XX@@$$$$33331111::==++++  oooo@@@@@@##########################@@@@@@ooooooOO::::::>>::####$$&&&&$$##$$&&&&&&q",
"qqqqqqqq%%##@@@@..XX@@eepp33331111<<,,>>::;;;;::>><<33aa@@aa33<<>>;;rr  ww;;**==::,,<<224444333311<<>>::##$$&&qqqqeeqq&&eeqqeeq",
"qqqqqqqq%%##@@@@..XX@@eepp33331111<<,,>>::;;;;::>><<33aa@@aa33<<>>;;rr  ww;;**==::,,<<224444333311<<>>::##$$&&qqqqeeqq&&eeqqeeq",
"%%%%%%%%##@@oooo..XX@@qquu33331111<<,,>>::;;;;::>><<33aa@@aa33<<>>;;rr  ww;;**==::,,<<224444333311<<>>::##$$&&%%%%$$$$$$$$$$$$$",
"%%%%%%%%##@@oooo..XX@@qquu33331111<<,,>>::;;;;::>><<33aa@@aa33<<>>;;rr  ww;;**==::,,<<224444333311<<>>::##$$&&%%%%$$$$$$$$$$$$$",
"####@@@@oo........XX@@%%uu33331111<<,,>>::;;;;::>><<33aa@@aa33<<>>;;rr  ww;;**==::,,<<224444333311<<>>::##########@@@@@@@@@@@@@",
"####@@@@oo........XX@@%%uu33331111<<,,>>::;;;;::>><<33aa@@aa33<<>>;;rr  ww;;**==::,,<<224444333311<<>>::##########@@@@@@@@@@@@@",
"..........XXXXXXXXoo##@@uu33331111<<,,>>::;;;;::>><<33aa@@aa33<<>>;;rr  ww;;**==::,,<<224444333311<<>>::ooooooooooooooXXXXXXXXX",
"..........XXXXXXXXoo##@@uu33331111<<,,>>::;;;;::>><<33aa@@aa33<<>>;;rr  ww;;**==::,,<<224444333311<<>>::ooooooooooooooXXXXXXXXX",
"XXXXXXXXXXXXXXXXXXoo##@@ee33331111<<,,>>::;;;;::>><<33aa@@aa33<<>>;;rr  ww;;**==::,,<<224444333311<<>>::ooooooXXXX.............",
"XXXXXXXXXXXXXXXXXXoo##@@ee33331111<<,,>>::;;;;::>><<33aa@@aa33<<>>;;rr  ww;;**==::,,<<224444333311<<>>::ooooooXXXX.............",
"oooooooooooooooooooo##@@qq33331111<<,,>>::;;;;::>><<33aa@@aa33<<>>;;rr  ww;;**==::,,<<224444333311<<>>::XXXXXXooooooooooooooooo",
"oooooooooooooooooooo##@@qq33331111<<,,>>::;;;;::>><<33aa@@aa33<<>>;;rr  ww;;**==::,,<<224444333311<<>>::XXXXXXooooooooooooooooo",
"##@@oooooooooooooooo##@@%%33331111<<,,>>::;;;;::>><<33aa@@aa33<<>>;;rr  ww;;**==::,,<<224444333311<<>>::....@@@@@@@@@@@@@@@@@@@",
"##@@oooooooooooooooo##@@%%33331111<<,,>>::;;;;::>><<33aa@@aa33<<>>;;rr  ww;;**==::,,<<224444333311<<>>::....@@@@@@@@@@@@@@@@@@@",
"wwwwwwwwwwwwwwwwwwXX..##@@33331111<<,,>>::;;;;::>><<33aa@@aa33<<>>;;rr  ww;;**==::,,<<224444333311<<>>::##$$&&wwwwwwwwwwwwwwwww",
"wwwwwwwwwwwwwwwwwwXX..##@@33331111<<,,>>::;;;;::>><<33aa@@aa33<<>>;;rr  ww;;**==::,,<<224444333311<<>>::##$$&&wwwwwwwwwwwwwwwww",
"yyyyyyyyyyyyrrrr%%oo..##@@33331111<<,,>>::;;;;::>><<77aa@@aa33<<>>;;rr  ww;;**==::,,<<224444333311<<>>::##$$&&uuuuuuuuuuuuuuuuu",
"yyyyyyyyyyyyrrrr%%oo..##@@33331111<<,,>>::;;;;::>><<77aa@@aa33<<>>;;rr  ww;;**==::,,<<224444333311<<>>::##$$&&uuuuuuuuuuuuuuuuu",
"eewwqqeeqqeeee%%%%oo..##@@33331111<<,,>>::;;;;::>>77aaaa@@aappppuuyyrr  wwww$$==::,,<<224444333311<<>>::##$$&&rrrrrrrrrrrrrrrrr",
"eewwqqeeqqeeee%%%%oo..##@@33331111<<,,>>::;;;;::>>77aaaa@@aappppuuyyrr  wwww$$==::,,<<224444333311<<>>::##$$&&rrrrrrrrrrrrrrrrr",
"eeqqeeqqeeqqqq%%%%oo..@@##33331111<<,,>>::;;;;::%%uuaa##@@aappppuuyyrree    &&%%@@,,<<224444333311<<>>::##$$&&wweewweeqqwwqqwww",
"eeqqeeqqeeqqqq%%%%oo..@@##33331111<<,,>>::;;;;::%%uuaa##@@aappppuuyyrree    &&%%@@,,<<224444333311<<>>::##$$&&wweewweeqqwwqqwww",
"eewwqqeeqqeeee%%##oo..@@##33331111<<,,>>::;;;;%%ttXX@@aaww@@..........  wwww    ww%%<<224444333311<<>>::##$$&&wwqqwwqqww&&&&qqq",
"eewwqqeeqqeeee%%##oo..@@##33331111<<,,>>::;;;;%%ttXX@@aaww@@..........  wwww    ww%%<<224444333311<<>>::##$$&&wwqqwwqqww&&&&qqq",
"eeqqeeqqeeqqqq%%##oo..@@##33331111<<,,>>::;;%%ttXX%%aa##@@ppppppuuyyrree    &&%%  ee%%224444333311<<>>::##$$&&wweewweeqqwwqqwww",
"eeqqeeqqeeqqqq%%##oo..@@##33331111<<,,>>::;;%%ttXX%%aa##@@ppppppuuyyrree    &&%%  ee%%224444333311<<>>::##$$&&wweewweeqqwwqqwww",
"qqee&&&&qqqqee%%##oo..oo##33331111<<,,>>::;;rr  %%uu@@aaaappppppuuyyrreeww%%  %%%%  rr224444333311<<>>::##$$&&wwqqwwqqww&&&&qqq",
"qqee&&&&qqqqee%%##oo..oo##33331111<<,,>>::;;rr  %%uu@@aaaappppppuuyyrreeww%%  %%%%  rr224444333311<<>>::##$$&&wwqqwwqqww&&&&qqq",
"qqqq&&&&qqeeqq$$@@oo..ooqq33331111<<,,>>::ee  %%ttXXaaaaaappppppuuyyrreewwww&&  ww%%  yy4444333311<<>>::##$$&&qqeeqqeeqq&&&&qqw",
"qqqq&&&&qqeeqq$$@@oo..ooqq33331111<<,,>>::ee  %%ttXXaaaaaappppppuuyyrreewwww&&  ww%%  yy4444333311<<>>::##$$&&qqeeqqeeqq&&&&qqw",
"qqqqeeeeqqqqqq$$@@oo..oouu33331111<<,,>>$$ee  ttXXuuaaaaaappppppuuyyrreewwww&&%%  ee  yyww44333311<<>>::##$$&&wwqqwwqqqqeeqqeeq",
"qqqqeeeeqqqqqq$$@@oo..oouu33331111<<,,>>$$ee  ttXXuuaaaaaappppppuuyyrreewwww&&%%  ee  yyww44333311<<>>::##$$&&wwqqwwqqqqeeqqeeq",
"wweeqqqqeeqq%%##oooo..oouu33331111<<,,>>qq  rr  ttuuaaaaaappppppuuyyrreewwww&&%%ww  rr  pp44333322<<>>::oooooo######$$$$%%&&qqq",
"wweeqqqqeeqq%%##oooo..oouu33331111<<,,>>qq  rr  ttuuaaaaaappppppuuyyrreewwww&&%%ww  rr  pp44333322<<>>::oooooo######$$$$%%&&qqq",
"$$$$$$$$$$##@@oooooo..oouuaaaaaayyrrwwqqqq  rr  ttuuaaaaaappppppuuyyrreewwww&&%%ww  %%  ppppppuuyyeeqq%%oooooo@@@@@@@@@@@@#####",
"$$$$$$$$$$##@@oooooo..oouuaaaaaayyrrwwqqqq  rr  ttuuaaaaaappppppuuyyrreewwww&&%%ww  %%  ppppppuuyyeeqq%%oooooo@@@@@@@@@@@@#####",
"##@@@@oooooo........oooouu&&&&oooooo      ee  ttttuuaaaaaappppppuuyyrreewwww&&%%wwee  yy@@$$####XX      ..................oooo@",
"##@@@@oooooo........oooouu&&&&oooooo      ee  ttttuuaaaaaappppppuuyyrreewwww&&%%wwee  yy@@$$####XX      ..................oooo@",
"............@@@@@@@@@@@@uuaaaaaayyrrwwqqqqee  ttttuuaaaaaappppppuuyyrreewwww&&%%wwee  yyppppppuuyyeeqq%%....ooooooooXXXXXX.....",
"............@@@@@@@@@@@@uuaaaaaayyrrwwqqqqee  ttttuuaaaaaappppppuuyyrreewwww&&%%wwee  yyppppppuuyyeeqq%%....ooooooooXXXXXX.....",
"@@$$$$%%qqwwqqqqqqqq@@..uu33331111<<,,>>qqee  ttttuuaaaaaappppppuuyyrreewwww&&%%wwee  yypp44333311,,>>::@@@@##############ooooo",
"@@$$$$%%qqwwqqqqqqqq@@..uu33331111<<,,>>qqee  ttttuuaaaaaappppppuuyyrreewwww&&%%wwee  yypp44333311,,>>::@@@@##############ooooo",
"$$qqrruuuuuuyyyyyyee%%..uu33331111<<,,>>qqee  ttttuuaaaaaappppppuuyyrreewwww&&%%wwee  yypp44333311,,>>::##$$&&qq$$##@@@@@@@@@@#",
"$$qqrruuuuuuyyyyyyee%%..uu33331111<<,,>>qqee  ttttuuaaaaaappppppuuyyrreewwww&&%%wwee  yypp44333311,,>>::##$$&&qq$$##@@@@@@@@@@#",
"$$rryyyyttrreeeewwee@@..pp33331111<<,,>>qqee  ttttuuaaaaaappppppuuyyrreewwww&&%%wwee  yypp44333311,,>>::##$$&&uuuuuuuuuuuuwwoo#",
"$$rryyyyttrreeeewwee@@..pp33331111<<,,>>qqee  ttttuuaaaaaappppppuuyyrreewwww&&%%wwee  yypp44333311,,>>::##$$&&uuuuuuuuuuuuwwoo#",
"$$uurreeeeqqeewweeqq%%..ppaaaaaayyrrwwqqqqee  ttttuuaaaaaappppppuuyyrreewwww&&%%wwee  yyppppppuuyyeeqq%%##$$&&eeqqqqeeqqqq&&oo#",
"$$uurreeeeqqeewweeqq%%..ppaaaaaayyrrwwqqqqee  ttttuuaaaaaappppppuuyyrreewwww&&%%wwee  yyppppppuuyyeeqq%%##$$&&eeqqqqeeqqqq&&oo#",
"$$uurrwwqqeeqqeeqqee%%..pp&&&&oooooo      ee  ttttuuaaaaaappppppuuyyrreewwww&&%%wwee  yy@@$$####XX      ##$$&&qqeeeeqqeeqq$$oo@",
"$$uurrwwqqeeqqeeqqee%%..pp&&&&oooooo      ee  ttttuuaaaaaappppppuuyyrreewwww&&%%wwee  yy@@$$####XX      ##$$&&qqeeeeqqeeqq$$oo@",
"$$uueewweeqqeeee&&ee##..uuaaaaaayyrrqqqqqq  %%  ttuuaaaaaappppppuuyyrreewwww&&%%ww  rr  ppppppuuyyeeqq%%##$$&&qqqqeeqqqqee$$oo@",
"$$uueewweeqqeeee&&ee##..uuaaaaaayyrrqqqqqq  %%  ttuuaaaaaappppppuuyyrreewwww&&%%ww  rr  ppppppuuyyeeqq%%##$$&&qqqqeeqqqqee$$oo@",
"$$uurreeqqqqeewweeqq##..uu33331111<<,,>>qq  rr  ttuuaaaaaappppppuuyyrreewwww&&%%ww  rr  pp44333311<<>>::##$$&&qqeeqqeeqqee##oo@",
"$$uurreeqqqqeewweeqq##..uu33331111<<,,>>qq  rr  ttuuaaaaaappppppuuyyrreewwww&&%%ww  rr  pp44333311<<>>::##$$&&qqeeqqeeqqee##oo@",
"$$uurrqqeeeeqqeeqqee##..tt33331111<<,,>>::ee  ttXXuuaaaaaappppppuuyyrreewwww&&%%  ee  yyqq44333311<<>>::##$$&&qqqqeeqqqqee##ooo",
"$$uurrqqeeeeqqeeqqee##..tt33331111<<,,>>::ee  ttXXuuaaaaaappppppuuyyrreewwww&&%%  ee  yyqq44333311<<>>::##$$&&qqqqeeqqqqee##ooo",
"$$uurreeeeqqeewweeqq##..rr33331111<<,,>>::ee  ttttXXaaaaaappppppuuyyrreewwww&&  ww%%  pp4444333311<<>>::oooo##############ooooo",
"$$uurreeeeqqeewweeqq##..rr33331111<<,,>>::ee  ttttXXaaaaaappppppuuyyrreewwww&&  ww%%  pp4444333311<<>>::oooo##############ooooo",
"$$uurrqqeeeeqqee&&ee##..ww33331111<<,,>>::;;rr  ttuu@@aaaappppppuuyyrreeww@@  %%%%  rr%%4444333311<<>>::......................o",
"$$uurrqqeeeeqqee&&ee##..ww33331111<<,,>>::;;rr  ttuu@@aaaappppppuuyyrreeww@@  %%%%  rr%%4444333311<<>>::......................o",
"$$uurrqqqqwweeqqeeqq##..&&33331111<<,,>>::;;77ttXXuuaa##@@ppppppuuyyrree    &&@@  eeqq224444333311<<>>::....ooooooooooooooooooo",
"$$uurrqqqqwweeqqeeqq##..&&33331111<<,,>>::;;77ttXXuuaa##@@apppppuuyyrree    &&@@  eeqq224444333311<<>>::....ooooooooooooooooooo",
"$$uurreeeeqqwweewweeoo..##33331111<<,,>>::;;;;77ttXX@@aaaa@@ooooXX....  wwww    wwqq<<224444333311<<>>::oo@@##&&&&&&&&&&&&&&oo#",
"$$uurreeeeqqwweewweeoo..##33331111<<,,>>::;;;;77ttXX@@aaaa@@ooooXX....  wwww    wwqq<<224444333311<<>>::oo@@##&&&&&&&&&&&&&&oo#",
"$$uurrqqqqeeqqeeqq%%oo..@@33331111<<,,>>::;;;;::77uuee##@@aappppuuyyrr%%    &&%%%%,,<<224444333311<<>>::##$$&&tttttttttttt&&oo#",
"$$uurrqqqqeeqqeeqq%%oo..@@33331111<<,,>>::;;;;::77uuee##@@aappppuuyyrr%%    &&%%%%,,<<224444333311<<>>::##$$&&tttttttttttt&&oo#",
"$$yyrreeeewweeqqee##..XX@@33331111<<,,>>::;;;;::>><<wwaa@@aappppuuyyrr  wwww$$==::,,<<224444333311<<>>::##$$&&ppuuuuyyyyww$$XX@",
"$$yyrreeeewweeqqee##..XX@@33331111<<,,>>::;;;;::>><<wwaa@@aappppuuyyrr  wwww$$==::,,<<224444333311<<>>::##$$&&ppuuuuyyyyww$$XX@",
"$$yyrrwweeqqeeeeqq##..XX@@33331111<<,,>>::;;;;::>><<33aa@@aa33<<>>;;rr  ww;;**==::,,<<224444333311<<>>::##$$&&ttrrttttrr&&##XX@",
"$$yyrrwweeqqeeeeqq##..XX@@33331111<<,,>>::;;;;::>><<33aa@@aa33<<>>;;rr  ww;;**==::,,<<224444333311<<>>::##$$&&ttrrttttrr&&##XX@",
"$$ttrreeqqeeqqqqqq##..XX@@33331111<<,,>>::;;;;::>><<33aa@@aa33<<>>;;rr  ww;;**==::,,<<224444333311<<>>::##$$&&eeqqeeqqee%%##XXo",
"$$ttrreeqqeeqqqqqq##..XX@@33331111<<,,>>::;;;;::>><<33aa@@aa33<<>>;;rr  ww;;**==::,,<<224444333311<<>>::##$$&&eeqqeeqqee%%##XXo",
"@@ttqqqqeeqq%%%%%%oo..oo@@33331111<<,,>>::;;;;::>><<33aa@@aa33<<>>;;rr  ww;;**==::,,<<224444333311<<>>::##$$&&qqeeeeeeqq%%##XXo",
"@@ttqqqqeeqq%%%%%%oo..oo@@33331111<<,,>>::;;;;::>><<33aa@@aa33<<>>;;rr  ww;;**==::,,<<224444333311<<>>::##$$&&qqeeeeeeqq%%##XXo",
"@@rreeeeeeqq######..XXoo@@33331111<<,,>>::;;;;::>><<33aa@@aa33<<>>;;rr  ww;;**==::,,<<224444333311<<>>::##$$&&eeqqeeqqee%%##XXo",
"@@rreeeeeeqq######..XXoo@@33331111<<,,>>::;;;;::>><<33aa@@aa33<<>>;;rr  ww;;**==::,,<<224444333311<<>>::##$$&&eeqqeeqqee%%##XXo",
"@@&&&&&&########oo..XXoo@@33331111<<,,>>::;;;;::>><<33aa@@aa33<<>>;;rr  ww;;**==::,,<<224444333311<<>>::##$$&&qq&&wwqqww%%##..o",
"@@&&&&&&########oo..XXoo@@33331111<<,,>>::;;;;::>><<33aa@@aa33<<>>;;rr  ww;;**==::,,<<224444333311<<>>::##$$&&qq&&wwqqww%%##..o",
"@@oo......oooooooo..oo@@@@33331111<<,,>>::;;;;::>><<33aa@@aa33<<>>;;rr  ww;;**==::,,<<224444333311<<>>::##$$&&qqeeqq&&&&%%##..o",
"@@oo......oooooooo..oo@@@@33331111<<,,>>::;;;;::>><<33aa@@aa33<<>>;;rr  ww;;**==::,,<<224444333311<<>>::##$$&&qqeeqq&&&&%%##..o",
"######@@oo....XX..XXoo@@oo33331111<<,,>>::;;;;::>><<33aa@@aa33<<>>;;rr  ww;;**==::,,<<224444333311<<>>::##$$&&&&qqww&&&&%%##..o",
"######@@oo....XX..XXoo@@oo33331111<<,,>>::;;;;::>><<33aa@@aa33<<>>;;rr  ww;;**==::,,<<224444333311<<>>::##$$&&&&qqww&&&&%%##..o",
"@@@@@@@@@@@@@@XXXXXXoo@@oo33331111<<,,>>::;;;;::>><<33aa@@aa33<<>>;;rr  ww;;**==::,,<<224444333311<<>>::##$$&&qqqqqqqqww%%oo..o",
"@@@@@@@@@@@@@@XXXXXXoo@@oo33331111<<,,>>::;;;;::>><<33aa@@aa33<<>>;;rr  ww;;**==::,,<<224444333311<<>>::##$$&&qqqqqqqqww%%oo..o",
"@@&&eeeeeeeewwqq$$@@@@##oo33331111<<,,>>::;;;;::>><<33aa@@aa33<<>>;;rr  ww;;**==::,,<<224444333311<<>>::##$$&&&&&&&&&&&&$$oo..o",
"@@&&eeeeeeeewwqq$$@@@@##oo33331111<<,,>>::;;;;::>><<33aa@@aa33<<>>;;rr  ww;;**==::,,<<224444333311<<>>::##$$&&&&&&&&&&&&$$oo..o",
"@@eettuuuuuuuuuutteeeeqq%%33331111<<,,>>::;;;;::>><<33aa@@aa33<<>>;;rr  ww;;**==::,,<<224444333311<<>>::oooooooooooooooooo..XXo",
"@@eettuuuuuuuuuutteeeeqq%%33331111<<,,>>::;;;;::>><<33aa@@aa33<<>>;;rr  ww;;**==::,,<<224444333311<<>>::oooooooooooooooooo..XXo",
"@@eeuueeeeqqttyyuuuuuuttee33331111<<,,>>::;;;;::>><<33aa@@aa33<<>>;;rr  ww;;**==::,,<<224444333311<<>>::..................XXoo@",
"@@eeuueeeeqqttyyuuuuuuttee33331111<<,,>>::;;;;::>><<33aa@@aa33<<>>;;rr  ww;;**==::,,<<224444333311<<>>::..................XXoo@",
"@@eeuueeeeeerrrrqqeettuuuu33331111<<,,>>::;;;;::>><<33aa@@aa33<<>>;;rr  ww;;**==::,,<<224444333311<<>>::....XXXXXXXXXXXXoooo@@@",
"@@eeuueeeeeerrrrqqeettuuuu33331111<<,,>>::;;;;::>><<33aa@@aa33<<>>;;rr  ww;;**==::,,<<224444333311<<>>::....XXXXXXXXXXXXoooo@@@",
"@@eeuueeqqee&&&&eewwqq&&ee33331111<<,,>>::;;;;::>><<33aa@@aa33<<>>;;rr  ww;;**==::,,<<224444333311<<>>::....oooooooooooo@@@@@@#",
"@@eeuueeqqee&&&&eewwqq&&ee33331111<<,,>>::;;;;::>><<33aa@@aa33<<>>;;rr  ww;;**==::,,<<224444333311<<>>::....oooooooooooo@@@@@@#",
"@@eeyyeeeeeewweeqqwwqqwweeqq##############@@@@oooo====ee  ee========$$  $$        ++--<<4444333311<<>>....@@@@@@@@@@@@@@#######",
"@@eeyyeeeeeewweeqqwwqqwweeqq##############@@@@oooo====ee  ee========$$  $$        ++--<<4444333311<<>>....@@@@@@@@@@@@@@#######",
"@@eetteeqqee&&&&wweeqqeeeewwqq&&&&&&&&&&&&&&%%$$$$################..oo@@##############@@oooooooooooo@@@@##&&uuuuyyttrrww&&@@@@#",
"@@eetteeqqee&&&&wweeqqeeeewwqq&&&&&&&&&&&&&&%%$$$$################..oo@@##############@@oooooooooooo@@@@##&&uuuuyyttrrww&&@@@@#",
"@@eeqq$$$$$$$$$$$$$$$$$$$$$$$$$$$$$$$$$$$$$$$$$$$$$$$$$$$$$$$$####oo..oo@@&&&&&&&&%%%%$$$$$$##$$$$&&&&&&qqeeqqeewweeqqeeuuww..#",
"@@eeqq$$$$$$$$$$$$$$$$$$$$$$$$$$$$$$$$$$$$$$$$$$$$$$$$$$$$$$$$####oo..oo@@&&&&&&&&%%%%$$$$$$##$$$$&&&&&&qqeeqqeewweeqqeeuuww..#",
"@@qq$$oooooooooooooooooooooooooooooooooooooooooooooooooooooooooooooo..XX@@rreerr&&&&&&&&&&$$@@rreeqqeeqqeeeeeeqqeeqqeeqqee##..#",
"@@qq$$oooooooooooooooooooooooooooooooooooooooooooooooooooooooooooooo..XX@@rreerr&&&&&&&&&&$$@@rreeqqeeqqeeeeeeqqeeqqeeqqee##..#",
"@@oo..................................................................XX@@oo@@oo##$$$$$$$$$$@@uueewwwweeeewwwweewweeeeqqqq##..#",
"@@oo..................................................................XX@@oo@@oo##$$$$$$$$$$@@uueewwwweeeewwwweewweeeeqqqq##..#",
"##@@ooooooXXXXXXXXXXXXXXXXXXXXXXXXXXXXXXXXXXXXXXXXXXXXXXXXXXXXXXXXXXXXXXoo####oooo..........oo##############################..#",
"##@@ooooooXXXXXXXXXXXXXXXXXXXXXXXXXXXXXXXXXXXXXXXXXXXXXXXXXXXXXXXXXXXXXXoo####oooo..........oo##############################..#",
"########@@@@@@@@@@@@@@@@oooooooooooooooooooooooooooooooooooooooooooooooooo########oooooooooooo####............................#",
"########@@@@@@@@@@@@@@@@oooooooooooooooooooooooooooooooooooooooooooooooooo########oooooooooooo####............................#"
};
