/* XPM */
static char *_556199769361[] = {
/* columns rows colors chars-per-pixel */
"128 128 24 1 ",
"  c #706C00",
". c #7C7C7C",
"X c #E46C00",
"o c #848400",
"O c #9C9C00",
"+ c #B4AC00",
"@ c #FC8820",
"# c #CCC400",
"$ c #E4D800",
"% c #FCF400",
"& c #FCF420",
"* c #FCA85C",
"= c #FCF440",
"- c #FCFC54",
"; c #FCF85C",
": c #FCFC7C",
"> c gray55",
", c #989898",
"< c gray66",
"1 c #FCFC9C",
"2 c #FCFCB8",
"3 c #FCFCD8",
"4 c gray99",
"5 c None",
/* pixels */
"5555555555555555555555555555555555555555555555555555555555OO$$$$++XX@@OO55555555555555555555555555555555555555555555555555555555",
"5555555555555555555555555555555555555555555555555555555555OO$$$$++XX@@OO55555555555555555555555555555555555555555555555555555555",
"55555555555555555555555555555555555555555555555555555555555555%%++XX555555555555555555555555555555555555555555555555555555555555",
"55555555555555555555555555555555555555555555555555555555555555%%++XX555555555555555555555555555555555555555555555555555555555555",
"5555555555555555555555555555555555555555555555555555555555555533%%**555555555555555555555555555555555555555555555555555555555555",
"5555555555555555555555555555555555555555555555555555555555555533%%**555555555555555555555555555555555555555555555555555555555555",
"5555555555555555555555555555555555555555555555555555##$$555533%%::##++5555##5555555555555555555555555555555555555555555555555555",
"5555555555555555555555555555555555555555555555555555##$$555533%%::##++5555##5555555555555555555555555555555555555555555555555555",
"55555555555555555555555555555555555555555555555555##$$##5555$$;;11;;$$55&&$$##55555555555555555555555555555555555555555555555555",
"55555555555555555555555555555555555555555555555555##$$##5555$$;;11;;$$55&&$$##55555555555555555555555555555555555555555555555555",
"555555555555555555555555555555555555555555##5555##$$11$$##55$$;;33;;$$##$$11$$##5555##555555555555555555555555555555555555555555",
"555555555555555555555555555555555555555555##5555##$$11$$##55$$;;33;;$$##$$11$$##5555##555555555555555555555555555555555555555555",
"5555555555555555555555555555555555555555##$$##55##$$44$$##**55$$;;$$55##$$33$$##55##$$##5555555555555555555555555555555555555555",
"5555555555555555555555555555555555555555##$$##55##$$44$$##**55$$;;$$55##$$33$$##55##$$##5555555555555555555555555555555555555555",
"55555555555555555555555555555555555555##$$11$$##OO##;;##**OO**OO;;OO**55##;;##OO##$$11$$##55555555555555555555555555555555555555",
"55555555555555555555555555555555555555##$$11$$##OO##;;##**OO**OO;;OO**55##;;##OO##$$11$$##55555555555555555555555555555555555555",
"55555555555555555555555555555555555555##$$44$$##&&OO##OOOO##OO  ++  OO**OO##OO44OO$$44$$##55555555555555555555555555555555555555",
"55555555555555555555555555555555555555##$$44$$##&&OO##OOOO##OO  ++  OO**OO##OO44OO$$44$$##55555555555555555555555555555555555555",
"5555555555555555555555555555555555555555##;;##OO&&OOOOOOOO$$OO##--  ##==  OOOO44OO##;;##5555555555555555555555555555555555555555",
"5555555555555555555555555555555555555555##;;##OO&&OOOOOOOO$$OO##--  ##==  OOOO44OO##;;##5555555555555555555555555555555555555555",
"555555555555555555555555555555555555555555####$$OO11++$$OO##$$oo&&oo&&##  --##OO$$%%##++5555555555555555555555555555555555555555",
"555555555555555555555555555555555555555555####$$OO11++$$OO##$$oo&&oo&&##  --##OO$$%%##++5555555555555555555555555555555555555555",
"555555555555555555555555555555555555555555++$$%%++55##++$$11$$OO++OO&&11$$++$$55++%%$$##5555555555555555555555555555555555555555",
"555555555555555555555555555555555555555555++$$%%++55##++$$11$$OO++OO&&11$$++$$55++%%$$##5555555555555555555555555555555555555555",
"555555555555555555555555555555555555555555##$$11++%%::++%%11$$++&&++$$11%%++11%%++11$$##5555555555555555555555555555555555555555",
"555555555555555555555555555555555555555555##$$11++%%::++%%11$$++&&++$$11%%++11%%++11$$##5555555555555555555555555555555555555555",
"55555555555555555555555555555555555555555555==1111%%22++5511$$++&&++$$1155++==%%1111==555555555555555555555555555555555555555555",
"55555555555555555555555555555555555555555555==1111%%22++5511$$++&&++$$1155++==%%1111==555555555555555555555555555555555555555555",
"5555555555555555555555555555555555555555555555115555::5544111155115511111155::55551155555555555555555555555555555555555555555555",
"5555555555555555555555555555555555555555555555115555::5544111155115511111155::55551155555555555555555555555555555555555555555555",
"55555555555555555555555555555555555555555555555555552255;;33;;551155;;33;;552255555555555555555555555555555555555555555555555555",
"55555555555555555555555555555555555555555555555555552255;;33;;551155;;33;;552255555555555555555555555555555555555555555555555555",
"5555555555555555555555555555555555555555555555555555555555;;5522222255;;55555555555555555555555555555555555555555555555555555555",
"5555555555555555555555555555555555555555555555555555555555;;5522222255;;55555555555555555555555555555555555555555555555555555555",
"55555555555555555555555555555555555555555555555555555555555555;;22;;555555555555555555555555555555555555555555555555555555555555",
"55555555555555555555555555555555555555555555555555555555555555;;22;;555555555555555555555555555555555555555555555555555555555555",
"5555555555555555555555555555555555555555555555555555555555555555;;55555555555555555555555555555555555555555555555555555555555555",
"5555555555555555555555555555555555555555555555555555555555555555;;55555555555555555555555555555555555555555555555555555555555555",
"55555555555555555555555555555555555555555555555555555555555555555555555555555555555555555555555555555555555555555555555555555555",
"55555555555555555555555555555555555555555555555555555555555555555555555555555555555555555555555555555555555555555555555555555555",
"55555555555555555555555555555555555555555555555555555555555555555555555555555555555555555555555555555555555555555555555555555555",
"55555555555555555555555555555555555555555555555555555555555555555555555555555555555555555555555555555555555555555555555555555555",
"55555555555555555555555555555555555555555555555555555555555555555555555555555555555555555555555555555555555555555555555555555555",
"55555555555555555555555555555555555555555555555555555555555555555555555555555555555555555555555555555555555555555555555555555555",
"55555555555555555555555555555555555555555555555555555555555555555555555555555555555555555555555555555555555555555555555555555555",
"55555555555555555555555555555555555555555555555555555555555555555555555555555555555555555555555555555555555555555555555555555555",
"55555555555555555555555555555555555555555555555555555555555555555555555555555555555555555555555555555555555555555555555555555555",
"55555555555555555555555555555555555555555555555555555555555555555555555555555555555555555555555555555555555555555555555555555555",
"55555555555555555555555555555555555555555555555555555555555555555555555555555555555555555555555555555555555555555555555555555555",
"55555555555555555555555555555555555555555555555555555555555555555555555555555555555555555555555555555555555555555555555555555555",
"55555555555555555555555555555555555555555555555555555555555555555555555555555555555555555555555555555555555555555555555555555555",
"55555555555555555555555555555555555555555555555555555555555555555555555555555555555555555555555555555555555555555555555555555555",
"55555555555555555555555555555555555555555555555555555555555555555555555555555555555555555555555555555555555555555555555555555555",
"55555555555555555555555555555555555555555555555555555555555555555555555555555555555555555555555555555555555555555555555555555555",
"55555555555555555555555555555555555555555555555555555555555555555555555555555555555555555555555555555555555555555555555555555555",
"55555555555555555555555555555555555555555555555555555555555555555555555555555555555555555555555555555555555555555555555555555555",
"55555555555555555555555555555555555555555555555555555555555555555555555555555555555555555555555555555555555555555555555555555555",
"55555555555555555555555555555555555555555555555555555555555555555555555555555555555555555555555555555555555555555555555555555555",
"55555555555555555555555555555555555555555555555555555555555555555555555555555555555555555555555555555555555555555555555555555555",
"55555555555555555555555555555555555555555555555555555555555555555555555555555555555555555555555555555555555555555555555555555555",
"55555555555555555555555555555555555555555555555555555555555555555555555555555555555555555555555555555555555555555555555555555555",
"55555555555555555555555555555555555555555555555555555555555555555555555555555555555555555555555555555555555555555555555555555555",
"55555555555555555555555555555555555555555555555555555555555555555555555555555555555555555555555555555555555555555555555555555555",
"55555555555555555555555555555555555555555555555555555555555555555555555555555555555555555555555555555555555555555555555555555555",
"55555555555555555555555555555555555555555555555555555555555555555555555555555555555555555555555555555555555555555555555555555555",
"55555555555555555555555555555555555555555555555555555555555555555555555555555555555555555555555555555555555555555555555555555555",
"55555555555555555555555555555555555555555555555555555555555555555555555555555555555555555555555555555555555555555555555555555555",
"55555555555555555555555555555555555555555555555555555555555555555555555555555555555555555555555555555555555555555555555555555555",
"55555555555555555555555555555555555555555555555555555555555555555555555555555555555555555555555555555555555555555555555555555555",
"55555555555555555555555555555555555555555555555555555555555555555555555555555555555555555555555555555555555555555555555555555555",
"55555555555555555555555555555555555555555555555555555555555555555555555555555555555555555555555555555555555555555555555555555555",
"55555555555555555555555555555555555555555555555555555555555555555555555555555555555555555555555555555555555555555555555555555555",
"55555555555555555555555555555555555555555555555555555555555555555555555555555555555555555555555555555555555555555555555555555555",
"55555555555555555555555555555555555555555555555555555555555555555555555555555555555555555555555555555555555555555555555555555555",
"55555555555555555555555555555555555555555555555555555555555555555555555555555555555555555555555555555555555555555555555555555555",
"55555555555555555555555555555555555555555555555555555555555555555555555555555555555555555555555555555555555555555555555555555555",
"55555555555555555555555555555555555555555555555555555555555555555555555555555555555555555555555555555555555555555555555555555555",
"55555555555555555555555555555555555555555555555555555555555555555555555555555555555555555555555555555555555555555555555555555555",
"55555555555555555555555555555555555555555555555555555555555555555555555555555555555555555555555555555555555555555555555555555555",
"55555555555555555555555555555555555555555555555555555555555555555555555555555555555555555555555555555555555555555555555555555555",
"55555555555555555555555555555555555555555555555555555555555555555555555555555555555555555555555555555555555555555555555555555555",
"55555555555555555555555555555555555555555555555555555555555555555555555555555555555555555555555555555555555555555555555555555555",
"55555555555555555555555555555555555555555555555555555555555555555555555555555555555555555555555555555555555555555555555555555555",
"55555555555555555555555555555555555555555555555555555555555555555555555555555555555555555555555555555555555555555555555555555555",
"55555555555555555555555555555555555555555555555555555555555555555555555555555555555555555555555555555555555555555555555555555555",
"55555555555555555555555555555555555555555555555555555555555555555555555555555555555555555555555555555555555555555555555555555555",
"55555555555555555555555555555555555555555555555555555555555555555555555555555555555555555555555555555555555555555555555555555555",
"55555555555555555555555555555555555555555555555555555555555555555555555555555555555555555555555555555555555555555555555555555555",
"55555555555555555555555555555555555555555555555555555555555555555555555555555555555555555555555555555555555555555555555555555555",
"55555555555555555555555555555555555555555555555555555555555555555555555555555555555555555555555555555555555555555555555555555555",
"55555555555555555555555555555555555555555555555555555555555555555555555555555555555555555555555555555555555555555555555555555555",
"55555555555555555555555555555555555555555555555555555555555555555555555555555555555555555555555555555555555555555555555555555555",
"55555555555555555555555555555555555555555555555555555555555555555555555555555555555555555555555555555555555555555555555555555555",
"55555555555555555555555555555555555555555555555555555555555555555555555555555555555555555555555555555555555555555555555555555555",
"55555555555555555555555555555555555555555555555555555555555555555555555555555555555555555555555555555555555555555555555555555555",
"55555555555555555555555555555555555555555555555555555555555555555555555555555555555555555555555555555555555555555555555555555555",
"55555555555555555555555555555555555555555555555555555555555555555555555555555555555555555555555555555555555555555555555555555555",
"55555555555555555555555555555555555555555555555555555555555555555555555555555555555555555555555555555555555555555555555555555555",
"55555555555555555555555555555555555555555555555555555555555555555555555555555555555555555555555555555555555555555555555555555555",
"55555555555555555555555555555555555555555555555555555555555555555555555555555555555555555555555555555555555555555555555555555555",
"55555555555555555555555555555555555555555555555555555555555555555555555555555555555555555555555555555555555555555555555555555555",
"55555555555555555555555555555555555555555555555555555555555555555555555555555555555555555555555555555555555555555555555555555555",
"55555555555555555555555555555555555555555555555555555555555555555555555555555555555555555555555555555555555555555555555555555555",
"55555555555555555555555555555555555555555555555555555555555555555555555555555555555555555555555555555555555555555555555555555555",
"55555555555555555555555555555555555555555555555555555555555555555555555555555555555555555555555555555555555555555555555555555555",
"55555555555555555555555555555555555555555555555555555555555555555555555555555555555555555555555555555555555555555555555555555555",
"55555555555555555555555555555555555555555555555555555555555555555555555555555555555555555555555555555555555555555555555555555555",
"55555555555555555555555555555555555555555555555555555555555555555555555555555555555555555555555555555555555555555555555555555555",
"55555555555555555555555555555555555555555555555555555555555555555555555555555555555555555555555555555555555555555555555555555555",
"55555555555555555555555555555555555555555555555555555555555555555555555555555555555555555555555555555555555555555555555555555555",
"55555555555555555555555555555555555555555555555555555555555555555555555555555555555555555555555555555555555555555555555555555555",
"55555555555555555555555555555555555555555555555555555555555555555555555555555555555555555555555555555555555555555555555555555555",
"55555555555555555555555555555555555555555555555555555555555555555555555555555555555555555555555555555555555555555555555555555555",
"55555555555555555555555555555555555555555555555555555555555555555555555555555555555555555555555555555555555555555555555555555555",
"55555555555555555555555555555555555555555555555555555555555555555555555555555555555555555555555555555555555555555555555555555555",
"55555555555555555555555555555555555555555555555555555555555555555555555555555555555555555555555555555555555555555555555555555555",
"55555555555555555555555555555555555555555555555555555555555555555555555555555555555555555555555555555555555555555555555555555555",
"55555555555555555555555555555555555555555555555555555555555555555555555555555555555555555555555555555555555555555555555555555555",
"55555555555555....................................................................................................55555555555555",
"55555555555555....................................................................................................55555555555555",
"5555..........>>>>>>>>>>>>>>>>>>,,,,,,,,,,,,,,,,,,,,,,,,,,,,,,,,,,,,,,,,,,,,,,,,,,,,,,,,,,,,,,>>>>>>>>>>>>>>>>>>>>........555555",
"5555..........>>>>>>>>>>>>>>>>>>,,,,,,,,,,,,,,,,,,,,,,,,,,,,,,,,,,,,,,,,,,,,,,,,,,,,,,,,,,,,,,>>>>>>>>>>>>>>>>>>>>........555555",
"55......>>>>>>>>>>,,,,,,,,,,,,,,<<<<<<<<<<<<<<<<<<<<<<<<<<<<<<<<<<<<<<<<<<<<<<<<<<<<<<<<<<<<<<,,,,,,,,,,,,,,>>>>>>>>>>>>....5555",
"55......>>>>>>>>>>,,,,,,,,,,,,,,<<<<<<<<<<<<<<<<<<<<<<<<<<<<<<<<<<<<<<<<<<<<<<<<<<<<<<<<<<<<<<,,,,,,,,,,,,,,>>>>>>>>>>>>....5555",
"55..>>>>>>>>,,,,,,,,<<<<<<<<<<<<<<<<<<<<<<<<<<<<<<<<<<<<<<<<<<<<<<<<<<<<<<<<<<<<<<<<<<<<<<<<<<<<<<<<<<,,,,,,,,,,,,>>>>>>>>....55",
"55..>>>>>>>>,,,,,,,,<<<<<<<<<<<<<<<<<<<<<<<<<<<<<<<<<<<<<<<<<<<<<<<<<<<<<<<<<<<<<<<<<<<<<<<<<<<<<<<<<<,,,,,,,,,,,,>>>>>>>>....55",
"555555......>>>>>>>>>>>>>>>>>>>>,,,,,,,,,,,,,,,,,,,,,,,,,,,,,,,,,,,,,,,,,,,,,,,,,,,,,,,,,,,,,,>>>>>>>>>>>>>>>>>>>>..........5555",
"555555......>>>>>>>>>>>>>>>>>>>>,,,,,,,,,,,,,,,,,,,,,,,,,,,,,,,,,,,,,,,,,,,,,,,,,,,,,,,,,,,,,,>>>>>>>>>>>>>>>>>>>>..........5555"
};
