/* XPM */
static char *_556199777312[] = {
/* columns rows colors chars-per-pixel */
"128 128 38 1 ",
"  c #047C00",
". c #7C7C7C",
"X c #048800",
"o c #049800",
"O c #04A400",
"+ c #00A800",
"@ c #04B000",
"# c #04BC00",
"$ c #04C800",
"% c #00D400",
"& c #00E000",
"* c #00EC00",
"= c #00FC00",
"- c #40FC40",
"; c #60FC5C",
": c #848400",
"> c #9C9C00",
", c #B4AC00",
"< c #CCC400",
"1 c #E4D800",
"2 c #FCF400",
"3 c #FCF420",
"4 c #80FC7C",
"5 c #FCF440",
"6 c #FCFC54",
"7 c #FCF85C",
"8 c #FCFC7C",
"9 c gray55",
"0 c #989898",
"q c gray66",
"w c #B4B4B4",
"e c #9CFC9C",
"r c #FCFC9C",
"t c #FCFCB8",
"y c #C0C0C0",
"u c #D0D0D0",
"i c #FCFCD8",
"p c None",
/* pixels */
"pppppppppppppppppppppppppppppppppppppppppppppppppppppppppppppppppppppppppppppppppppppppppppppppppppppppppppppppppppppppppppppppp",
"pppppppppppppppppppppppppppppppppppppppppppppppppppppppppppppppppppppppppppppppppppppppppppppppppppppppppppppppppppppppppppppppp",
"pppppppppppppppppppppppppppppppppppppppppppppppppppppppppppppppppppppppppppppppppppppppppppppppppppppppppppppppppppppppppppppppp",
"pppppppppppppppppppppppppppppppppppppppppppppppppppppppppppppppppppppppppppppppppppppppppppppppppppppppppppppppppppppppppppppppp",
"pppppppppppppppppppppppppppppppppppppppppppppppppppppppppppppppppppppppppppppppppppppppppppppppppppppppppppppppppppppppppppppppp",
"pppppppppppppppppppppppppppppppppppppppppppppppppppppppppppppppppppppppppppppppppppppppppppppppppppppppppppppppppppppppppppppppp",
"pppppppppppppppppppppppppppppppppppppppppppppppppppppppppppppppppppppppppppppppppppppppppppppppppppppppppppppppppppppppppppppppp",
"pppppppppppppppppppppppppppppppppppppppppppppppppppppppppppppppppppppppppppppppppppppppppppppppppppppppppppppppppppppppppppppppp",
"pppppppppppppppppppppppppppppppppppppppppppppppppppppppppppppppppppppppppppppppppppppppppppppppppppppppppppppppppppppppppppppppp",
"pppppppppppppppppppppppppppppppppppppppppppppppppppppppppppppppppppppppppppppppppppppppppppppppppppppppppppppppppppppppppppppppp",
"pppppppppppppppppppppppppppppppppppppppppppppppppppppppppppppppppppppppppppppppppppppppppppppppppppppppppppppppppppppppppppppppp",
"pppppppppppppppppppppppppppppppppppppppppppppppppppppppppppppppppppppppppppppppppppppppppppppppppppppppppppppppppppppppppppppppp",
"pppppppppppppppppppppppppppppppppppppppppppppppppppppppppppppppppppppppppppppppppppppppppppppppppppppppppppppppppppppppppppppppp",
"pppppppppppppppppppppppppppppppppppppppppppppppppppppppppppppppppppppppppppppppppppppppppppppppppppppppppppppppppppppppppppppppp",
"pppppppppppppppppppppppppppppppppppppppppppppppppppppppppppppppppppppppppppppppppppppppppppppppppppppppppppppppppppppppppppppppp",
"pppppppppppppppppppppppppppppppppppppppppppppppppppppppppppppppppppppppppppppppppppppppppppppppppppppppppppppppppppppppppppppppp",
"pppppppppppppppppppppppppppppppppppppppppppppppppppppppppppppppppppppppppppppppppppppppppppppppppppppppppppppppppppppppppppppppp",
"pppppppppppppppppppppppppppppppppppppppppppppppppppppppppppppppppppppppppppppppppppppppppppppppppppppppppppppppppppppppppppppppp",
"pppppppppppppppppppppppppppppppppppppppppppppppppppppppppppppppppppppppppppppppppppppppppppppppppppppppppppppppppppppppppppppppp",
"pppppppppppppppppppppppppppppppppppppppppppppppppppppppppppppppppppppppppppppppppppppppppppppppppppppppppppppppppppppppppppppppp",
"pppppppppppppppppppppppppppppppppppppppppppppppppppppppppppppppppppppppppppppppppppppppppppppppppppppppppppppppppppppppppppppppp",
"pppppppppppppppppppppppppppppppppppppppppppppppppppppppppppppppppppppppppppppppppppppppppppppppppppppppppppppppppppppppppppppppp",
"pppppppppppppppppppppppppppppppppppppppppppppppppppppppppppppppppppppppppppppppppppppppppppppppppppppppppppppppppppppppppppppppp",
"pppppppppppppppppppppppppppppppppppppppppppppppppppppppppppppppppppppppppppppppppppppppppppppppppppppppppppppppppppppppppppppppp",
"pppppppppppppppppppppppppppppppppppppppppppppppppppppppppppppppppppppppppppppppppppppppppppppppppppppppppppppppppppppppppppppppp",
"pppppppppppppppppppppppppppppppppppppppppppppppppppppppppppppppppppppppppppppppppppppppppppppppppppppppppppppppppppppppppppppppp",
"pppppppppppppppppppppppppppppppppppppppppppppppppppppppppppppppppppppppppppppppppppppppppppppppppppppppppppppppppppppppppppppppp",
"pppppppppppppppppppppppppppppppppppppppppppppppppppppppppppppppppppppppppppppppppppppppppppppppppppppppppppppppppppppppppppppppp",
"pppppppppppppppppppppppppppppppppppppppppppppppppppppppppppppppppppppppppppppppppppppppppppppppppppppppppppppppppppppppppppppppp",
"pppppppppppppppppppppppppppppppppppppppppppppppppppppppppppppppppppppppppppppppppppppppppppppppppppppppppppppppppppppppppppppppp",
"pppppppppppppppppppppppppppppppppppppppppppppppppppppppppppppppppppppppppppppppppppppppppppppppppppppppppppppppppppppppppppppppp",
"pppppppppppppppppppppppppppppppppppppppppppppppppppppppppppppppppppppppppppppppppppppppppppppppppppppppppppppppppppppppppppppppp",
"pppppppppppppppppppppppppppppppppppppppppppppppppppppppppppppppppppppppppppppppppppppppppppppppppppppppppppppppppppppppppppppppp",
"pppppppppppppppppppppppppppppppppppppppppppppppppppppppppppppppppppppppppppppppppppppppppppppppppppppppppppppppppppppppppppppppp",
"pppppppppppppppppppppppppppppppppppppppppppppppppppppppppppppppppppppppppppppppppppppppppppppppppppppppppppppppppppppppppppppppp",
"pppppppppppppppppppppppppppppppppppppppppppppppppppppppppppppppppppppppppppppppppppppppppppppppppppppppppppppppppppppppppppppppp",
"pppppppppppppppppppppppppppppppppppppppppppppppppppppppppppppppppppppppppppppppppppppppppppppppppppppppppppppppppppppppppppppppp",
"pppppppppppppppppppppppppppppppppppppppppppppppppppppppppppppppppppppppppppppppppppppppppppppppppppppppppppppppppppppppppppppppp",
"pppppppppppppppppppppppppppppppppppppppppppppppppppppppppppppppppppppppppppppppppppppppppppppppppppppppppppppppppppppppppppppppp",
"pppppppppppppppppppppppppppppppppppppppppppppppppppppppppppppppppppppppppppppppppppppppppppppppppppppppppppppppppppppppppppppppp",
"pppppppppppppppppppppppppppppppppppppppppppppppppppppppppppppppppppppppppppppppppppppppppppppppppppppppppppppppppppppppppppppppp",
"pppppppppppppppppppppppppppppppppppppppppppppppppppppppppppppppppppppppppppppppppppppppppppppppppppppppppppppppppppppppppppppppp",
"pppppppppppppppppppppppppppppppppppppppppppppppppppppppppppppppppppppppppppppppppppppppppppppppppppppppppppppppppppppppppppppppp",
"pppppppppppppppppppppppppppppppppppppppppppppppppppppppppppppppppppppppppppppppppppppppppppppppppppppppppppppppppppppppppppppppp",
"pppppppppppppppppppppppppppppppppppppppppppppppppppppppppppppppppppppppppppppppppppppppppppppppppppppppppppppppppppppppppppppppp",
"pppppppppppppppppppppppppppppppppppppppppppppppppppppppppppppppppppppppppppppppppppppppppppppppppppppppppppppppppppppppppppppppp",
"ppppppppppppppppppppppppppppppppppppppppppppppppppppppXXXXXXXXXXXXXXXXXXXXXXpppppppppppppppppppppppppppppppppppppppppppppppppppp",
"ppppppppppppppppppppppppppppppppppppppppppppppppppppppXXXXXXXXXXXXXXXXXXXXXXpppppppppppppppppppppppppppppppppppppppppppppppppppp",
"ppppppppppppppppppppppppppppppppppppppppppppppppXXXXXXooOO@@@@@@@@@@@@@@OOooXXXXXXpppppppppppppppppppppppppppppppppppppppppppppp",
"ppppppppppppppppppppppppppppppppppppppppppppppppXXXXXXooOO@@@@@@@@@@@@@@OOooXXXXXXpppppppppppppppppppppppppppppppppppppppppppppp",
"pppppppppppppppppppppppppppppppppppppppppppp  XX@@$$%%%%%%%%%%%%%%%%%%%%%%%%%%$$@@XX  pppppppppppppppppppppppppppppppppppppppppp",
"pppppppppppppppppppppppppppppppppppppppppppp  XX@@$$%%%%%%%%%%%%%%%%%%%%%%%%%%$$@@XX  pppppppppppppppppppppppppppppppppppppppppp",
"pppppppppppppppppppppppppppppppppppppppppp  oo@@$$%%&&&&&&****------******&&&&%%$$@@oo  pppppppppppppppppppppppppppppppppppppppp",
"pppppppppppppppppppppppppppppppppppppppppp  oo@@$$%%&&&&&&****------******&&&&%%$$@@oo  pppppppppppppppppppppppppppppppppppppppp",
"pppppppppppppppppppppppppppppppppppppppppp  oo@@$$&&&&**====44eeeeee44====**&&&&$$@@oo  pppppppppppppppppppppppppppppppppppppppp",
"pppppppppppppppppppppppppppppppppppppppppp  oo@@$$&&&&**====44eeeeee44====**&&&&$$@@oo  pppppppppppppppppppppppppppppppppppppppp",
"pppppppppppppppppppppppppppppppppppppppppppp  XX++&&**======44eeeeee44======**&&++XX  pppppppppppppppppppppppppppppppppppppppppp",
"pppppppppppppppppppppppppppppppppppppppppppp  XX++&&**======44eeeeee44======**&&++XX  pppppppppppppppppppppppppppppppppppppppppp",
"ppppppppppppppppppppppppppppppppppppppppppppppppXX++##$$==;;44eeeeee44;;==$$##++oopppppppppppppppppppppppppppppppppppppppppppppp",
"ppppppppppppppppppppppppppppppppppppppppppppppppXX++##$$==;;44eeeeee44;;==$$##++oopppppppppppppppppppppppppppppppppppppppppppppp",
"ppppppppppppppppppppppppppppppppppppppppppppppppppXXoo++##&&;;444444;;&&##OOoooopppppppppppppppppppppppppppppppppppppppppppppppp",
"ppppppppppppppppppppppppppppppppppppppppppppppppppXXoo++##&&;;444444;;&&##OOoooopppppppppppppppppppppppppppppppppppppppppppppppp",
"pppppppppppppppppppppppppppppppppppppppppppppppppppppppppppppp77ii77pppppppppppppppppppppppppppppppppppppppppppppppppppppppppppp",
"pppppppppppppppppppppppppppppppppppppppppppppppppppppppppppppp77ii77pppppppppppppppppppppppppppppppppppppppppppppppppppppppppppp",
"pppppppppppppppppppppppppppppppppppppppppppppppppppppppppppppp77ii77pppppppppppppppppppppppppppppppppppppppppppppppppppppppppppp",
"pppppppppppppppppppppppppppppppppppppppppppppppppppppppppppppp77ii77pppppppppppppppppppppppppppppppppppppppppppppppppppppppppppp",
"pppppppppppppppppppppppppppppppppppppppppppppppppppppppppppppp77tt77pppppppppppppppppppppppppppppppppppppppppppppppppppppppppppp",
"pppppppppppppppppppppppppppppppppppppppppppppppppppppppppppppp77tt77pppppppppppppppppppppppppppppppppppppppppppppppppppppppppppp",
"pppppppppppppppppppppppppppppppppppppppppppppppppppppppppppppp77tt77pppppppppppppppppppppppppppppppppppppppppppppppppppppppppppp",
"pppppppppppppppppppppppppppppppppppppppppppppppppppppppppppppp77tt77pppppppppppppppppppppppppppppppppppppppppppppppppppppppppppp",
"pppppppppppppppppppppppppppppppppppppppppppppppppppppppppppppp77tt77pppppppppppppppppppppppppppppppppppppppppppppppppppppppppppp",
"pppppppppppppppppppppppppppppppppppppppppppppppppppppppppppppp77tt77pppppppppppppppppppppppppppppppppppppppppppppppppppppppppppp",
"pppppppppppppppppppppppppppppppppppppppppppppppppppppppppppppp33tt33pppppppppppppppppppppppppppppppppppppppppppppppppppppppppppp",
"pppppppppppppppppppppppppppppppppppppppppppppppppppppppppppppp33tt33pppppppppppppppppppppppppppppppppppppppppppppppppppppppppppp",
"pppppppppppppppppppppppppppppppppppppppppppppppppppppppppppppp33tt33pppppppppppppppppppppppppppppppppppppppppppppppppppppppppppp",
"pppppppppppppppppppppppppppppppppppppppppppppppppppppppppppppp33tt33pppppppppppppppppppppppppppppppppppppppppppppppppppppppppppp",
"pppppppppppppppppppppppppppppppppppppppppppppppppppppppppppppp33rr33pppppppppppppppppppppppppppppppppppppppppppppppppppppppppppp",
"pppppppppppppppppppppppppppppppppppppppppppppppppppppppppppppp33rr33pppppppppppppppppppppppppppppppppppppppppppppppppppppppppppp",
"pppppppppppppppppppppppppppppppppppppppppppppppppppppppppppppp33rr33pppppppppppppppppppppppppppppppppppppppppppppppppppppppppppp",
"pppppppppppppppppppppppppppppppppppppppppppppppppppppppppppppp33rr33pppppppppppppppppppppppppppppppppppppppppppppppppppppppppppp",
"pppppppppppppppppppppppppppppppppppppppppppppppppppppppppppppp118811pppppppppppppppppppppppppppppppppppppppppppppppppppppppppppp",
"pppppppppppppppppppppppppppppppppppppppppppppppppppppppppppppp118811pppppppppppppppppppppppppppppppppppppppppppppppppppppppppppp",
"pppppppppppppppppppppppppppppppppppppppppppppppppppppppppppppp118811pppppppppppppppppppppppppppppppppppppppppppppppppppppppppppp",
"pppppppppppppppppppppppppppppppppppppppppppppppppppppppppppppp118811pppppppppppppppppppppppppppppppppppppppppppppppppppppppppppp",
"pppppppppppppppppppppppppppppppppppppppppppppppppppppppppppppp118811pppppppppppppppppppppppppppppppppppppppppppppppppppppppppppp",
"pppppppppppppppppppppppppppppppppppppppppppppppppppppppppppppp118811pppppppppppppppppppppppppppppppppppppppppppppppppppppppppppp",
"pppppppppppppppppppppppppppppppppppppppppppppppppppppppppppppp<<77<<pppppppppppppppppppppppppppppppppppppppppppppppppppppppppppp",
"pppppppppppppppppppppppppppppppppppppppppppppppppppppppppppppp<<77<<pppppppppppppppppppppppppppppppppppppppppppppppppppppppppppp",
"pppppppppppppppppppppppppppppppppppppppppppppppppppppppppppppp<<77<<pppppppppppppppppppppppppppppppppppppppppppppppppppppppppppp",
"pppppppppppppppppppppppppppppppppppppppppppppppppppppppppppppp<<77<<pppppppppppppppppppppppppppppppppppppppppppppppppppppppppppp",
"pppppppppppppppppppppppppppppppppppppppppppppppppppppppppppppp<<77<<pppppppppppppppppppppppppppppppppppppppppppppppppppppppppppp",
"pppppppppppppppppppppppppppppppppppppppppppppppppppppppppppppp<<77<<pppppppppppppppppppppppppppppppppppppppppppppppppppppppppppp",
"pppppppppppppppppppppppppppppppppppppppppppppppppppppppppppppp,,77,,pppppppppppppppppppppppppppppppppppppppppppppppppppppppppppp",
"pppppppppppppppppppppppppppppppppppppppppppppppppppppppppppppp,,77,,pppppppppppppppppppppppppppppppppppppppppppppppppppppppppppp",
"pppppppppppppppppppppppppppppppppppppppppppppppppppppppppppppp,,66,,pppppppppppppppppppppppppppppppppppppppppppppppppppppppppppp",
"pppppppppppppppppppppppppppppppppppppppppppppppppppppppppppppp,,66,,pppppppppppppppppppppppppppppppppppppppppppppppppppppppppppp",
"pppppppppppppppppppppppppppppppppppppppppppppppppppppppppppppp,,55,,pppppppppppppppppppppppppppppppppppppppppppppppppppppppppppp",
"pppppppppppppppppppppppppppppppppppppppppppppppppppppppppppppp,,55,,pppppppppppppppppppppppppppppppppppppppppppppppppppppppppppp",
"pppppppppppppppppppppppppppppppppppppppppppppppppppppppppppppp>>55>>pppppppppppppppppppppppppppppppppppppppppppppppppppppppppppp",
"pppppppppppppppppppppppppppppppppppppppppppppppppppppppppppppp>>55>>pppppppppppppppppppppppppppppppppppppppppppppppppppppppppppp",
"pppppppppppppppppppppppppppppppppppppppppppppppppppppppppppppp>>11>>pppppppppppppppppppppppppppppppppppppppppppppppppppppppppppp",
"pppppppppppppppppppppppppppppppppppppppppppppppppppppppppppppp>>11>>pppppppppppppppppppppppppppppppppppppppppppppppppppppppppppp",
"pppppppppppppppppppppppppppppppppppppppppppppppppppppppppppppp>>11>>pppppppppppppppppppppppppppppppppppppppppppppppppppppppppppp",
"pppppppppppppppppppppppppppppppppppppppppppppppppppppppppppppp>>11>>pppppppppppppppppppppppppppppppppppppppppppppppppppppppppppp",
"pppppppppppppppppppppppppppppppppppppppppppppppppppppppppppppp::<<::pppppppppppppppppppppppppppppppppppppppppppppppppppppppppppp",
"pppppppppppppppppppppppppppppppppppppppppppppppppppppppppppppp::<<::pppppppppppppppppppppppppppppppppppppppppppppppppppppppppppp",
"pppppppppppppppppppppppppppppppppppppppppppppppppppppppppppppp::,,::pppppppppppppppppppppppppppppppppppppppppppppppppppppppppppp",
"pppppppppppppppppppppppppppppppppppppppppppppppppppppppppppppp::,,::pppppppppppppppppppppppppppppppppppppppppppppppppppppppppppp",
"pppppppppppppppppppppppppppppppppppppppppppppppppppppppppppppp::,,::pppppppppppppppppppppppppppppppppppppppppppppppppppppppppppp",
"pppppppppppppppppppppppppppppppppppppppppppppppppppppppppppppp::,,::pppppppppppppppppppppppppppppppppppppppppppppppppppppppppppp",
"pppppppppppppppppppppppppppppppppppppppppppppppppppppppppppppp>>11>>pppppppppppppppppppppppppppppppppppppppppppppppppppppppppppp",
"pppppppppppppppppppppppppppppppppppppppppppppppppppppppppppppp>>11>>pppppppppppppppppppppppppppppppppppppppppppppppppppppppppppp",
"pppppppppppppppppppppppppppppppppppppppp........999999999999,,<<22<<,,99999999999999....pppppppppppppppppppppppppppppppppppppppp",
"pppppppppppppppppppppppppppppppppppppppp........999999999999,,<<22<<,,99999999999999....pppppppppppppppppppppppppppppppppppppppp",
"pppppppppppppppppppppppppppppppppp......990000wwyyuuuu8888553388888833558888uuuuyyyyww009999....pppppppppppppppppppppppppppppppp",
"pppppppppppppppppppppppppppppppppp......990000wwyyuuuu8888553388888833558888uuuuyyyyww009999....pppppppppppppppppppppppppppppppp",
"pppppppppppppppppppppppppppppp......999900qqyyuu88555588rrrrrrttttttrrrrrr88885588uuuuyyqq009999....pppppppppppppppppppppppppppp",
"pppppppppppppppppppppppppppppp......999900qqyyuu88555588rrrrrrttttttrrrrrr88885588uuuuyyqq009999....pppppppppppppppppppppppppppp",
"pppppppppppppppppppppppppppp......999900qqwwuu,,8888rrttttttiiiiiiiiiittttttrr8822,,uuuuwwqq000099....pppppppppppppppppppppppppp",
"pppppppppppppppppppppppppppp......999900qqwwuu,,8888rrttttttiiiiiiiiiittttttrr8822,,uuuuwwqq000099....pppppppppppppppppppppppppp",
"pppppppppppppppppppppppppppp......990000qqwwuuuu,,<<3388rrrrttttttttttttrr8888<<,,uuuuuuwwqq000099....pppppppppppppppppppppppppp",
"pppppppppppppppppppppppppppp......990000qqwwuuuu,,<<3388rrrrttttttttttttrr8888<<,,uuuuuuwwqq000099....pppppppppppppppppppppppppp",
"pppppppppppppppppppppppppppp......990000qqwwyyuuuuww,,,,,,,,,,,,,,,,,,,,,,,,,,wwuuuuuuyywwqq000099....pppppppppppppppppppppppppp",
"pppppppppppppppppppppppppppp......990000qqwwyyuuuuww,,,,,,,,,,,,,,,,,,,,,,,,,,wwuuuuuuyywwqq000099....pppppppppppppppppppppppppp",
"pppppppppppppppppppppppppppppp......990000qqwwwwyyyyyyyyyyyyyyyyyyyyyyyyyyyyyyyyyyyywwwwqq00000099....pppppppppppppppppppppppppp",
"pppppppppppppppppppppppppppppp......990000qqwwwwyyyyyyyyyyyyyyyyyyyyyyyyyyyyyyyyyyyywwwwqq00000099....pppppppppppppppppppppppppp",
"pppppppppppppppppppppppppppppppppp....99000000qqqqqqqqqqqqqqqqqqqqqqqqqqqqqqqqqqqqqq000000009999....pppppppppppppppppppppppppppp",
"pppppppppppppppppppppppppppppppppp....99000000qqqqqqqqqqqqqqqqqqqqqqqqqqqqqqqqqqqqqq000000009999....pppppppppppppppppppppppppppp"
};
