/* XPM */
static char *b30b4acb06fc45208520fb1dd15893f7[] = {
/* columns rows colors chars-per-pixel */
"128 128 28 1 ",
"  c black",
". c #28200C",
"X c #382C14",
"o c #202020",
"O c #2C2C2C",
"+ c gray22",
"@ c #403018",
"# c #483818",
"$ c #543C1C",
"% c #5C4020",
"& c #6C4824",
"* c #744C28",
"= c #484848",
"- c gray33",
"; c #646464",
": c gray44",
"> c #7C7C7C",
", c #80502C",
"< c #885830",
"1 c #905C34",
"2 c #9C6038",
"3 c #A0643C",
"4 c #A86840",
"5 c #B47044",
"6 c #BC7848",
"7 c gray55",
"8 c #989898",
"9 c None",
/* pixels */
"99999999999999999999999999999999999999999999999999999999999999999999999999999999999999999999999999999999999999999999999999999999",
"99999999999999999999999999999999999999999999999999999999999999999999999999999999999999999999999999999999999999999999999999999999",
"99999999999999999999999999999999999999999999999999999999999999999999999999999999999999999999999999999999999999999999999999999999",
"99999999999999999999999999999999999999999999999999999999999999999999999999999999999999999999999999999999999999999999999999999999",
"99999999999999999999999999999999999999999999999999999999999999999999999999999999999999999999999999999999999999999999999999999999",
"99999999999999999999999999999999999999999999999999999999999999999999999999999999999999999999999999999999999999999999999999999999",
"99999999999999999999999999999999999999999999999999999999999999999999999999999999999999999999999999999999999999999999999999999999",
"99999999999999999999999999999999999999999999999999999999999999999999999999999999999999999999999999999999999999999999999999999999",
"99999999999999999999999999999999999999999999999999999999999999999999999999999999999999999999999999999999999999999999999999999999",
"99999999999999999999999999999999999999999999999999999999999999999999999999999999999999999999999999999999999999999999999999999999",
"99999999999999999999999999999999999999999999999999999999999999999999999999999999999999999999999999999999999999999999999999999999",
"99999999999999999999999999999999999999999999999999999999999999999999999999999999999999999999999999999999999999999999999999999999",
"99999999999999999999999999999999999999999999999999999999999999999999999999999999999999999999999999999999999999999999999999999999",
"99999999999999999999999999999999999999999999999999999999999999999999999999999999999999999999999999999999999999999999999999999999",
"99999999999999999999999999999999999999999999999999999999999999999999999999999999999999999999999999999999999999999999999999999999",
"99999999999999999999999999999999999999999999999999999999999999999999999999999999999999999999999999999999999999999999999999999999",
"99999999999999999999999999999999999999999999999999999999999999999999999999999999999999999999999999999999999999999999999999999999",
"99999999999999999999999999999999999999999999999999999999999999999999999999999999999999999999999999999999999999999999999999999999",
"99999999999999999999999999999999999999999999999999999999999999999999999999999999999999999999999999999999999999999999999999999999",
"99999999999999999999999999999999999999999999999999999999999999999999999999999999999999999999999999999999999999999999999999999999",
"99999999999999999999999999999999999999999999999999999999999999999999999999999999999999999999999999999999999999999999999999999999",
"99999999999999999999999999999999999999999999999999999999999999999999999999999999999999999999999999999999999999999999999999999999",
"99999999999999999999999999999999999999999999999999999999999999999999999999999999999999999999999999999999999999999999999999999999",
"99999999999999999999999999999999999999999999999999999999999999999999999999999999999999999999999999999999999999999999999999999999",
"99999999999999999999999999999999999999999999999999999999999999999999999999999999999999999999999999999999999999999999999999999999",
"99999999999999999999999999999999999999999999999999999999999999999999999999999999999999999999999999999999999999999999999999999999",
"99999999999999999999999999999999999999999999999999999999999999999999999999999999999999999999999999999999999999999999999999999999",
"99999999999999999999999999999999999999999999999999999999999999999999999999999999999999999999999999999999999999999999999999999999",
"99999999999999999999999999999999999999999999999999999999999999999999999999999999999999999999999999999999999999999999999999999999",
"99999999999999999999999999999999999999999999999999999999999999999999999999999999999999999999999999999999999999999999999999999999",
"99999999999999999999999999999999999999999999999999999999999999999999999999999999999999999999999999999999999999999999999999999999",
"99999999999999999999999999999999999999999999999999999999999999999999999999999999999999999999999999999999999999999999999999999999",
"99999999999999999999999999999999999999999999999999999999999999999999999999999999999999999999999999999999999999999999999999999999",
"99999999999999999999999999999999999999999999999999999999999999999999999999999999999999999999999999999999999999999999999999999999",
"99999999999999999999999999999999999999999999999999999999999999999999999999999999999999999999999999999999999999999999999999999999",
"99999999999999999999999999999999999999999999999999999999999999999999999999999999999999999999999999999999999999999999999999999999",
"99999999999999999999999999999999999999999999999999999999999999999999999999999999999999999999999999999999999999999999999999999999",
"99999999999999999999999999999999999999999999999999999999999999999999999999999999999999999999999999999999999999999999999999999999",
"99999999999999999999999999999999999999999999999999999999999999999999999999999999999999999999999999999999999999999999999999999999",
"99999999999999999999999999999999999999999999999999999999999999999999999999999999999999999999999999999999999999999999999999999999",
"99999999999999999999999999999999999999999999999999999999999999999999999999999999999999999999999999999999999999999999999999999999",
"99999999999999999999999999999999999999999999999999999999999999999999999999999999999999999999999999999999999999999999999999999999",
"99999999999999999999999999999999999999999999999999999999999999999999999999999999999999999999999999999999999999999999999999999999",
"99999999999999999999999999999999999999999999999999999999999999999999999999999999999999999999999999999999999999999999999999999999",
"99999999999999999999999999999999999999999999999999999999999999999999999999999999999999999999999999999999999999999999999999999999",
"99999999999999999999999999999999999999999999999999999999999999999999999999999999999999999999999999999999999999999999999999999999",
"99999999999999999999999999999999999999999999999999999999999999999999999999999999999999999999999999999999999999999999999999999999",
"99999999999999999999999999999999999999999999999999999999999999999999999999999999999999999999999999999999999999999999999999999999",
"99999999999999999999999999999999999999999999999999999999999999999999999999999999999999999999999999999999999999999999999999999999",
"99999999999999999999999999999999999999999999999999999999999999999999999999999999999999999999999999999999999999999999999999999999",
"99999999999999999999999999999999999999999999999999999999999999999999999999999999999999999999999999999999999999999999999999999999",
"99999999999999999999999999999999999999999999999999999999999999999999999999999999999999999999999999999999999999999999999999999999",
"99999999999999999999999999999999999999999999999999999999999999999999999999999999999999999999999999999999999999999999999999999999",
"99999999999999999999999999999999999999999999999999999999999999999999999999999999999999999999999999999999999999999999999999999999",
"99999999999999999999999999999999999999999999999999999999999999999999999999999999999999999999999999999999999999999999999999999999",
"99999999999999999999999999999999999999999999999999999999999999999999999999999999999999999999999999999999999999999999999999999999",
"99999999999999999999999999999999999999999999999999999999999999999999999999999999999999999999999999999999999999999999999999999999",
"99999999999999999999999999999999999999999999999999999999999999999999999999999999999999999999999999999999999999999999999999999999",
"99999999999999999999999999999999999999999999999999999999999999999999999999999999999999999999999999999999999999999999999999999999",
"99999999999999999999999999999999999999999999999999999999999999999999999999999999999999999999999999999999999999999999999999999999",
"99999999999999999999999999999999999999999999999999999999999999999999999999999999999999999999999999999999999999999999999999999999",
"99999999999999999999999999999999999999999999999999999999999999999999999999999999999999999999999999999999999999999999999999999999",
"9999999999999999999999999999999999999999999999::::::::::::::::::>>>>>>>>>>>>7777777799999999999999999999999999999999999999999999",
"9999999999999999999999999999999999999999999999::::::::::::::::::>>>>>>>>>>>>7777777799999999999999999999999999999999999999999999",
"999999999999999999999999999999999999999999>>::----------------------;;;;;;;;;;::::::77>>9999999999999999999999999999999999999999",
"999999999999999999999999999999999999999999>>::----------------------;;;;;;;;;;::::::77>>9999999999999999999999999999999999999999",
"9999999999999999999999999999999999999999>>77--++ooooooooOOOOOOOOOOOOOO++++========--::--::99999999999999999999999999999999999999",
"9999999999999999999999999999999999999999>>77--++ooooooooOOOOOOOOOOOOOO++++========--::--::99999999999999999999999999999999999999",
"9999999999999999999999999999999999999999>>>>7788887777>>>>>>>>>>::::::::;;;;;;;;----==++++99999999999999999999999999999999999999",
"9999999999999999999999999999999999999999>>>>7788887777>>>>>>>>>>::::::::;;;;;;;;----==++++99999999999999999999999999999999999999",
"999999999999999999999999999999999999992222>>>>7777>>>>::::::;;;;;;;;------======++++++++####999999999999999999999999999999999999",
"999999999999999999999999999999999999992222>>>>7777>>>>::::::;;;;;;;;------======++++++++####999999999999999999999999999999999999",
"99999999999999999999999999999999999999<<33112222<<,,,,,,********&&&&&&%%%%%%############%%##999999999999999999999999999999999999",
"99999999999999999999999999999999999999<<33112222<<,,,,,,********&&&&&&%%%%%%############%%##999999999999999999999999999999999999",
"99999999999999999999999999999999999922<<333355662266555533114444332211**&&,,****$$**&&####%%##9999999999999999999999999999999999",
"99999999999999999999999999999999999922<<333355662266555533114444332211**&&,,****$$**&&####%%##9999999999999999999999999999999999",
"999999999999999999999999999999999999<<33<<5566334466555511<<4444332211**&&,,,,**&&%%**&&##%%##9999999999999999999999999999999999",
"999999999999999999999999999999999999<<33<<5566334466555511<<4444332211**&&,,,,**&&%%**&&##%%##9999999999999999999999999999999999",
"999999999999999999999999999999999999<<33<<5566226655555511114444332211,,%%,,,,,,**$$**&&##%%==9999999999999999999999999999999999",
"999999999999999999999999999999999999<<33<<5566226655555511114444332211,,%%,,,,,,**$$**&&##%%==9999999999999999999999999999999999",
"9999999999999999999999999999999999--;;>>77::662266555544114444332211<<,,%%,,,,,,**$$========++9999999999999999999999999999999999",
"9999999999999999999999999999999999--;;>>77::662266555544114444332211<<,,%%,,,,,,**$$========++9999999999999999999999999999999999",
"9999999999999999999999999999999999--::>>>>77778877>>>>>>>>::::::::::;;;;;;;;;;--------++++++++##99999999999999999999999999999999",
"9999999999999999999999999999999999--::>>>>77778877>>>>>>>>::::::::::;;;;;;;;;;--------++++++++##99999999999999999999999999999999",
"9999999999999999999999999999999999-->>>>>>>>>>77::::::::;;;;;;;;------------========++++++++++##99999999999999999999999999999999",
"9999999999999999999999999999999999-->>>>>>>>>>77::::::::;;;;;;;;------------========++++++++++##99999999999999999999999999999999",
"9999999999999999999999999999999999<<**--;;::>>>>::::::::;;;;;;;;------------==========++++++%%##99999999999999999999999999999999",
"9999999999999999999999999999999999<<**--;;::>>>>::::::::;;;;;;;;------------==========++++++%%##99999999999999999999999999999999",
"9999999999999999999999999999999999<<33<<553333%%2211<<,,##******&&&&&&&&..%%########$$%%%%##%%##99999999999999999999999999999999",
"9999999999999999999999999999999999<<33<<553333%%2211<<,,##******&&&&&&&&..%%########$$%%%%##%%##99999999999999999999999999999999",
"9999999999999999999999999999999999<<33<<5566663366555555114433222211<<,,%%,,,,,,**&&$$%%%%##%%##99999999999999999999999999999999",
"9999999999999999999999999999999999<<33<<5566663366555555114433222211<<,,%%,,,,,,**&&$$%%%%##%%##99999999999999999999999999999999",
"9999999999999999999999999999999999<<33<<5566663366555555114433222211<<,,%%,,,,,,**&&$$%%%%##%%##99999999999999999999999999999999",
"9999999999999999999999999999999999<<33<<5566663366555555114433222211<<,,%%,,,,,,**&&$$%%%%##%%##99999999999999999999999999999999",
"9999999999999999999999999999999999<<33<<5566663366555555<<4433222211<<,,%%,,,,,,**&&$$%%%%##%%##99999999999999999999999999999999",
"9999999999999999999999999999999999<<33<<5566663366555555<<4433222211<<,,%%,,,,,,**&&$$%%%%##%%##99999999999999999999999999999999",
"9999999999999999999999999999999999<<33<<5566663366555555<<4433222211<<,,%%,,,,,,**&&$$%%%%##%%##99999999999999999999999999999999",
"9999999999999999999999999999999999<<33<<5566663366555555<<4433222211<<,,%%,,,,,,**&&$$%%%%##%%##99999999999999999999999999999999",
"9999999999999999999999999999999999<<33<<5566663366555555<<4433222211<<,,%%,,,,,,**&&$$%%%%##%%##99999999999999999999999999999999",
"9999999999999999999999999999999999<<33<<5566663366555555<<4433222211<<,,%%,,,,,,**&&$$%%%%##%%##99999999999999999999999999999999",
"9999999999999999999999999999999999<<33<<5566663366555555<<4433222211<<,,%%,,,,,,**&&$$%%%%##%%##99999999999999999999999999999999",
"9999999999999999999999999999999999<<33<<5566663366555555<<4433222211<<,,%%,,,,,,**&&$$%%%%##%%##99999999999999999999999999999999",
"9999999999999999999999999999999999>>33<<5566662266555555,,4433222211<<,,%%,,,,,,**&&$$%%%%##====99999999999999999999999999999999",
"9999999999999999999999999999999999>>33<<5566662266555555,,4433222211<<,,%%,,,,,,**&&$$%%%%##====99999999999999999999999999999999",
"9999999999999999999999999999999999::777777>>662266555555,,4433222211<<,,%%,,,,,,**&&$$========++99999999999999999999999999999999",
"9999999999999999999999999999999999::777777>>662266555555,,4433222211<<,,%%,,,,,,**&&$$========++99999999999999999999999999999999",
"9999999999999999999999999999999999;;>>>>>>778877>>>>>>>>>>::::::::::;;;;;;;;;;--------==++++++  99999999999999999999999999999999",
"9999999999999999999999999999999999;;>>>>>>778877>>>>>>>>>>::::::::::;;;;;;;;;;--------==++++++  99999999999999999999999999999999",
"9999999999999999999999999999999999--;;::>>>>77>>::::::::;;;;;;;;------------==========++++++++@@99999999999999999999999999999999",
"9999999999999999999999999999999999--;;::>>>>77>>::::::::;;;;;;;;------------==========++++++++@@99999999999999999999999999999999",
"999999999999999999999999999999999999**--;;;;;;::::::::::;;;;;;;;------------==========@@@@@@$$%%99999999999999999999999999999999",
"999999999999999999999999999999999999**--;;;;;;::::::::::;;;;;;;;------------==========@@@@@@$$%%99999999999999999999999999999999",
"999999999999999999999999999999999999<<<<,,,,,,,,,,,,&&&&XX&&&&%%%%%%%%%%..%%%%%%%%@@@@%%##%%##%%99999999999999999999999999999999",
"999999999999999999999999999999999999<<<<,,,,,,,,,,,,&&&&XX&&&&%%%%%%%%%%..%%%%%%%%@@@@%%##%%##%%99999999999999999999999999999999",
"999999999999999999999999999999999999<<33<<44662266444422**2211111111<<,,%%,,,,**&&##%%%%##%%##9999999999999999999999999999999999",
"999999999999999999999999999999999999<<33<<44662266444422**2211111111<<,,%%,,,,**&&##%%%%##%%##9999999999999999999999999999999999",
"99999999999999999999999999999999999999<<333355<<44444422**<<11111111<<&&%%,,,,**&&##%%%%##%%##9999999999999999999999999999999999",
"99999999999999999999999999999999999999<<333355<<44444422**<<11111111<<&&%%,,,,**&&##%%%%##%%##9999999999999999999999999999999999",
"99999999999999999999999999999999999999::33<<3333<<444422**,,111111<<,,%%%%,,,,**%%##%%##%%##;;;;;;;;;;;;;;;;;;;;;;;;;;;;99999999",
"99999999999999999999999999999999999999::33<<3333<<444422**,,111111<<,,%%%%,,,,**%%##%%##%%##;;;;;;;;;;;;;;;;;;;;;;;;;;;;99999999",
"99999999999999999999999999999999999999::77887733<<222222,,**<<<<<<<<,,%%&&,,**&&##%%######++++++++++++++++++++++++====--;;;;9999",
"99999999999999999999999999999999999999::77887733<<222222,,**<<<<<<<<,,%%&&,,**&&##%%######++++++++++++++++++++++++====--;;;;9999",
"9999999999999999999999999999999999999999>>>>>>77777777>>>>>>::::;;;;;;------======++++OOooooooooooooooooooooooOOOO++====----;;99",
"9999999999999999999999999999999999999999>>>>>>77777777>>>>>>::::;;;;;;------======++++OOooooooooooooooooooooooOOOO++====----;;99",
"999999999999999999999999999999999999999999>>::>>>>::::::;;;;;;;;--------======++++++OOOOOOOOOOOOOOOOOOOOOOOOOOOO++++====----;;99",
"999999999999999999999999999999999999999999>>::>>>>::::::;;;;;;;;--------======++++++OOOOOOOOOOOOOOOOOOOOOOOOOOOO++++====----;;99",
"9999999999999999999999999999999999999999999999----------==========++++++++OOOOOOOOOO++++++++++++++++++++++++++++======----;;9999",
"9999999999999999999999999999999999999999999999----------==========++++++++OOOOOOOOOO++++++++++++++++++++++++++++======----;;9999"
};
