/* XPM */
static char *_556199694992[] = {
/* columns rows colors chars-per-pixel */
"128 128 44 1 ",
"  c black",
". c #202020",
"X c #2C2C2C",
"o c gray22",
"O c #004040",
"+ c #005858",
"@ c #007070",
"# c #484848",
"$ c gray33",
"% c #646464",
"& c gray44",
"* c #7C7C7C",
"= c #BC0000",
"- c #D40000",
"; c #EC0000",
": c #FC2020",
"> c #FC4040",
", c #FC5454",
"< c #FC7C7C",
"1 c #008484",
"2 c #009C9C",
"3 c #00B4B4",
"4 c #00CCCC",
"5 c #00E4E4",
"6 c #00FCFC",
"7 c #20FCFC",
"8 c #40FCFC",
"9 c #54FCFC",
"0 c #5CFCFC",
"q c #7CFCF8",
"w c gray55",
"e c #989898",
"r c gray66",
"t c #B4B4B4",
"y c #FC9C9C",
"u c #9CFCFC",
"i c #B8FCFC",
"p c #C0C0C0",
"a c #D0D0D0",
"s c gainsboro",
"d c #D8FCFC",
"f c #ECECEC",
"g c gray99",
"h c None",
/* pixels */
"hhhhhhhhhhhhhhhhhhhhhhhhhhhhhhhhhhhhhhhhhhhhhhhhhhhhhhhhhhhhhhhhhhhhhhhhhhhhhhhhhhhhhhhhhhhhhhhhhhhhhhhhhhhhhhhhhhhhhhhhhhhhhhhh",
"hhhhhhhhhhhhhhhhhhhhhhhhhhhhhhhhhhhhhhhhhhhhhhhhhhhhhhhhhhhhhhhhhhhhhhhhhhhhhhhhhhhhhhhhhhhhhhhhhhhhhhhhhhhhhhhhhhhhhhhhhhhhhhhh",
"hhhhhhhhhhhhhhhhhhhhhhhhhhhhhhhhhhhhhhhhhhhhhhhhhhhhhhhhhhhhhhhh44hhhhhhhhhhhhhhhhhhhhhhhhhhhhhhhhhhhhiirrhhhhhhhhhhhhhhhhhhhhhh",
"hhhhhhhhhhhhhhhhhhhhhhhhhhhhhhhhhhhhhhhhhhhhhhhhhhhhhhhhhhhhhhhh44hhhhhhhhhhhhhhhhhhhhhhhhhhhhhhhhhhhhiirrhhhhhhhhhhhhhhhhhhhhhh",
"hhhhhhhhhhhhhhhhhhhhhhhhhhhhhhhhhhhhhhhhhhhhhhhhhhhhhhhhhhhhwwww22wwwwhhhhhhhhhhhhhhhhhhhhhh55hhhhhhhhrrggrrhhhhhhhhhhhhhhhhhhhh",
"hhhhhhhhhhhhhhhhhhhhhhhhhhhhhhhhhhhhhhhhhhhhhhhhhhhhhhhhhhhhwwww22wwwwhhhhhhhhhhhhhhhhhhhhhh55hhhhhhhhrrggrrhhhhhhhhhhhhhhhhhhhh",
"hhhhhhhhhhhhhhhhhhhhhhhhhhhhhhhhhhhhhhhhhhhhhhhhhhhhhhhh**qqiiaa++rrrrrr**hhhhhhhhhhhhhhhhhh55hhhhhhhhhhuugghhhhhhhhhhhhhhhhhhhh",
"hhhhhhhhhhhhhhhhhhhhhhhhhhhhhhhhhhhhhhhhhhhhhhhhhhhhhhhh**qqiiaa++rrrrrr**hhhhhhhhhhhhhhhhhh55hhhhhhhhhhuugghhhhhhhhhhhhhhhhhhhh",
"hhhhhhhhhhhhhhhhhhhhhhhhhhhhhhhhhhhhhhhhhhhhhhhhhhhhhh**qqiiiiff99rrrrrrww%%hhhhhhhhhhhhhhhh55hhhhhhhhrr77ggrrhhhhhhhhhhhhhhhhhh",
"hhhhhhhhhhhhhhhhhhhhhhhhhhhhhhhhhhhhhhhhhhhhhhhhhhhhhh**qqiiiiff99rrrrrrww%%hhhhhhhhhhhhhhhh55hhhhhhhhrr77ggrrhhhhhhhhhhhhhhhhhh",
"hhhhhhhhhhhhhhhhhhhhhhhhhhhhhhhhhhhhhhhhhhhhhhhhhhhhhhttqqiiaa99ss**wwww1111hhhhhhhhhhhhhh335533hhhhhh7777iiiihhhhhhhhhhhhhhhhhh",
"hhhhhhhhhhhhhhhhhhhhhhhhhhhhhhhhhhhhhhhhhhhhhhhhhhhhhhttqqiiaa99ss**wwww1111hhhhhhhhhhhhhh335533hhhhhh7777iiiihhhhhhhhhhhhhhhhhh",
"hhhhhhhhhhhhhhhhhhhhhhhhhhhhhhhhhhhhhhhhhhhhhhhhhhhhhhttssss99ssaapp**++++OOhhhhhhhhhhhhhh335533hhhhhh7755iigghhhhhhhhhhhhhhhhhh",
"hhhhhhhhhhhhhhhhhhhhhhhhhhhhhhhhhhhhhhhhhhhhhhhhhhhhhhttssss99ssaapp**++++OOhhhhhhhhhhhhhh335533hhhhhh7755iigghhhhhhhhhhhhhhhhhh",
"hhhhhhhhhhhhhhhhhhhhhhhhhhhhhhhhhhhhhhhhhhhhhhhhhhhhiiww9999dd**aa$$tt**OOOOeehhhhhhhhhhhh335511hhhh773355iigghhhhhhhhhhhhhhhhhh",
"hhhhhhhhhhhhhhhhhhhhhhhhhhhhhhhhhhhhhhhhhhhhhhhhhhhhiiww9999dd**aa$$tt**OOOOeehhhhhhhhhhhh335511hhhh773355iigghhhhhhhhhhhhhhhhhh",
"hhhhhhhhhhhhhhhhhhhhhhhhhhhhhhhhhhhhhhhhhhhhhhhhhhhh449988uudd##aaXXtt2211@@**hhhhhhhhhh553355777777333355iigghhhhhhhhhhhhhhhhhh",
"hhhhhhhhhhhhhhhhhhhhhhhhhhhhhhhhhhhhhhhhhhhhhhhhhhhh449988uudd##aaXXtt2211@@**hhhhhhhhhh553355777777333355iigghhhhhhhhhhhhhhhhhh",
"hhhhhhhhhhhhhhhhhhhhhhhhhhhhhhhhhhhhhhhhhhhhhhhhhhhheeff88**dd##aaXXtt$$11@@%%hhhhhhhh55443355333333333355iigghhhhhhhhhhhhhhhhhh",
"hhhhhhhhhhhhhhhhhhhhhhhhhhhhhhhhhhhhhhhhhhhhhhhhhhhheeff88**dd##aaXXtt$$11@@%%hhhhhhhh55443355333333333355iigghhhhhhhhhhhhhhhhhh",
"hhhhhhhhhhhhhhhhhhhhhhhhhhhhhhhhhhhhhhhhhhhhhhhhhhhh@@ff88%%dd##aaXXttXX11@@OOhhhhhhhh44333355555555333355iigghhhhhhhhhhhhhhhhhh",
"hhhhhhhhhhhhhhhhhhhhhhhhhhhhhhhhhhhhhhhhhhhhhhhhhhhh@@ff88%%dd##aaXXttXX11@@OOhhhhhhhh44333355555555333355iigghhhhhhhhhhhhhhhhhh",
"hhhhhhhhhhhhhhhhhhhhhhhhhhhhhhhhhhhhhhhhhhhhhhhhhhhhhhaa88**dd##aaXXtt$$11**hhhhhhhh5533223355111144553355iigghhhhhhhhhhhhhhhhhh",
"hhhhhhhhhhhhhhhhhhhhhhhhhhhhhhhhhhhhhhhhhhhhhhhhhhhhhhaa88**dd##aaXXtt$$11**hhhhhhhh5533223355111144553355iigghhhhhhhhhhhhhhhhhh",
"hhhhhhhhhhhhhhhhhhhhhhhhhhhhhhhhhhhhhhhhhhhhhhhhhhhhhh**aauudd**aa$$tt2211**hhhhhhhh4422113355332211334455iigghhhhhhhhhhhhhhhhhh",
"hhhhhhhhhhhhhhhhhhhhhhhhhhhhhhhhhhhhhhhhhhhhhhhhhhhhhh**aauudd**aa$$tt2211**hhhhhhhh4422113355332211334455iigghhhhhhhhhhhhhhhhhh",
"hhhhhhhhhhhhhhhhhhhhhhhhhhhhhhhhhhhhhhhhhhhhhhhhhhhhhh##**eettssaappeeee**##hhhhhhhh4411hh3355333311115555iigghhhhhhhhhhhhhhhhhh",
"hhhhhhhhhhhhhhhhhhhhhhhhhhhhhhhhhhhhhhhhhhhhhhhhhhhhhh##**eettssaappeeee**##hhhhhhhh4411hh3355333311115555iigghhhhhhhhhhhhhhhhhh",
"hhhhhhhhhhhhhhhhhhhhhhhhhhhhhhhhhhhhhhhhhhhhhhhhhhhhhh##aa**************$$##hhhhhhhh22hhhh3355@@@@22113355iigghhhhhhhhhhhhhhhhhh",
"hhhhhhhhhhhhhhhhhhhhhhhhhhhhhhhhhhhhhhhhhhhhhhhhhhhhhh##aa**************$$##hhhhhhhh22hhhh3355@@@@22113355iigghhhhhhhhhhhhhhhhhh",
"hhhhhhhhhhhhhhhhhhhhhhhhhhhhhhhhhhhhhhhhhhhh**ppppppaaaaeeaaggaaaarr$$$$oooo$$$$hhhhhhhhhh3355@@hh@@112255iigghhhhhhhhhhhhhhhhhh",
"hhhhhhhhhhhhhhhhhhhhhhhhhhhhhhhhhhhhhhhhhhhh**ppppppaaaaeeaaggaaaarr$$$$oooo$$$$hhhhhhhhhh3355@@hh@@112255iigghhhhhhhhhhhhhhhhhh",
"hhhhhhhhhhhhhhhhhhhhhhhhhhhhhhhhhhhhhh**ssssppaauuuuggggaaeeee**%%%%oooooo222222++$$##$$$$3355@@hhhh111155iiiihhhhhhhhhhhhhhhhhh",
"hhhhhhhhhhhhhhhhhhhhhhhhhhhhhhhhhhhhhh**ssssppaauuuuggggaaeeee**%%%%oooooo222222++$$##$$$$3355@@hhhh111155iiiihhhhhhhhhhhhhhhhhh",
"hhhhhhhhhhhhhhhhhhhhhhhhhhhhhhhhhhhhttdddd5533uuuuggggddiiffiiiiss5544443322111111@@##@@@@3355@@hhhhhh11iiiirrhhhhhhhhhhhhhhhhhh",
"hhhhhhhhhhhhhhhhhhhhhhhhhhhhhhhhhhhhttdddd5533uuuuggggddiiffiiiiss5544443322111111@@##@@@@3355@@hhhhhh11iiiirrhhhhhhhhhhhhhhhhhh",
"hhhhhhhhhhhhhhhhhhhhhhhhhhhhhhhhhh**ffggdd5533ffffggddiiiiggiiff333355444433221111@@OO22333355@@hhhhhh11iiiihhhhhhhhhhhhhhhhhhhh",
"hhhhhhhhhhhhhhhhhhhhhhhhhhhhhhhhhh**ffggdd5533ffffggddiiiiggiiff333355444433221111@@OO22333355@@hhhhhh11iiiihhhhhhhhhhhhhhhhhhhh",
"hhhhhhhhhhhhhhhhhhhhhhhhhhhhhhhhhhttddff5533ffaappggiiiigggg99ss2233554444332211@@@@OO11113355@@@@hhhh55iiiihhhhhhhhhhhhhhhhhhhh",
"hhhhhhhhhhhhhhhhhhhhhhhhhhhhhhhhhhttddff5533ffaappggiiiigggg99ss2233554444332211@@@@OO11113355@@@@hhhh55iiiihhhhhhhhhhhhhhhhhhhh",
"hhhhhhhhhhhhhhhhhhhhhhhhhhhhhhhhhhttddii33ffgg>>ppppppppgggg99aa2233554444332211@@++OO&&&&3355@@@@hhhhrriirrhhhhhhhhhhhhhhhhhhhh",
"hhhhhhhhhhhhhhhhhhhhhhhhhhhhhhhhhhttddii33ffgg>>ppppppppgggg99aa2233554444332211@@++OO&&&&3355@@@@hhhhrriirrhhhhhhhhhhhhhhhhhhhh",
"hhhhhhhhhhhhhhhhhhhhhhhhhhhhhhhhhh66ff66ffgg,,>>::**pppptttttttttt33334444332211@@++OO%%%%3355@@@@hhhhrriihhhhhhhhhhhhhhhhhhhhhh",
"hhhhhhhhhhhhhhhhhhhhhhhhhhhhhhhhhh66ff66ffgg,,>>::**pppptttttttttt33334444332211@@++OO%%%%3355@@@@hhhhrriihhhhhhhhhhhhhhhhhhhhhh",
"hhhhhhhhhhhhhhhhhhhhhhhhhhhhhhtt66ff66ffgg<<,,>>::;;----****eeeeww++333333332211++ooOOOOOO3355@@++hhhhiirrhhhhhhhhhhhhhhhhhhhhhh",
"hhhhhhhhhhhhhhhhhhhhhhhhhhhhhhtt66ff66ffgg<<,,>>::;;----****eeeeww++333333332211++ooOOOOOO3355@@++hhhhiirrhhhhhhhhhhhhhhhhhhhhhh",
"hhhhhhhhhhhhhhhhhhhhhhhhhhhhhhhhhh**$$ffyy<<,,>>::;;----======eeww++@@1111@@@@++++XXOO++++3355@@++++hhhhhhhhhhhhhhhhhhhhhhhhhhhh",
"hhhhhhhhhhhhhhhhhhhhhhhhhhhhhhhhhh**$$ffyy<<,,>>::;;----======eeww++@@1111@@@@++++XXOO++++3355@@++++hhhhhhhhhhhhhhhhhhhhhhhhhhhh",
"hhhhhhhhhhhhhhhhhhhhhhhhhhhhhhhhhhrrwwffyy<<,,>>::;;----======eewwooooOOOOOOOOOOoo..OO11333355@@++hhhhhhhhhhhhhhhhhhhhhhhhhhhhhh",
"hhhhhhhhhhhhhhhhhhhhhhhhhhhhhhhhhhrrwwffyy<<,,>>::;;----======eewwooooOOOOOOOOOOoo..OO11333355@@++hhhhhhhhhhhhhhhhhhhhhhhhhhhhhh",
"hhhhhhhhhhhhhhhhhhhhhhhhhhhhhhhhhhrriiffyy<<,,>>::;;----======eewwOOOO++OOOOXXXX..  OO11333355@@++hhhhhhhhhhhhhhhhhhhhhhhhhhhhhh",
"hhhhhhhhhhhhhhhhhhhhhhhhhhhhhhhhhhrriiffyy<<,,>>::;;----======eewwOOOO++OOOOXXXX..  OO11333355@@++hhhhhhhhhhhhhhhhhhhhhhhhhhhhhh",
"hhhhhhhhhhhhhhhhhhhhhhhhhhhhhhhhhhrriiffyy<<,,>>::;;----======eewwOO++11@@OO##oo..hh@@11333355@@++hhhhhhhhhhhhhhhhhhhhhhhhhhhhhh",
"hhhhhhhhhhhhhhhhhhhhhhhhhhhhhhhhhhrriiffyy<<,,>>::;;----======eewwOO++11@@OO##oo..hh@@11333355@@++hhhhhhhhhhhhhhhhhhhhhhhhhhhhhh",
"hhhhhhhhhhhhhhhhhhhhhhhhhhhhhhhhhhiiiiffyy<<,,>>::;;----======eewwoo++11@@++##ooOOhh@@11113355@@11++hhhhhhhhhhhhhhhhhhhhhhhhhhhh",
"hhhhhhhhhhhhhhhhhhhhhhhhhhhhhhhhhhiiiiffyy<<,,>>::;;----======eewwoo++11@@++##ooOOhh@@11113355@@11++hhhhhhhhhhhhhhhhhhhhhhhhhhhh",
"hhhhhhhhhhhhhhhhhhhhhhhhhhhhhhhhiiii33aayy<<,,>>::;;----======eewwoo++11@@++##ooOOhh113355qqqq@@@@++hhhhhhhhhhhhhhhhhhhhhhhhhhhh",
"hhhhhhhhhhhhhhhhhhhhhhhhhhhhhhhhiiii33aayy<<,,>>::;;----======eewwoo++11@@++##ooOOhh113355qqqq@@@@++hhhhhhhhhhhhhhhhhhhhhhhhhhhh",
"hhhhhhhhhhhhhhhhhhhhhhhhhhhhhhiiii33iiaayy<<,,>>::;;----======eewwXX++@@++++##OOhhhhhh33iiii3322@@OO++hhhhhhhhhhhhhhhhhhhhhhhhhh",
"hhhhhhhhhhhhhhhhhhhhhhhhhhhhhhiiii33iiaayy<<,,>>::;;----======eewwXX++@@++++##OOhhhhhh33iiii3322@@OO++hhhhhhhhhhhhhhhhhhhhhhhhhh",
"hhhhhhhhhhhhhhhhhhhhhhhhhhhhhhiirr2266aayy<<,,>>::;;----======eewwXX++++++++$$OOhhhhhh33qqqq2222@@OO++hhhhhhhhhhhhhhhhhhhhhhhhhh",
"hhhhhhhhhhhhhhhhhhhhhhhhhhhhhhiirr2266aayy<<,,>>::;;----======eewwXX++++++++$$OOhhhhhh33qqqq2222@@OO++hhhhhhhhhhhhhhhhhhhhhhhhhh",
"hhhhhhhhhhhhhhhhhhhhhhhhhhhhhhaarr2222aayy<<,,>>::;;----======eewwOO@@22221111$$OOhhhh33iiqq3322@@OO++hhhhhhhhhhhhhhhhhhhhhhhhhh",
"hhhhhhhhhhhhhhhhhhhhhhhhhhhhhhaarr2222aayy<<,,>>::;;----======eewwOO@@22221111$$OOhhhh33iiqq3322@@OO++hhhhhhhhhhhhhhhhhhhhhhhhhh",
"hhhhhhhhhhhhhhhhhhhhhhhhhhhhhhaarr++wwaayy<<,,>>::;;----======eewwOO@@33332211@@++OOhhhhiiqq3322@@OO++hhhhhhhhhhhhhhhhhhhhhhhhhh",
"hhhhhhhhhhhhhhhhhhhhhhhhhhhhhhaarr++wwaayy<<,,>>::;;----======eewwOO@@33332211@@++OOhhhhiiqq3322@@OO++hhhhhhhhhhhhhhhhhhhhhhhhhh",
"hhhhhhhhhhhhhhhhhhhhhhhhhhhhhhhh****++aayy<<,,>>::;;----======eeww++@@33333322@@++OOhhhh333333OOOO++hhhhhhhhhhhhhhhhhhhhhhhhhhhh",
"hhhhhhhhhhhhhhhhhhhhhhhhhhhhhhhh****++aayy<<,,>>::;;----======eeww++@@33333322@@++OOhhhh333333OOOO++hhhhhhhhhhhhhhhhhhhhhhhhhhhh",
"hhhhhhhhhhhhhhhhhhhhhhhhhhhhhhhhhh****aayy<<,,>>::;;----======eeww@@@@@@@@++++OOOOhhhhhh@@@@@@@@11hhhhhhhhhhhhhhhhhhhhhhhhhhhhhh",
"hhhhhhhhhhhhhhhhhhhhhhhhhhhhhhhhhh****aayy<<,,>>::;;----======eeww@@@@@@@@++++OOOOhhhhhh@@@@@@@@11hhhhhhhhhhhhhhhhhhhhhhhhhhhhhh",
"hhhhhhhhhhhhhhhhhhhhhhhhhhhhhhhhhhhhhhaayy<<,,>>::;;----======eewwXXXXOOOOOOOOOOoohhhhhhhh11@@@@hhhhhhhhhhhhhhhhhhhhhhhhhhhhhhhh",
"hhhhhhhhhhhhhhhhhhhhhhhhhhhhhhhhhhhhhhaayy<<,,>>::;;----======eewwXXXXOOOOOOOOOOoohhhhhhhh11@@@@hhhhhhhhhhhhhhhhhhhhhhhhhhhhhhhh",
"hhhhhhhhhhhhhhhhhhhhhhhhhhhhhhhhhhhhhhhhaa<<,,>>::;;----======eewwXXoo##++++++OOoohhhhhhhh3322@@hhhhhhhhhhhhhhhhhhhhhhhhhhhhhhhh",
"hhhhhhhhhhhhhhhhhhhhhhhhhhhhhhhhhhhhhhhhaa<<,,>>::;;----======eewwXXoo##++++++OOoohhhhhhhh3322@@hhhhhhhhhhhhhhhhhhhhhhhhhhhhhhhh",
"hhhhhhhhhhhhhhhhhhhhhhhhhhhhhhhhhhhhhhhhaa<<,,>>::;;----====**ww..oo++@@@@%%++OOoohhhhhhhh3355@@hhhhhhhhhhhhhhhhhhhhhhhhhhhhhhhh",
"hhhhhhhhhhhhhhhhhhhhhhhhhhhhhhhhhhhhhhhhaa<<,,>>::;;----====**ww..oo++@@@@%%++OOoohhhhhhhh3355@@hhhhhhhhhhhhhhhhhhhhhhhhhhhhhhhh",
"hhhhhhhhhhhhhhhhhhhhhhhhhhhhhhhhhhhhhhhhaayy,,>>::;;----====rrww..##@@11@@%%++OOoohhhhhhhh3355@@hhhhhhhhhhhhhhhhhhhhhhhhhhhhhhhh",
"hhhhhhhhhhhhhhhhhhhhhhhhhhhhhhhhhhhhhhhhaayy,,>>::;;----====rrww..##@@11@@%%++OOoohhhhhhhh3355@@hhhhhhhhhhhhhhhhhhhhhhhhhhhhhhhh",
"hhhhhhhhhhhhhhhhhhhhhhhhhhhhhhhhhhhhhhhhhhaa,,>>::;;----==**wwXXOO##@@11@@%%++OOoohhhhhhhh4444@@hhhhhhhhhhhhhhhhhhhhhhhhhhhhhhhh",
"hhhhhhhhhhhhhhhhhhhhhhhhhhhhhhhhhhhhhhhhhhaa,,>>::;;----==**wwXXOO##@@11@@%%++OOoohhhhhhhh4444@@hhhhhhhhhhhhhhhhhhhhhhhhhhhhhhhh",
"hhhhhhhhhhhhhhhhhhhhhhhhhhhhhhhhhhhhhhhhhhhhaa>>::;;----**ww++XXOO##@@11@@%%++OOoohhhhhhhh4444@@hhhhhhhhhhhhhhhhhhhhhhhhhhhhhhhh",
"hhhhhhhhhhhhhhhhhhhhhhhhhhhhhhhhhhhhhhhhhhhhaa>>::;;----**ww++XXOO##@@11@@%%++OOoohhhhhhhh4444@@hhhhhhhhhhhhhhhhhhhhhhhhhhhhhhhh",
"hhhhhhhhhhhhhhhhhhhhhhhhhhhhhhhhhhhhhhhhhhhhhhaa::;;--rrww@@++XXOO++@@11@@%%++OOoohhhhhhhh4433++hhhhhhhhhhhhhhhhhhhhhhhhhhhhhhhh",
"hhhhhhhhhhhhhhhhhhhhhhhhhhhhhhhhhhhhhhhhhhhhhhaa::;;--rrww@@++XXOO++@@11@@%%++OOoohhhhhhhh4433++hhhhhhhhhhhhhhhhhhhhhhhhhhhhhhhh",
"hhhhhhhhhhhhhhhhhhhhhhhhhhhhhhhhhhhhhhhhhhhhhhhhtttttt@@@@@@++XXOO++@@11@@%%++OOoohhhhhhhh4433++hhhhhhhhhhhhhhhhhhhhhhhhhhhhhhhh",
"hhhhhhhhhhhhhhhhhhhhhhhhhhhhhhhhhhhhhhhhhhhhhhhhtttttt@@@@@@++XXOO++@@11@@%%++OOoohhhhhhhh4433++hhhhhhhhhhhhhhhhhhhhhhhhhhhhhhhh",
"hhhhhhhhhhhhhhhhhhhhhhhhhhhhhhhhhhhhhhhhhhhhhhhh55443322@@@@++OOOO++@@111122++OOoohhhhhhhh4422++hhhhhhhhhhhhhhhhhhhhhhhhhhhhhhhh",
"hhhhhhhhhhhhhhhhhhhhhhhhhhhhhhhhhhhhhhhhhhhhhhhh55443322@@@@++OOOO++@@111122++OOoohhhhhhhh4422++hhhhhhhhhhhhhhhhhhhhhhhhhhhhhhhh",
"hhhhhhhhhhhhhhhhhhhhhhhhhhhhhhhhhhhhhhhhhhhhhhhhiiii442211@@++OOOO++@@112244@@++oohhhhhhhh3322++hhhhhhhhhhhhhhhhhhhhhhhhhhhhhhhh",
"hhhhhhhhhhhhhhhhhhhhhhhhhhhhhhhhhhhhhhhhhhhhhhhhiiii442211@@++OOOO++@@112244@@++oohhhhhhhh3322++hhhhhhhhhhhhhhhhhhhhhhhhhhhhhhhh",
"hhhhhhhhhhhhhhhhhhhhhhhhhhhhhhhhhhhhhhhhhhhhhhhhii77552211@@@@OOoo@@1133334422++OOOOhhhhhh3311OOhhhhhhhhhhhhhhhhhhhhhhhhhhhhhhhh",
"hhhhhhhhhhhhhhhhhhhhhhhhhhhhhhhhhhhhhhhhhhhhhhhhii77552211@@@@OOoo@@1133334422++OOOOhhhhhh3311OOhhhhhhhhhhhhhhhhhhhhhhhhhhhhhhhh",
"hhhhhhhhhhhhhhhhhhhhhhhhhhhhhhhhhhhhhhhhhhhhhhii775544221111@@++oo113333445522@@++OOhhhhhh3311OOhhhhhhhhhhhhhhhhhhhhhhhhhhhhhhhh",
"hhhhhhhhhhhhhhhhhhhhhhhhhhhhhhhhhhhhhhhhhhhhhhii775544221111@@++oo113333445522@@++OOhhhhhh3311OOhhhhhhhhhhhhhhhhhhhhhhhhhhhhhhhh",
"hhhhhhhhhhhhhhhhhhhhhhhhhhhhhhhhhhhhhhhhhhhhhh33111111111111@@++oo++@@@@@@++++++OOOOhhhh33qqqq33@@hhhhhhhhhhhhhhhhhhhhhhhhhhhhhh",
"hhhhhhhhhhhhhhhhhhhhhhhhhhhhhhhhhhhhhhhhhhhhhh33111111111111@@++oo++@@@@@@++++++OOOOhhhh33qqqq33@@hhhhhhhhhhhhhhhhhhhhhhhhhhhhhh",
"hhhhhhhhhhhhhhhhhhhhhhhhhhhhhhhhhhhhhhhhhhhhhhhh33@@@@++++++OOOO..OOOOOOOOOOOOOOOOhhhhhh33555533@@hhhhhhhhhhhhhhhhhhhhhhhhhhhhhh",
"hhhhhhhhhhhhhhhhhhhhhhhhhhhhhhhhhhhhhhhhhhhhhhhh33@@@@++++++OOOO..OOOOOOOOOOOOOOOOhhhhhh33555533@@hhhhhhhhhhhhhhhhhhhhhhhhhhhhhh",
"hhhhhhhhhhhhhhhhhhhhhhhhhhhhhhhhhhhhhhhhhhhhhhhhhh44331111@@@@++..112222@@@@@@++hhhhhhhhhh3311OOhhhhhhhhhhhhhhhhhhhhhhhhhhhhhhhh",
"hhhhhhhhhhhhhhhhhhhhhhhhhhhhhhhhhhhhhhhhhhhhhhhhhh44331111@@@@++..112222@@@@@@++hhhhhhhhhh3311OOhhhhhhhhhhhhhhhhhhhhhhhhhhhhhhhh",
"hhhhhhhhhhhhhhhhhhhhhhhhhhhhhhhhhhhhhhhhhhhhhhhhhh440044331111++..22444433@@@@++hhhhhhhh33qq5533@@hhhhhhhhhhhhhhhhhhhhhhhhhhhhhh",
"hhhhhhhhhhhhhhhhhhhhhhhhhhhhhhhhhhhhhhhhhhhhhhhhhh440044331111++..22444433@@@@++hhhhhhhh33qq5533@@hhhhhhhhhhhhhhhhhhhhhhhhhhhhhh",
"hhhhhhhhhhhhhhhhhhhhhhhhhhhhhhhhhhhhhhhhhhhhhhhhhh4400gg441111++..225544qq@@@@++hhhhhhhh33555533@@hhhhhhhhhhhhhhhhhhhhhhhhhhhhhh",
"hhhhhhhhhhhhhhhhhhhhhhhhhhhhhhhhhhhhhhhhhhhhhhhhhh4400gg441111++..225544qq@@@@++hhhhhhhh33555533@@hhhhhhhhhhhhhhhhhhhhhhhhhhhhhh",
"hhhhhhhhhhhhhhhhhhhhhhhhhhhhhhhhhhhhhhhhhhhhhhhhhh4400gg5511@@++..22444466@@++hhhhhhhhhhhh3311OOhhhhhhhhhhhhhhhhhhhhhhhhhhhhhhhh",
"hhhhhhhhhhhhhhhhhhhhhhhhhhhhhhhhhhhhhhhhhhhhhhhhhh4400gg5511@@++..22444466@@++hhhhhhhhhhhh3311OOhhhhhhhhhhhhhhhhhhhhhhhhhhhhhhhh",
"hhhhhhhhhhhhhhhhhhhhhhhhhhhhhhhhhhhhhhhhhhhhhhhhhh3344gguu11@@++..1177ii11@@++hhhhhhhhhh33qq5533@@hhhhhhhhhhhhhhhhhhhhhhhhhhhhhh",
"hhhhhhhhhhhhhhhhhhhhhhhhhhhhhhhhhhhhhhhhhhhhhhhhhh3344gguu11@@++..1177ii11@@++hhhhhhhhhh33qq5533@@hhhhhhhhhhhhhhhhhhhhhhhhhhhhhh",
"hhhhhhhhhhhhhhhhhhhhhhhhhhhhhhhhhhhhhhhhhhhhhhhhhhhh44445511@@++..11111133@@++hhhhhhhhhh33555533@@hhhhhhhhhhhhhhhhhhhhhhhhhhhhhh",
"hhhhhhhhhhhhhhhhhhhhhhhhhhhhhhhhhhhhhhhhhhhhhhhhhhhh44445511@@++..11111133@@++hhhhhhhhhh33555533@@hhhhhhhhhhhhhhhhhhhhhhhhhhhhhh",
"hhhhhhhhhhhhhhhhhhhhhhhhhhhhhhhhhhhhhhhhhhhhhhhhhhhh444422@@@@OOXX11334411++OOhhhhhhhhhhhh3311OOhhhhhhhhhhhhhhhhhhhhhhhhhhhhhhhh",
"hhhhhhhhhhhhhhhhhhhhhhhhhhhhhhhhhhhhhhhhhhhhhhhhhhhh444422@@@@OOXX11334411++OOhhhhhhhhhhhh3311OOhhhhhhhhhhhhhhhhhhhhhhhhhhhhhhhh",
"hhhhhhhhhhhhhhhhhhhhhhhhhhhhhhhhhhhhhhhhhhhhhhhhhhhh337744@@++OOXX11111122++hhhhhhhhhhhh33qq5533@@hhhhhhhhhhhhhhhhhhhhhhhhhhhhhh",
"hhhhhhhhhhhhhhhhhhhhhhhhhhhhhhhhhhhhhhhhhhhhhhhhhhhh337744@@++OOXX11111122++hhhhhhhhhhhh33qq5533@@hhhhhhhhhhhhhhhhhhhhhhhhhhhhhh",
"hhhhhhhhhhhhhhhhhhhhhhhhhhhhhhhhhhhhhhhhhhhhhhhhhhhhhh5544@@++OOXX@@334411++hhhhhhhhhhhh33555533@@hhhhhhhhhhhhhhhhhhhhhhhhhhhhhh",
"hhhhhhhhhhhhhhhhhhhhhhhhhhhhhhhhhhhhhhhhhhhhhhhhhhhhhh5544@@++OOXX@@334411++hhhhhhhhhhhh33555533@@hhhhhhhhhhhhhhhhhhhhhhhhhhhhhh",
"hhhhhhhhhhhhhhhhhhhhhhhhhhhhhhhhhhhhhhhhhhhhhhhhhhhh4411++OOOOOOXX@@11@@@@@@++hhhhhhhhhhhh3311OOhhhhhhhhhhhhhhhhhhhhhhhhhhhhhhhh",
"hhhhhhhhhhhhhhhhhhhhhhhhhhhhhhhhhhhhhhhhhhhhhhhhhhhh4411++OOOOOOXX@@11@@@@@@++hhhhhhhhhhhh3311OOhhhhhhhhhhhhhhhhhhhhhhhhhhhhhhhh",
"hhhhhhhhhhhhhhhhhhhhhhhhhhhhhhhhhhhhhhhhhhhhhhhhhhgg00441111@@OOXX@@2255552222++hhhhhhhh33qq5533@@hhhhhhhhhhhhhhhhhhhhhhhhhhhhhh",
"hhhhhhhhhhhhhhhhhhhhhhhhhhhhhhhhhhhhhhhhhhhhhhhhhhgg00441111@@OOXX@@2255552222++hhhhhhhh33qq5533@@hhhhhhhhhhhhhhhhhhhhhhhhhhhhhh",
"hhhhhhhhhhhhhhhhhhhhhhhhhhhhhhhhhhhhhhhhhhhhhhhhgg00004422@@@@OOXX++3355ii003322++$$$$$$33555533@@$$%%%%%%hhhhhhhhhhhhhhhhhhhhhh",
"hhhhhhhhhhhhhhhhhhhhhhhhhhhhhhhhhhhhhhhhhhhhhhhhgg00004422@@@@OOXX++3355ii003322++$$$$$$33555533@@$$%%%%%%hhhhhhhhhhhhhhhhhhhhhh",
"hhhhhhhhhhhhhhhhhhhhhhhhhhhhhhhhhhhhhhhhhhhhhh00gg00443322@@++OOXX++334400ii004422++XXXXXX3311OOXXoooo####$$$$$$$$%%%%%%%%hhhhhh",
"hhhhhhhhhhhhhhhhhhhhhhhhhhhhhhhhhhhhhhhhhhhhhh00gg00443322@@++OOXX++334400ii004422++XXXXXX3311OOXXoooo####$$$$$$$$%%%%%%%%hhhhhh",
"hhhhhhhhhhhhhhhhhhhhhhhhhhhhhhhhhhhhhhhhhhhh00gg00443322@@++OO  XXXX@@@@4455ii0044@@        33@@....XXXXoooooo########$$$$%%%%hh",
"hhhhhhhhhhhhhhhhhhhhhhhhhhhhhhhhhhhhhhhhhhhh00gg00443322@@++OO  XXXX@@@@4455ii0044@@        33@@....XXXXoooooo########$$$$%%%%hh",
"hhhhhhhhhhhhhhhhhhhhhhhhhhhhhhhhhhhhhhhhhhhh44442222@@@@OO  XXXX$$%%%%$$XX@@@@@@@@@@oooooooooooooooooooooo######$$$$%%%%%%%%%%hh",
"hhhhhhhhhhhhhhhhhhhhhhhhhhhhhhhhhhhhhhhhhhhh44442222@@@@OO  XXXX$$%%%%$$XX@@@@@@@@@@oooooooooooooooooooooo######$$$$%%%%%%%%%%hh"
};
