/* XPM */
static char *_556199783959[] = {
/* columns rows colors chars-per-pixel */
"128 128 40 1 ",
"  c black",
". c #382C14",
"X c #202020",
"o c gray22",
"O c #403018",
"+ c #483818",
"@ c #543C1C",
"# c #5C4020",
"$ c #6C4824",
"% c #744C28",
"& c #484848",
"* c gray33",
"= c #646464",
"- c gray44",
"; c #880000",
": c #FC0000",
"> c #9C4C00",
", c #B45400",
"< c #80502C",
"1 c #885830",
"2 c #905C34",
"3 c #9C6038",
"4 c #A0643C",
"5 c #CC6000",
"6 c #E46C00",
"7 c #FC7800",
"8 c #A86840",
"9 c #B47044",
"0 c #BC7848",
"q c #FC5C5C",
"w c #C87C4C",
"e c #FC8820",
"r c #FC9840",
"t c #FCA85C",
"y c gray55",
"u c #989898",
"i c #D0D0D0",
"p c gainsboro",
"a c #ECECEC",
"s c None",
/* pixels */
"ssssssssssssssssssssssssssssssssssssssssssssssssssssssssssssssssssssssssssssssssssssssssssssssssssssssssssssssssssssssssssssssss",
"ssssssssssssssssssssssssssssssssssssssssssssssssssssssssssssssssssssssssssssssssssssssssssssssssssssssssssssssssssssssssssssssss",
"ssssssssssssssssssssssssssssssssssssssssssssssssssssssssssssssssssssssssssssssssssssssssssssssssssssssssssssssssssssssssssssssss",
"ssssssssssssssssssssssssssssssssssssssssssssssssssssssssssssssssssssssssssssssssssssssssssssssssssssssssssssssssssssssssssssssss",
"ssssssssssssssssssssssssssssssssssssssssssssssssssssssssssssssssssssssssssssssssssssssssssssssssssssssssssssssssssssssssssssssss",
"ssssssssssssssssssssssssssssssssssssssssssssssssssssssssssssssssssssssssssssssssssssssssssssssssssssssssssssssssssssssssssssssss",
"ssssssssssssssssssssssssssssssssssssssssssssssssssssssssssssssssssssssssssssssssssssssssssssssssssssssssssssssssssssssssssssssss",
"ssssssssssssssssssssssssssssssssssssssssssssssssssssssssssssssssssssssssssssssssssssssssssssssssssssssssssssssssssssssssssssssss",
"ssssssssssssssssssssssssssssssssssssssssssssssssssssssssssssssssssssssssssssssssssssssssssssssssssssssssssssssssssssssssssssssss",
"ssssssssssssssssssssssssssssssssssssssssssssssssssssssssssssssssssssssssssssssssssssssssssssssssssssssssssssssssssssssssssssssss",
"ssssssssssssssssssssssssssssssssssssssssssssssssssssssssssssssssssssssssssssssssssssssssssssssssssssssssssssssssssssssssssssssss",
"ssssssssssssssssssssssssssssssssssssssssssssssssssssssssssssssssssssssssssssssssssssssssssssssssssssssssssssssssssssssssssssssss",
"ssssssssssssssssssssssssssssssssssssssssssssssssssssssssssssssssssssssssssssssssssssssssssssssssssssssssssssssssssssssssssssssss",
"ssssssssssssssssssssssssssssssssssssssssssssssssssssssssssssssssssssssssssssssssssssssssssssssssssssssssssssssssssssssssssssssss",
"ssssssssssssssssssssssssssssssssssssssssssssssssssssssssssssssssssssssssssssssssssssssssssssssssssssssssssssssssssssssssssssssss",
"ssssssssssssssssssssssssssssssssssssssssssssssssssssssssssssssssssssssssssssssssssssssssssssssssssssssssssssssssssssssssssssssss",
"ssssssssssssssssssssssssssssssssssssssssssssssssssssssssssssssssssssssssssssssssssssssssssssssssssssssssssssssssssssssssssssssss",
"ssssssssssssssssssssssssssssssssssssssssssssssssssssssssssssssssssssssssssssssssssssssssssssssssssssssssssssssssssssssssssssssss",
"ssssssssssssssssssssssssssssssssssssssssssssssssssssssssssssssssssssssssssssssssssssssssssssssssssssssssssssssssssssssssssssssss",
"ssssssssssssssssssssssssssssssssssssssssssssssssssssssssssssssssssssssssssssssssssssssssssssssssssssssssssssssssssssssssssssssss",
"ssssssssssssssssssssssssssssssssssssssssssssssssssssssssssssssssssssssssssssssssssssssssssssssssssssssssssssssssssssssssssssssss",
"ssssssssssssssssssssssssssssssssssssssssssssssssssssssssssssssssssssssssssssssssssssssssssssssssssssssssssssssssssssssssssssssss",
"ssssssssssssssssssssssssssssssssssssssssssssssssssssssssssssssssssssssssssssssssssssssssssssssssssssssssssssssssssssssssssssssss",
"ssssssssssssssssssssssssssssssssssssssssssssssssssssssssssssssssssssssssssssssssssssssssssssssssssssssssssssssssssssssssssssssss",
"ssssssssssssssssssssssssssssssssssssssssssssssssssssssssssssssssssssssssssssssssssssssssssssssssssssssssssssssssssssssssssssssss",
"ssssssssssssssssssssssssssssssssssssssssssssssssssssssssssssssssssssssssssssssssssssssssssssssssssssssssssssssssssssssssssssssss",
"ssssssssssssssssssssssssssssssssssssssssssssssssssssssssssssssssssssssssssssssssssssssssssssssssssssssssssssssssssssssssssssssss",
"ssssssssssssssssssssssssssssssssssssssssssssssssssssssssssssssssssssssssssssssssssssssssssssssssssssssssssssssssssssssssssssssss",
"ssssssssssssssssssssssssssssssssssssssssssssssssssssssssssssssssssssssssssssssssssssssssssssssssssssssssssssssssssssssssssssssss",
"ssssssssssssssssssssssssssssssssssssssssssssssssssssssssssssssssssssssssssssssssssssssssssssssssssssssssssssssssssssssssssssssss",
"ssssssssssssssssssssssssssssssssssssssssssssssssssssssssssssssssssssssssssssssssssssssssssssssssssssssssssssssssssssssssssssssss",
"ssssssssssssssssssssssssssssssssssssssssssssssssssssssssssssssssssssssssssssssssssssssssssssssssssssssssssssssssssssssssssssssss",
"ssssssssssssssssssssssssssssssssssssssssssssssssssssssssssssssssssssssssssssssssssssssssssssssssssssssssssssssssssssssssssssssss",
"ssssssssssssssssssssssssssssssssssssssssssssssssssssssssssssssssssssssssssssssssssssssssssssssssssssssssssssssssssssssssssssssss",
"ssssssssssssssssssssssssssssssssssssssssssssssssssssssssssssssssssssssssssssssssssssssssssssssssssssssssssssssssssssssssssssssss",
"ssssssssssssssssssssssssssssssssssssssssssssssssssssssssssssssssssssssssssssssssssssssssssssssssssssssssssssssssssssssssssssssss",
"ssssssssssssssssssssssssssssssssssssssssssssssssssssssssssssssssssssssssssssssssssssssssssssssssssssssssssssssssssssssssssssssss",
"ssssssssssssssssssssssssssssssssssssssssssssssssssssssssssssssssssssssssssssssssssssssssssssssssssssssssssssssssssssssssssssssss",
"ssssssssssssssssssssssssssssssssssssssssssssssssssssssssssssssssssssssssssssssssssssssssssssssssssssssssssssssssssssssssssssssss",
"ssssssssssssssssssssssssssssssssssssssssssssssssssssssssssssssssssssssssssssssssssssssssssssssssssssssssssssssssssssssssssssssss",
"ssssssssssssssssssssssssssssssssssssssssssssssssssssssssssssssssssssssssssssssssssssssssssssssssssssssssssssssssssssssssssssssss",
"ssssssssssssssssssssssssssssssssssssssssssssssssssssssssssssssssssssssssssssssssssssssssssssssssssssssssssssssssssssssssssssssss",
"ssssssssssssssssssssssssssssssssssssssssssssssssssssssssssssssssssssssssssssssssssssssssssssssssssssssssssssssssssssssssssssssss",
"ssssssssssssssssssssssssssssssssssssssssssssssssssssssssssssssssssssssssssssssssssssssssssssssssssssssssssssssssssssssssssssssss",
"ssssssssssssssssssssssssssssssssssssssssssssssssssssssssssssssssssssssssssssssssssssssssssssssssssssssssssssssssssssssssssssssss",
"ssssssssssssssssssssssssssssssssssssssssssssssssssssssssssssssssssssssssssssssssssssssssssssssssssssssssssssssssssssssssssssssss",
"ssssssssssssssssssssssssssssssssssssssssssssssssssssssssssssssssssssssssssssssssssssssssssssssssssssssssssssssssssssssssssssssss",
"ssssssssssssssssssssssssssssssssssssssssssssssssssssssssssssssssssssssssssssssssssssssssssssssssssssssssssssssssssssssssssssssss",
"ssssssssssssssssssssssssssssssssssssssssssssssssssssssssssssssssssssssssssssssssssssssssssssssssssssssssssssssssssssssssssssssss",
"ssssssssssssssssssssssssssssssssssssssssssssssssssssssssssssssssssssssssssssssssssssssssssssssssssssssssssssssssssssssssssssssss",
"ssssssssssssssssssssssssssssssssssssssssssssssssssssssssssssssssssssssssssssssssssssssssssssssssssssssssssssssssssssssssssssssss",
"ssssssssssssssssssssssssssssssssssssssssssssssssssssssssssssssssssssssssssssssssssssssssssssssssssssssssssssssssssssssssssssssss",
"ssssssssssssssssssssssssssssssssssssssssssssssssssssssssssssssssssssssssssssssssssssssssssssssssssssssssssssssssssssssssssssssss",
"ssssssssssssssssssssssssssssssssssssssssssssssssssssssssssssssssssssssssssssssssssssssssssssssssssssssssssssssssssssssssssssssss",
"ssssssssssssssssssssssssssssssssssssssssssssssssssssssssssssssssssssssssssssssssssssssssssssssssssssssssssssssssssssssssssssssss",
"ssssssssssssssssssssssssssssssssssssssssssssssssssssssssssssssssssssssssssssssssssssssssssssssssssssssssssssssssssssssssssssssss",
"ssssssssssssssssssssssssssssssssssssssssssssssssssssssssssssssssssssssssssssssssssssssssssssssssssssssssssssssssssssssssssssssss",
"ssssssssssssssssssssssssssssssssssssssssssssssssssssssssssssssssssssssssssssssssssssssssssssssssssssssssssssssssssssssssssssssss",
"ssssssssssssssssssssssssssssssssssssssssssssssssssssssssssssssssssssssssssssssssssssssssssssssssssssssssssssssssssssssssssssssss",
"ssssssssssssssssssssssssssssssssssssssssssssssssssssssssssssssssssssssssssssssssssssssssssssssssssssssssssssssssssssssssssssssss",
"ssssssssssssssssssssssssssssssssssssssssssssssssssssssssssssssssssssssssssssssssssssssssssssssssssssssssssssssssssssssssssssssss",
"ssssssssssssssssssssssssssssssssssssssssssssssssssssssssssssssssssssssssssssssssssssssssssssssssssssssssssssssssssssssssssssssss",
"ssssssssssssssssssssssssssssssssssssssssssssssssssssssssssssss::ssssss::ssssssssssssssssssssssssssssssssssssssssssssssssssssssss",
"ssssssssssssssssssssssssssssssssssssssssssssssssssssssssssssss::ssssss::ssssssssssssssssssssssssssssssssssssssssssssssssssssssss",
"ssssssssssssssssssssssssssssssssssssssssssssssssssssssssssssss::ssssss::ssssssssssssssssssssssssssssssssssssssssssssssssssssssss",
"ssssssssssssssssssssssssssssssssssssssssssssssssssssssssssssss::ssssss::ssssssssssssssssssssssssssssssssssssssssssssssssssssssss",
"ssssssssssssssss6655ssssssssssssss6655ssssssssssssssssssssssss::ssssss::ssssssssssssss66>>ssssssssssssss66>>ssssssssssssssssssss",
"ssssssssssssssss6655ssssssssssssss6655ssssssssssssssssssssssss::ssssss::ssssssssssssss66>>ssssssssssssss66>>ssssssssssssssssssss",
"ssssssssssssssss66>>ssssssssssssss66>>ssssssssssssssssssssssss::::ssqq;;ssssssssssssss66>>ssssssssssssss66>>ssssssssssssssssssss",
"ssssssssssssssss66>>ssssssssssssss66>>ssssssssssssssssssssssss::::ssqq;;ssssssssssssss66>>ssssssssssssss66>>ssssssssssssssssssss",
"ssssssssssssssss66>>,,,,,,,,,,,,,,55>>ssssssssssssssssssssssss::;;ssqq;;ssssssssssssss66>>,,66666666666666>>ssssssssssssssssssss",
"ssssssssssssssss66>>,,,,,,,,,,,,,,55>>ssssssssssssssssssssssss::;;ssqq;;ssssssssssssss66>>,,66666666666666>>ssssssssssssssssssss",
"ssssssssssssssss66>>>>>>>>>>>>>>>>,,>>ssssssssssssssssssssssss::aappyy;;ssssssssssssss66>>>>55555555555566>>ssssssssssssssssssss",
"ssssssssssssssss66>>>>>>>>>>>>>>>>,,>>ssssssssssssssssssssssss::aappyy;;ssssssssssssss66>>>>55555555555566>>ssssssssssssssssssss",
"ssssssssssssssss66>>ssssssssssssss,,>>ssssssssssssssssssssssssiiiiyy&&&&ssssssssssssss66>>ssssssssssssss66>>ssssssssssssssssssss",
"ssssssssssssssss66>>ssssssssssssss,,>>ssssssssssssssssssssssssiiiiyy&&&&ssssssssssssss66>>ssssssssssssss66>>ssssssssssssssssssss",
"ssssssssssssssss66>>ssssssssssss6677777777777777777777777777iiaauuyy**&&--77777777777777777777777777776666>>ssssssssssssssssssss",
"ssssssssssssssss66>>ssssssssssss6677777777777777777777777777iiaauuyy**&&--77777777777777777777777777776666>>ssssssssssssssssssss",
"ssssssssssssssss66>>ssss77eerrrrrrrrrrrrrrrrrrrrrrrrrrrrrrrrrrrrrrrrrrrrrrrrrrrrrrrrrrrrrrrrrrrrrrrrrrrree7766>>ssssssssssssssss",
"ssssssssssssssss66>>ssss77eerrrrrrrrrrrrrrrrrrrrrrrrrrrrrrrrrrrrrrrrrrrrrrrrrrrrrrrrrrrrrrrrrrrrrrrrrrrree7766>>ssssssssssssssss",
"ssssssssssssssss66>>ssss,,666677eerrttttttttttttttttttttttttttttttttttttttttttttttttttttttttttttrr776655,,,,>>%%ssssssssssssssss",
"ssssssssssssssss66>>ssss,,666677eerrttttttttttttttttttttttttttttttttttttttttttttttttttttttttttttrr776655,,,,>>%%ssssssssssssssss",
"ssssssssssssssss66>>ssssssss555555555555,,,,,,,,,,>>>>>>>>>>>>>>>>>>>>>>>>>>>>>>>>>>>>>>>>>>>>>>>>>>>>>>>>@@ssssssssssssssssssss",
"ssssssssssssssss66>>ssssssss555555555555,,,,,,,,,,>>>>>>>>>>>>>>>>>>>>>>>>>>>>>>>>>>>>>>>>>>>>>>>>>>>>>>>>@@ssssssssssssssssssss",
"ssssssssssssssss66>>ssssssssssssss66>>>>>>>>>>>>>>>>>>>>>>>>>>>>>>>>>>>>>>>>>>>>>>>>>>>>>>>>>>>>>>ssssss%%@@ssssssssssssssssssss",
"ssssssssssssssss66>>ssssssssssssss66>>>>>>>>>>>>>>>>>>>>>>>>>>>>>>>>>>>>>>>>>>>>>>>>>>>>>>>>>>>>>>ssssss%%@@ssssssssssssssssssss",
"ssssssssssssssss66>>,,,,,,,,,,,,,,55>>ssssssssssssssssssssssOO$$++++++....ssssssssssss%%@@%%%%%%%%%%%%%%%%@@ssssssssssssssssssss",
"ssssssssssssssss66>>,,,,,,,,,,,,,,55>>ssssssssssssssssssssssOO$$++++++....ssssssssssss%%@@%%%%%%%%%%%%%%%%@@ssssssssssssssssssss",
"ssssssssssssssss66>>>>>>>>>>>>>>>>,,>>ssssssssssssssssssssssss%%%%%%@@@@ssssssssssssss%%@@%%%%%%%%%%%%%%%%@@ssssssssssssssssssss",
"ssssssssssssssss66>>>>>>>>>>>>>>>>,,>>ssssssssssssssssssssssss%%%%%%@@@@ssssssssssssss%%@@%%%%%%%%%%%%%%%%@@ssssssssssssssssssss",
"ssssssssssssssss66>>ssssssssssssss,,>>ssssssssssssssssssssssssss####OOssssssssssssssss%%@@ssssssssssssss%%@@ssssssssssssssssssss",
"ssssssssssssssss66>>ssssssssssssss,,>>ssssssssssssssssssssssssss####OOssssssssssssssss%%@@ssssssssssssss%%@@ssssssssssssssssssss",
"ssssssssssssssss66>>ssssssssssssss55>>ssssssssssssssssssssssssss11##OOssssssssssssssss%%@@ssssssssssssss%%@@ssssssssssssssssssss",
"ssssssssssssssss66>>ssssssssssssss55>>ssssssssssssssssssssssssss11##OOssssssssssssssss%%@@ssssssssssssss%%@@ssssssssssssssssssss",
"ssssssssssssssss66>>ssssssssssssss66>>ssssssssssssssssssssssssss11##OOssssssssssssssss%%@@ssssssssssssss%%@@ssssssssssssssssssss",
"ssssssssssssssss66>>ssssssssssssss66>>ssssssssssssssssssssssssss11##OOssssssssssssssss%%@@ssssssssssssss%%@@ssssssssssssssssssss",
"ssssssssssssssss66666666666666666666666655555555ssssssssssssssss11##OOssss,,,,,,,,222222222222222222222222@@ssssssssssssssssssss",
"ssssssssssssssss66666666666666666666666655555555ssssssssssssssss11##OOssss,,,,,,,,222222222222222222222222@@ssssssssssssssssssss",
"ssssssssssssssss6666666666666655,,,,,,,,,,,,,,,,,,ssssssssssssss44##OOss665555,,,,,,,,,,,,22222222222222%%@@ssssssssssssssssssss",
"ssssssssssssssss6666666666666655,,,,,,,,,,,,,,,,,,ssssssssssssss44##OOss665555,,,,,,,,,,,,22222222222222%%@@ssssssssssssssssssss",
"ssssssssssssssss6655,,,,,,,,66$$$$$$$$$$$$$$$$$$$$ssssssssssssss44%%OOss66>>>>>>>>>>>>>>>>>>%%%%%%%%%%%%%%@@ssssssssssssssssssss",
"ssssssssssssssss6655,,,,,,,,66$$$$$$$$$$$$$$$$$$$$ssssssssssssss44%%OOss66>>>>>>>>>>>>>>>>>>%%%%%%%%%%%%%%@@ssssssssssssssssssss",
"ssssssssssssssss6655$$ssssss66$$ss11++ssssssss>>$$ssssssssssssss44%%OOss66>>ssssssssss11@@>>%%ssssssss>>%%@@ssssssssssssssssssss",
"ssssssssssssssss6655$$ssssss66$$ss11++ssssssss>>$$ssssssssssssss44%%OOss66>>ssssssssss11@@>>%%ssssssss>>%%@@ssssssssssssssssssss",
"ssssssssssssssss66,,$$ssssss66$$ss11++ssssssss>>$$ssssssssssssss99%%++ss66>>ssssssssss11@@>>%%ssssssss>>%%@@ssssssssssssssssssss",
"ssssssssssssssss66,,$$ssssss66$$ss11++ssssssss>>$$ssssssssssssss99%%++ss66>>ssssssssss11@@>>%%ssssssss>>%%@@ssssssssssssssssssss",
"ssssssssssssssss66,,$$ssssss66$$ss11++ssssssss>>$$ssssssssssssss99%%++ss66>>ssssssssss11@@>>%%ssssssss>>%%@@ssssssssssssssssssss",
"ssssssssssssssss66,,$$ssssss66$$ss11++ssssssss>>$$ssssssssssssss99%%++ss66>>ssssssssss11@@>>%%ssssssss>>%%@@ssssssssssssssssssss",
"ssssssssssssssss66,,$$ssssss66$$ss11++ssssssss>>$$ssssssssssssss99%%++ss66>>ssssssssss11@@>>%%ssssssss>>%%@@ssssssssssssssssssss",
"ssssssssssssssss66,,$$ssssss66$$ss11++ssssssss>>$$ssssssssssssss99%%++ss66>>ssssssssss11@@>>%%ssssssss>>%%@@ssssssssssssssssssss",
"ssssssssssssss5566>>$$ssssss66$$ss11++ssssssss>>$$ssssssssssssss99%%++ss66>>ssssssssss11@@>>%%ssssssss,,%%@@33ssssssssssssssssss",
"ssssssssssssss5566>>$$ssssss66$$ss11++ssssssss>>$$ssssssssssssss99%%++ss66>>ssssssssss11@@>>%%ssssssss,,%%@@33ssssssssssssssssss",
"ssssssssssssss5566666666666666$$$$$$$$$$$$$$$$$$$$ssssssssssssww0022$$##66>>>>>>>>>>>>>>>>>>%%%%%%%%%%%%%%@@33ssssssssssssssssss",
"ssssssssssssss5566666666666666$$$$$$$$$$$$$$$$$$$$ssssssssssssww0022$$##66>>>>>>>>>>>>>>>>>>%%%%%%%%%%%%%%@@33ssssssssssssssssss",
"ssssssssssssss5555$$11ssssss66$$2211++ssssssss>>$$ss33wwwwww332233$$####$$$$$$$$$$ssss11@@>>%%ssssssss,,%%@@11ssssssssssssssssss",
"ssssssssssssss5555$$11ssssss66$$2211++ssssssss>>$$ss33wwwwww332233$$####$$$$$$$$$$ssss11@@>>%%ssssssss,,%%@@11ssssssssssssssssss",
"ssssssssssssss6655$$11====**66$$2211++********>>33wwww3322<<$$$$ww88<<++##########@@@@11@@>>%%**********%%@@11**********==ssssss",
"ssssssssssssss6655$$11====**66$$2211++********>>33wwww3322<<$$$$ww88<<++##########@@@@11@@>>%%**********%%@@11**********==ssssss",
"ssssssssssssss66,,$$oooooooo66$$oooooooooooooowwww33<<$$++++++++0088<<++++++++++######@@@@>>%%oooooooooo##@@@@oooooooooo**==ssss",
"ssssssssssssss66,,$$oooooooo66$$oooooooooooooowwww33<<$$++++++++0088<<++++++++++######@@@@>>%%oooooooooo##@@@@oooooooooo**==ssss",
"ssssssssssssssssssss====****,,$$oooooooo99wwww33<<$$@@<<oooo&&&&8811$$&&&&**&&++++++######@@@@XXXXXXXXXXXXXXXXXXXXoo**====ssssss",
"ssssssssssssssssssss====****,,$$oooooooo99wwww33<<$$@@<<oooo&&&&8811$$&&&&**&&++++++######@@@@XXXXXXXXXXXXXXXXXXXXoo**====ssssss",
"ssssssssssssssssssssssssssssssssssssssss33<<OO$$@@<<****&&oooo00002211$$XXXXXXXXXX++++##OO##@@                  oo**====ssssssss",
"ssssssssssssssssssssssssssssssssssssssss33<<OO$$@@<<****&&oooo00002211$$XXXXXXXXXX++++##OO##@@                  oo**====ssssssss",
"ssssssssssssssssssssssssssssssssssssssss<<$$$$++<<XXXXXXXXXXXX33$$$$$$OOXXXXXXXXXXXX++++##@@@@XXXXXXXXXXXXXXXXXXXXoo&&**==ssssss",
"ssssssssssssssssssssssssssssssssssssssss<<$$$$++<<XXXXXXXXXXXX33$$$$$$OOXXXXXXXXXXXX++++##@@@@XXXXXXXXXXXXXXXXXXXXoo&&**==ssssss",
"ssssssssssssssssssssssssssssssssssssssssssssssssssssssssssssss<<++++++OOoooooooooooooooooooooooooooooooooooooo&&****====ssssssss",
"ssssssssssssssssssssssssssssssssssssssssssssssssssssssssssssss<<++++++OOoooooooooooooooooooooooooooooooooooooo&&****====ssssssss"
};
