/* XPM */
static char *_556199607751[] = {
/* columns rows colors chars-per-pixel */
"128 128 22 1 ",
"  c #202020",
". c #2C2C2C",
"X c gray22",
"o c #403018",
"O c #5C4020",
"+ c #744C28",
"@ c #484848",
"# c gray33",
"$ c #646464",
"% c #9C4C00",
"& c #B45400",
"* c #885830",
"= c #9C6038",
"- c #A0643C",
"; c #CC6000",
": c #E46C00",
"> c #FC7800",
", c #A86840",
"< c #FC8820",
"1 c #FC9840",
"2 c #FCA85C",
"3 c None",
/* pixels */
"3333333333333333333333333333333333333333333333333333%%%%%%%%%%%%%%%%%%%%%%333333333333333333333333333333333333333333333333333333",
"3333333333333333333333333333333333333333333333333333%%%%%%%%%%%%%%%%%%%%%%333333333333333333333333333333333333333333333333333333",
"33333333333333333333333333333333333333333333333333333333&&&&&&&&%%%%%%3333333333333333333333333333333333333333333333333333333333",
"33333333333333333333333333333333333333333333333333333333&&&&&&&&%%%%%%3333333333333333333333333333333333333333333333333333333333",
"333333333333333333333333333333333333333333333333333333333333&&::%%33333333333333333333333333333333333333333333333333333333333333",
"333333333333333333333333333333333333333333333333333333333333&&::%%33333333333333333333333333333333333333333333333333333333333333",
"333333333333333333333333333333333333333333333333333333333333&&::%%33333333333333333333333333333333333333333333333333333333333333",
"333333333333333333333333333333333333333333333333333333333333&&::%%33333333333333333333333333333333333333333333333333333333333333",
"3333333333333333333333333333333333333333333333333333333333::22>>;;%%333333333333333333333333333333333333333333333333333333333333",
"3333333333333333333333333333333333333333333333333333333333::22>>;;%%333333333333333333333333333333333333333333333333333333333333",
"3333333333333333333333333333333333333333333333333333<<<<111111::::::::::::333333333333333333333333333333333333333333333333333333",
"3333333333333333333333333333333333333333333333333333<<<<111111::::::::::::333333333333333333333333333333333333333333333333333333",
"333333333333333333333333333333333333333333333333::<<<<1111>><<>>%%>>>><<%%::::33333333333333333333333333333333333333333333333333",
"333333333333333333333333333333333333333333333333::<<<<1111>><<>>%%>>>><<%%::::33333333333333333333333333333333333333333333333333",
"3333333333333333333333333333333333333333333333::>><<1122>>%%<<>>%%%%::>>::%%&&::333333333333333333333333333333333333333333333333",
"3333333333333333333333333333333333333333333333::>><<1122>>%%<<>>%%%%::>>::%%&&::333333333333333333333333333333333333333333333333",
"33333333333333333333333333333333333333333333>>;;<<2222>>3333<<>>%%3333::>>;;%%++%%3333333333333333333333333333333333333333333333",
"33333333333333333333333333333333333333333333>>;;<<2222>>3333<<>>%%3333::>>;;%%++%%3333333333333333333333333333333333333333333333",
"333333333333333333333333333333333333333333>>;;;;2222>>333333<<>>%%333333::;;%%%%++%%33333333333333333333333333333333333333333333",
"333333333333333333333333333333333333333333>>;;;;2222>>333333<<>>%%333333::;;%%%%++%%33333333333333333333333333333333333333333333",
"333333333333333333333333333333333333333333::;;332222>>333333<<;;%%333333::;;%%33++%%33333333333333333333333333333333333333333333",
"333333333333333333333333333333333333333333::;;332222>>333333<<;;%%333333::;;%%33++%%33333333333333333333333333333333333333333333",
"3333333333333333333333333333333333333333::>>1122112222222222222222111111>>>>>>>>>>%%OO333333333333333333333333333333333333333333",
"3333333333333333333333333333333333333333::>>1122112222222222222222111111>>>>>>>>>>%%OO333333333333333333333333333333333333333333",
"3333333333333333333333333333333333333333::>>>><<<<1111111111<<<<<<<<>>>>>>::::;;&&%%OO333333333333333333333333333333333333333333",
"3333333333333333333333333333333333333333::>>>><<<<1111111111<<<<<<<<>>>>>>::::;;&&%%OO333333333333333333333333333333333333333333",
"3333333333333333333333333333333333333333::%%&&&&;;;;::::::::;;;;;;&&&&&&%%%%OOOOOOOOOO333333333333333333333333333333333333333333",
"3333333333333333333333333333333333333333::%%&&&&;;;;::::::::;;;;;;&&&&&&%%%%OOOOOOOOOO333333333333333333333333333333333333333333",
"3333333333333333333333333333333333333333::;;%%33<<::%%333333::;;%%333333%%%%++33%%++OO333333333333333333333333333333333333333333",
"3333333333333333333333333333333333333333::;;%%33<<::%%333333::;;%%333333%%%%++33%%++OO333333333333333333333333333333333333333333",
"3333333333333333333333333333333333333333::>>%%331111%%333333::::%%333333;;%%++33%%++OO333333333333333333333333333333333333333333",
"3333333333333333333333333333333333333333::>>%%331111%%333333::::%%333333;;%%++33%%++OO333333333333333333333333333333333333333333",
"3333333333333333333333333333333333333333::>>%%331111%%333333::>>%%333333;;%%++33%%++OO333333333333333333333333333333333333333333",
"3333333333333333333333333333333333333333::>>%%331111%%333333::>>%%333333;;%%++33%%++OO333333333333333333333333333333333333333333",
"3333333333333333333333333333333333333333::>>%%331122%%333333::>>%%333333;;%%++33%%++OO333333333333333333333333333333333333333333",
"3333333333333333333333333333333333333333::>>%%331122%%333333::>>%%333333;;%%++33%%++OO333333333333333333333333333333333333333333",
"3333333333333333333333333333333333333333::>>%%331122%%333333::>>%%333333;;%%++33%%++OO333333333333333333333333333333333333333333",
"3333333333333333333333333333333333333333::>>%%331122%%333333::>>%%333333;;%%++33%%++OO333333333333333333333333333333333333333333",
"3333333333333333333333333333333333333333::>>%%331122%%333333::>>%%333333;;%%++33%%++OO333333333333333333333333333333333333333333",
"3333333333333333333333333333333333333333::>>%%331122%%333333::>>%%333333;;%%++33%%++OO333333333333333333333333333333333333333333",
"3333333333333333333333333333333333333333::>>%%331122%%333333::>>%%333333;;%%++33%%++OO333333333333333333333333333333333333333333",
"3333333333333333333333333333333333333333::>>%%331122%%333333::>>%%333333;;%%++33%%++OO333333333333333333333333333333333333333333",
"3333333333333333333333333333333333333333::>>%%331122%%333333::>>%%333333;;%%++33%%++OO333333333333333333333333333333333333333333",
"3333333333333333333333333333333333333333::>>%%331122%%333333::>>%%333333;;%%++33%%++OO333333333333333333333333333333333333333333",
"3333333333333333333333333333333333333333::>>%%331122%%333333::>>%%333333;;%%++33%%++OO333333333333333333333333333333333333333333",
"3333333333333333333333333333333333333333::>>%%331122%%333333::>>%%333333;;%%++33%%++OO333333333333333333333333333333333333333333",
"3333333333333333333333333333333333333333::>>%%331122%%333333::>>%%333333;;%%++33%%++OO333333333333333333333333333333333333333333",
"3333333333333333333333333333333333333333::>>%%331122%%333333::>>%%333333;;%%++33%%++OO333333333333333333333333333333333333333333",
"3333333333333333333333333333333333333333::>>%%331122%%333333::>>%%333333;;%%++33%%++OO333333333333333333333333333333333333333333",
"3333333333333333333333333333333333333333::>>%%331122%%333333::>>%%333333;;%%++33%%++OO333333333333333333333333333333333333333333",
"3333333333333333333333333333333333333333::>>%%331111%%333333::>>%%333333;;%%++33%%++OO333333333333333333333333333333333333333333",
"3333333333333333333333333333333333333333::>>%%331111%%333333::>>%%333333;;%%++33%%++OO333333333333333333333333333333333333333333",
"3333333333333333333333333333333333333333::>>%%331111%%333333::>>%%333333;;%%++33%%++OO333333333333333333333333333333333333333333",
"3333333333333333333333333333333333333333::>>%%331111%%333333::>>%%333333;;%%++33%%++OO333333333333333333333333333333333333333333",
"333333333333333333333333333333333333333311<<;;3311>>%%333333::;;%%333333;;%%++33**++OO333333333333333333333333333333333333333333",
"333333333333333333333333333333333333333311<<;;3311>>%%333333::;;%%333333;;%%++33**++OO333333333333333333333333333333333333333333",
"3333333333333333333333333333333333333333<<1111222222222222222222111111>>>>>>====++++OO333333333333333333333333333333333333333333",
"3333333333333333333333333333333333333333<<1111222222222222222222111111>>>>>>====++++OO333333333333333333333333333333333333333333",
"3333333333333333333333333333333333333333<<<<<<<<11111111111111<<<<>>>>>>>>;;;;**OOOOOO333333333333333333333333333333333333333333",
"3333333333333333333333333333333333333333<<<<<<<<11111111111111<<<<>>>>>>>>;;;;**OOOOOO333333333333333333333333333333333333333333",
"3333333333333333333333333333333333333333::;;;;;;::::::::::;;&&&&++++++OOOOOOOOOO%%++OO333333333333333333333333333333333333333333",
"3333333333333333333333333333333333333333::;;;;;;::::::::::;;&&&&++++++OOOOOOOOOO%%++OO333333333333333333333333333333333333333333",
"3333333333333333333333333333333333333333::>>%%33<<::%%333333>>;;%%333333%%%%++33%%++OO333333333333333333333333333333333333333333",
"3333333333333333333333333333333333333333::>>%%33<<::%%333333>>;;%%333333%%%%++33%%++OO333333333333333333333333333333333333333333",
"3333333333333333333333333333333333333333::>>%%331111%%333333<<>>%%333333::%%++33&&++OO333333333333333333333333333333333333333333",
"3333333333333333333333333333333333333333::>>%%331111%%333333<<>>%%333333::%%++33&&++OO333333333333333333333333333333333333333333",
"3333333333333333333333333333333333333333::>>%%331122%%333333<<>>%%333333::%%++33&&++OO333333333333333333333333333333333333333333",
"3333333333333333333333333333333333333333::>>%%331122%%333333<<>>%%333333::%%++33&&++OO333333333333333333333333333333333333333333",
"3333333333333333333333333333333333333333::>>%%331122%%333333<<>>%%333333::%%++33&&++OO333333333333333333333333333333333333333333",
"3333333333333333333333333333333333333333::>>%%331122%%333333<<>>%%333333::%%++33&&++OO333333333333333333333333333333333333333333",
"3333333333333333333333333333333333333333::>>%%331122%%333333<<>>%%333333::%%++33&&++OO333333333333333333333333333333333333333333",
"3333333333333333333333333333333333333333::>>%%331122%%333333<<>>%%333333::%%++33&&++OO333333333333333333333333333333333333333333",
"3333333333333333333333333333333333333333::>>%%331122%%333333<<>>%%333333::%%++33&&++OO333333333333333333333333333333333333333333",
"3333333333333333333333333333333333333333::>>%%331122%%333333<<>>%%333333::%%++33&&++OO333333333333333333333333333333333333333333",
"3333333333333333333333333333333333333333::>>%%331122%%333333<<>>%%333333::%%++33&&++OO333333333333333333333333333333333333333333",
"3333333333333333333333333333333333333333::>>%%331122%%333333<<>>%%333333::%%++33&&++OO333333333333333333333333333333333333333333",
"3333333333333333333333333333333333333333::>>%%331122%%333333<<>>%%333333::%%++33&&++OO333333333333333333333333333333333333333333",
"3333333333333333333333333333333333333333::>>%%331122%%333333<<>>%%333333::%%++33&&++OO333333333333333333333333333333333333333333",
"3333333333333333333333333333333333333333::>>%%331122%%333333<<>>%%333333::%%++33&&++OO333333333333333333333333333333333333333333",
"3333333333333333333333333333333333333333::>>%%331122%%333333<<>>%%333333::%%++33&&++OO333333333333333333333333333333333333333333",
"3333333333333333333333333333333333333333::>>%%331111%%<<<<<<<<>>%%<<<<<<::%%++33&&++OO333333333333333333333333333333333333333333",
"3333333333333333333333333333333333333333::>>%%331111%%<<<<<<<<>>%%<<<<<<::%%++33&&++OO333333333333333333333333333333333333333333",
"3333333333333333333333333333333333333333::;;%%::1111%%::::::<<>>%%::::::::%%++<<&&++OO333333333333333333333333333333333333333333",
"3333333333333333333333333333333333333333::;;%%::1111%%::::::<<>>%%::::::::%%++<<&&++OO333333333333333333333333333333333333333333",
"3333333333333333333333333333333333333333<<<<1111<<11%%;;;;;;<<::%%;;;;;;::%%++>>;;==OO333333333333333333333333333333333333333333",
"3333333333333333333333333333333333333333<<<<1111<<11%%;;;;;;<<::%%;;;;;;::%%++>>;;==OO333333333333333333333333333333333333333333",
"3333333333333333333333333333333333333333::>><<22222222222222221111<<<<<<<<>>>>**++++OO333333333333333333333333333333333333333333",
"3333333333333333333333333333333333333333::>><<22222222222222221111<<<<<<<<>>>>**++++OO333333333333333333333333333333333333333333",
"3333333333333333333333333333333333333333::>><<<<11112222221111<<<<<<>>;;;;;;==**++++OO333333333333333333333333333333333333333333",
"3333333333333333333333333333333333333333::>><<<<11112222221111<<<<<<>>;;;;;;==**++++OO333333333333333333333333333333333333333333",
"333333333333333333333333333333333333333333,,,,1111112222221111<<<<<<>>;;;;;;==++oooo33333333333333333333333333333333333333333333",
"333333333333333333333333333333333333333333,,,,1111112222221111<<<<<<>>;;;;;;==++oooo33333333333333333333333333333333333333333333",
"3333333333333333333333333333333333333333333333----******++++++++++oooooooooooooo333333333333333333333333333333333333333333333333",
"3333333333333333333333333333333333333333333333----******++++++++++oooooooooooooo333333333333333333333333333333333333333333333333",
"33333333333333333333333333333333333333333333333333333333333333333333333333333333333333333333333333333333333333333333333333333333",
"33333333333333333333333333333333333333333333333333333333333333333333333333333333333333333333333333333333333333333333333333333333",
"33333333333333333333333333333333333333333333333333333333333333333333333333333333333333333333333333333333333333333333333333333333",
"33333333333333333333333333333333333333333333333333333333333333333333333333333333333333333333333333333333333333333333333333333333",
"33333333333333333333333333333333333333333333333333333333333333333333333333333333333333333333333333333333333333333333333333333333",
"33333333333333333333333333333333333333333333333333333333333333333333333333333333333333333333333333333333333333333333333333333333",
"33333333333333333333333333333333333333333333333333333333333333333333333333333333333333333333333333333333333333333333333333333333",
"33333333333333333333333333333333333333333333333333333333333333333333333333333333333333333333333333333333333333333333333333333333",
"33333333333333333333333333333333333333333333333333333333333333333333333333333333333333333333333333333333333333333333333333333333",
"33333333333333333333333333333333333333333333333333333333333333333333333333333333333333333333333333333333333333333333333333333333",
"33333333333333333333333333333333333333333333333333333333333333333333333333333333333333333333333333333333333333333333333333333333",
"33333333333333333333333333333333333333333333333333333333333333333333333333333333333333333333333333333333333333333333333333333333",
"33333333333333333333333333333333333333333333333333333333333333333333333333333333333333333333333333333333333333333333333333333333",
"33333333333333333333333333333333333333333333333333333333333333333333333333333333333333333333333333333333333333333333333333333333",
"33333333333333333333333333333333333333333333333333333333333333333333333333333333333333333333333333333333333333333333333333333333",
"33333333333333333333333333333333333333333333333333333333333333333333333333333333333333333333333333333333333333333333333333333333",
"33333333333333333333333333333333333333333333333333333333333333333333333333333333333333333333333333333333333333333333333333333333",
"33333333333333333333333333333333333333333333333333333333333333333333333333333333333333333333333333333333333333333333333333333333",
"33333333333333333333333333333333333333333333333333333333333333333333333333333333333333333333333333333333333333333333333333333333",
"33333333333333333333333333333333333333333333333333333333333333333333333333333333333333333333333333333333333333333333333333333333",
"33333333333333333333333333333333333333333333333333333333333333333333333333333333333333333333333333333333333333333333333333333333",
"33333333333333333333333333333333333333333333333333333333333333333333333333333333333333333333333333333333333333333333333333333333",
"33333333333333333333333333333333333333333333333333333333333333333333333333333333333333333333333333333333333333333333333333333333",
"33333333333333333333333333333333333333333333333333333333333333333333333333333333333333333333333333333333333333333333333333333333",
"33333333333333333333333333333333333333333333333333333333333333333333333333333333333333333333333333333333333333333333333333333333",
"33333333333333333333333333333333333333333333333333333333333333333333333333333333333333333333333333333333333333333333333333333333",
"33333333333333333333333333333333333333333333333333$$$$$$$$################################$$$$$$$$333333333333333333333333333333",
"33333333333333333333333333333333333333333333333333$$$$$$$$################################$$$$$$$$333333333333333333333333333333",
"3333333333333333333333333333333333333333333333$$$$####@@@@XXXXXXXXXXXXXXXXXXXXXXXXXXXXXXXXXX@@##$$$$3333333333333333333333333333",
"3333333333333333333333333333333333333333333333$$$$####@@@@XXXXXXXXXXXXXXXXXXXXXXXXXXXXXXXXXX@@##$$$$3333333333333333333333333333",
"333333333333333333333333333333333333333333$$$$####@@XXXXXXXX....                    ..XX@@@@##$$$$$$3333333333333333333333333333",
"333333333333333333333333333333333333333333$$$$####@@XXXXXXXX....                    ..XX@@@@##$$$$$$3333333333333333333333333333",
"3333333333333333333333333333333333333333333333$$####@@@@@@XXXXXXXXXXXXXXXXXXXXXXXX@@@@####$$$$$$33333333333333333333333333333333",
"3333333333333333333333333333333333333333333333$$####@@@@@@XXXXXXXXXXXXXXXXXXXXXXXX@@@@####$$$$$$33333333333333333333333333333333"
};
