/* XPM */
static char *b36da953ef5c40c5c3eae178fc783c4d[] = {
/* columns rows colors chars-per-pixel */
"128 128 26 1 ",
"  c black",
". c #202020",
"X c #2C2C2C",
"o c gray22",
"O c #484848",
"+ c gray33",
"@ c #646464",
"# c gray44",
"$ c #7C7C7C",
"% c #000098",
"& c #0000B0",
"* c #0000EC",
"= c #0000FC",
"- c #4040FC",
"; c #5C60FC",
": c gray55",
"> c #989898",
", c gray66",
"< c #B4B4B4",
"1 c #9C9CFC",
"2 c #C0C0C0",
"3 c #D0D0D0",
"4 c gainsboro",
"5 c #ECECEC",
"6 c gray99",
"7 c None",
/* pixels */
"77777777777777777777777777777777777777777777777777777777777777777777777777777777777777777777777777777777777777777777777777777777",
"77777777777777777777777777777777777777777777777777777777777777777777777777777777777777777777777777777777777777777777777777777777",
"77777777777777777777777777777777777777777777777777777777777777777777777777777777777777777777777777777777777777777777777777777777",
"77777777777777777777777777777777777777777777777777777777777777777777777777777777777777777777777777777777777777777777777777777777",
"77777777777777777777777777777777777777777777777777777777777777777777777777777777777777777777777777777777777777777777777777777777",
"77777777777777777777777777777777777777777777777777777777777777777777777777777777777777777777777777777777777777777777777777777777",
"77777777777777777777777777777777777777777777777777777777777777777777777777777777777777777777777777777777777777777777777777777777",
"77777777777777777777777777777777777777777777777777777777777777777777777777777777777777777777777777777777777777777777777777777777",
"77777777777777777777777777777777777777777777777777777777777777777777777777777777777777777777777777777777777777777777777777777777",
"77777777777777777777777777777777777777777777777777777777777777777777777777777777777777777777777777777777777777777777777777777777",
"77777777777777777777777777777777777777777777777777777777777777777777777777777777777777777777777777777777777777777777777777777777",
"77777777777777777777777777777777777777777777777777777777777777777777777777777777777777777777777777777777777777777777777777777777",
"77777777777777777777777777777777777777777777777777777777777777777777777777777777777777777777777777777777777777777777777777777777",
"77777777777777777777777777777777777777777777777777777777777777777777777777777777777777777777777777777777777777777777777777777777",
"77777777777777777777777777777777777777777777777777777777777777777777777777777777777777777777777777777777777777777777777777777777",
"77777777777777777777777777777777777777777777777777777777777777777777777777777777777777777777777777777777777777777777777777777777",
"77777777777777777777777777777777777777777777777777777777777777777777777777777777777777777777777777777777777777777777777777777777",
"77777777777777777777777777777777777777777777777777777777777777777777777777777777777777777777777777777777777777777777777777777777",
"77777777777777777777777777777777777777777777777777777777777777777777777777777777777777777777777777777777777777777777777777777777",
"77777777777777777777777777777777777777777777777777777777777777777777777777777777777777777777777777777777777777777777777777777777",
"77777777777777777777777777777777777777777777777777777777777777777777777777777777777777777777777777777777777777777777777777777777",
"77777777777777777777777777777777777777777777777777777777777777777777777777777777777777777777777777777777777777777777777777777777",
"77777777777777777777777777777777777777777777777777777777777777777777777777777777777777777777777777777777777777777777777777777777",
"77777777777777777777777777777777777777777777777777777777777777777777777777777777777777777777777777777777777777777777777777777777",
"77777777777777777777777777777777777777777777777777777777777777777777777777777777777777777777777777777777777777777777777777777777",
"77777777777777777777777777777777777777777777777777777777777777777777777777777777777777777777777777777777777777777777777777777777",
"77777777777777777777777777777777777777777777777777777777777777777777777777777777777777777777777777777777777777777777777777777777",
"77777777777777777777777777777777777777777777777777777777777777777777777777777777777777777777777777777777777777777777777777777777",
"77777777777777777777777777777777777777777777777777777777777777777777777777777777777777777777777777777777777777777777777777777777",
"77777777777777777777777777777777777777777777777777777777777777777777777777777777777777777777777777777777777777777777777777777777",
"77777777777777777777777777777777777777777777777777777777777777777777777777777777777777777777777777777777777777777777777777777777",
"77777777777777777777777777777777777777777777777777777777777777777777777777777777777777777777777777777777777777777777777777777777",
"77777777777777777777777777777777777777777777777777777777777777777777777777777777777777777777777777777777777777777777777777777777",
"77777777777777777777777777777777777777777777777777777777777777777777777777777777777777777777777777777777777777777777777777777777",
"77777777777777777777777777777777777777777777777777777777777777777777777777777777777777777777777777777777777777777777777777777777",
"77777777777777777777777777777777777777777777777777777777777777777777777777777777777777777777777777777777777777777777777777777777",
"77777777777777777777777777777777777777777777777777777777777777777777777777777777777777777777777777777777777777777777777777777777",
"77777777777777777777777777777777777777777777777777777777777777777777777777777777777777777777777777777777777777777777777777777777",
"77777777777777777777777777777777777777777777777777777777777777777777777777777777777777777777777777777777777777777777777777777777",
"77777777777777777777777777777777777777777777777777777777777777777777777777777777777777777777777777777777777777777777777777777777",
"77777777777777777777777777777777777777777777777777777777777777777777777777777777777777777777777777777777777777777777777777777777",
"77777777777777777777777777777777777777777777777777777777777777777777777777777777777777777777777777777777777777777777777777777777",
"77777777777777777777777777777777777777777777777777777777777777777777777777777777777777777777777777777777777777777777777777777777",
"77777777777777777777777777777777777777777777777777777777777777777777777777777777777777777777777777777777777777777777777777777777",
"77777777777777777777777777777777777777777777777777777777777777777777777777777777777777777777777777777777777777777777777777777777",
"77777777777777777777777777777777777777777777777777777777777777777777777777777777777777777777777777777777777777777777777777777777",
"77777777777777777777777777777777777777777777777777777777777777777777777777777777777777777777777777777777777777777777777777777777",
"77777777777777777777777777777777777777777777777777777777777777777777777777777777777777777777777777777777777777777777777777777777",
"77777777777777777777777777777777777777777777777777777777777777777777777777777777777777777777777777777777777777777777777777777777",
"77777777777777777777777777777777777777777777777777777777777777777777777777777777777777777777777777777777777777777777777777777777",
"77777777777777777777777777777777777777777777777777777777777777777777777777777777777777777777777777777777777777777777777777777777",
"77777777777777777777777777777777777777777777777777777777777777777777777777777777777777777777777777777777777777777777777777777777",
"77777777777777777777777777777777777777777777777777777777777777777777777777777777777777777777777777777777777777777777777777777777",
"77777777777777777777777777777777777777777777777777777777777777777777777777777777777777777777777777777777777777777777777777777777",
"77777777777777777777777777777777777777777777777777777777777777777777777777777777777777777777777777777777777777777777777777777777",
"77777777777777777777777777777777777777777777777777777777777777777777777777777777777777777777777777777777777777777777777777777777",
"77777777777777777777777777777777777777777777777777777777777777777777777777777777777777777777777777777777777777777777777777777777",
"77777777777777777777777777777777777777777777777777777777777777777777777777777777777777777777777777777777777777777777777777777777",
"77777777777777777777777777777777777777777777777777777777777777777777777777777777777777777777777777777777777777777777777777777777",
"77777777777777777777777777777777777777777777777777777777777777777777777777777777777777777777777777777777777777777777777777777777",
"77777777777777777777777777777777777777777777777777777777777777777777777777777777777777777777777777777777777777777777777777777777",
"77777777777777777777777777777777777777777777777777777777777777777777777777777777777777777777777777777777777777777777777777777777",
"77777777777777777777777777777777777777777777777777777777777777777777777777777777777777777777777777777777777777777777777777777777",
"77777777777777777777777777777777777777777777777777777777777777777777777777777777777777777777777777777777777777777777777777777777",
"77777777777777777777777777777777777777777777777777777777777777777777777777777777777777777777777777777777777777777777777777777777",
"77777777777777777777777777777777777777777777777777777777777777777777777777777777777777777777777777777777777777777777777777777777",
"77777777777777777777777777777777777777777777777777777777777777777777777777777777777777777777777777777777777777777777777777777777",
"77777777777777777777777777777777777777777777777777777777777777777777777777777777777777777777777777777777777777777777777777777777",
"77777777777777777777777777777777777777777777777777777777777777777777777777777777777777777777777777777777777777777777777777777777",
"77777777777777777777777777777777777777777777777777777777777777777777777777777777777777777777777777777777777777777777777777777777",
"77777777777777777777777777777777777777777777777777777777777777777777777777777777777777777777777777777777777777777777777777777777",
"77777777777777777777777777777777777777777777777777777777777777777777777777777777777777777777777777777777777777777777777777777777",
"77777777777777777777777777777777777777777777777777777777777777777777777777777777777777777777777777777777777777777777777777777777",
"77777777777777777777777777777777777777777777777777777777777777777777777777777777777777777777777777777777777777777777777777777777",
"77777777777777777777777777777777777777777777777777777777777777777777777777777777777777777777777777777777777777777777777777777777",
"77777777777777777777777777777777777777777777777777777777777777777777777777777777777777777777777777777777777777777777777777777777",
"77777777777777777777777777777777777777777777777777777777777777777777777777777777777777777777777777777777777777777777777777777777",
"77777777777777777777777777777777777777777777777777777777777777777777777777777777777777777777777777777777777777777777777777777777",
"77777777777777777777777777777777777777,,333333333377,,3333777733333333333333,,,,777777777777777777777777777777777777777777777777",
"77777777777777777777777777777777777777,,333333333377,,3333777733333333333333,,,,777777777777777777777777777777777777777777777777",
"7777777777777777777777774444444444$$33555555333333$$553333$$33555555555533333333$$3333333377777777777777777777777777777777777777",
"7777777777777777777777774444444444$$33555555333333$$553333$$33555555555533333333$$3333333377777777777777777777777777777777777777",
"77777777777777777777<<4444663333,,++>>>>>>>>>>$$$$++$$$$$$++$$$$$$>>>>>>>>,,,,,,++$$,,,,333322>>77777777777777777777777777777777",
"77777777777777777777<<4444663333,,++>>>>>>>>>>$$$$++$$$$$$++$$$$$$>>>>>>>>,,,,,,++$$,,,,333322>>77777777777777777777777777777777",
"777777777777777777<<,,,,,,::>>##++oo++OOOOoooooooo..oooooo..ooooOOOOOO++@@@@@@@@oo@@$$$$$$,,,,,,,,##7777777777777777777777777777",
"777777777777777777<<,,,,,,::>>##++oo++OOOOoooooooo..oooooo..ooooOOOOOO++@@@@@@@@oo@@$$$$$$,,,,,,,,##7777777777777777777777777777",
"777777777777777777<<445533::##OOoo..oooooo%%%%%%%%%%%%%%%%%%%%%%%%%%%%%%%%%%%%oo..oo@@@@++$$,,4422>>##77777777777777777777777777",
"777777777777777777<<445533::##OOoo..oooooo%%%%%%%%%%%%%%%%%%%%%%%%%%%%%%%%%%%%oo..oo@@@@++$$,,4422>>##77777777777777777777777777",
"777777777777777777>>44555533::%%%%%%==;;;;;;--****&&;;--**&&--;;;;;;;;;;------**&&%%%%%%oo@@########OO77777777777777777777777777",
"777777777777777777>>44555533::%%%%%%==;;;;;;--****&&;;--**&&--;;;;;;;;;;------**&&%%%%%%oo@@########OO77777777777777777777777777",
"777777777777777777$$<<445566<<::333333::11;;;;----******************----;;;;11,,,,,,,,$$,,33>>,,oo##OO77777777777777777777777777",
"777777777777777777$$<<445566<<::333333::11;;;;----******************----;;;;11,,,,,,,,$$,,33>>,,oo##OO77777777777777777777777777",
"77777777777777777777##<<3333<<@@66663322>>3333333333,,,,>>33444444444444,,$$44666644,,$$33>>##@@ooOO7777777777777777777777777777",
"77777777777777777777##<<3333<<@@66663322>>3333333333,,,,>>33444444444444,,$$44666644,,$$33>>##@@ooOO7777777777777777777777777777",
"7777777777777777773333##>>>>::++66,,,,,,##666622222222,,$$66555533333333,,$$33,,$$##$$OO####++OO  ++OO77777777777777777777777777",
"7777777777777777773333##>>>>::++66,,,,,,##666622222222,,$$66555533333333,,$$33,,$$##$$OO####++OO  ++OO77777777777777777777777777",
"7777777777777777773366,,##$$$$$$$$$$$$$$############++++$$33,,,,,,,,,,,,$$OO######OOOO++XXXXXXXXOO++OO77777777777777777777777777",
"7777777777777777773366,,##$$$$$$$$$$$$$$############++++$$33,,,,,,,,,,,,$$OO######OOOO++XXXXXXXXOO++OO77777777777777777777777777",
"7777777777777777773333##66666644,,##,,6633,,>>##@@$$$$$$$$$$$$$$######@@@@ooOOOOOO++>><<::##@@XXOO++oo77777777777777777777777777",
"7777777777777777773333##66666644,,##,,6633,,>>##@@$$$$$$$$$$$$$$######@@@@ooOOOOOO++>><<::##@@XXOO++oo77777777777777777777777777",
"77777777777777777777,,##66443333,,##66333333333333>>@@>>443333<<,,,,,,::::$$$$##++oo<<::::##@@XX++ooXX77777777777777777777777777",
"77777777777777777777,,##66443333,,##66333333333333>>@@>>443333<<,,,,,,::::$$$$##++oo<<::::##@@XX++ooXX77777777777777777777777777",
"777777777777777777,,66++33333333,,++66,,,,,,,,,,,,,,##$$4455,,,,::::::::$$$$$$@@++oo<<::$$##++XXOOOO7777777777777777777777777777",
"777777777777777777,,66++33333333,,++66,,,,,,,,,,,,,,##$$4455,,,,::::::::$$$$$$@@++oo<<::$$##++XXOOOO7777777777777777777777777777",
"777777777777777777,,3366##,,,,,,##++++######$$$$$$##@@oo++>>$$$$$$$$######@@@@++++XX::$$@@OOXXooOOXXXX77777777777777777777777777",
"777777777777777777,,3366##,,,,,,##++++######$$$$$$##@@oo++>>$$$$$$$$######@@@@++++XX::$$@@OOXXooOOXXXX77777777777777777777777777",
"777777777777777777##,,333333####++++++oo++++oooooooooooo++++OOOOOOOOOOXXXXXXXXXXXXXXXXXXXXXXooOO++XXXX77777777777777777777777777",
"777777777777777777##,,333333####++++++oo++++oooooooooooo++++OOOOOOOOOOXXXXXXXXXXXXXXXXXXXXXXooOO++XXXX77777777777777777777777777",
"77777777777777777777####,,33OO66664444,,::##++$$++,,,,,,,,,,,,,,,,++@@>><<,,<<<<,,,,##@@++OOXXOO++XXoo77777777777777777777777777",
"77777777777777777777####,,33OO66664444,,::##++$$++,,,,,,,,,,,,,,,,++@@>><<,,<<<<,,,,##@@++OOXXOO++XXoo77777777777777777777777777",
"7777777777777777774444<<++##$$6644,,,,,,,,##>><<$$,,333333333333,,$$oo<<,,,,>>::::$$##@@++OOXX++++ooXX77777777777777777777777777",
"7777777777777777774444<<++##$$6644,,,,,,,,##>><<$$,,333333333333,,$$oo<<,,,,>>::::$$##@@++OOXX++++ooXX77777777777777777777777777",
"777777777777777777445566>>OO$$::::::,,,,::++3333$$33,,,,,,,,,,,,$$++oo<<<<::::::$$$$##@@++ooXX++XX  7777777777777777777777777777",
"777777777777777777445566>>OO$$::::::,,,,::++3333$$33,,,,,,,,,,,,$$++oo<<<<::::::$$$$##@@++ooXX++XX  7777777777777777777777777777",
"777777777777777777<<665544>>@@$$OOOOOOOOOO22,,,,::  oooooooooooooooo++++++++++XXXXXXXXXXXXXX......OOXX@@@@@@@@@@@@@@@@7777777777",
"777777777777777777<<665544>>@@$$OOOOOOOOOO22,,,,::  oooooooooooooooo++++++++++XXXXXXXXXXXXXX......OOXX@@@@@@@@@@@@@@@@7777777777",
"777777777777777777>>443322>>@@$$446633<<>>##oooooooo++##>>>>>>::$$::>>$$$$$$@@ooooooXXXX@@@@OOoo..OOXX++++++++++++++++@@@@777777",
"777777777777777777>>443322>>@@$$446633<<>>##oooooooo++##>>>>>>::$$::>>$$$$$$@@ooooooXXXX@@@@OOoo..OOXX++++++++++++++++@@@@777777",
"777777777777777777$$>>3322::@@$$66442222222222,,::##OO>>4422222222<<,,,,>>::@@,,>>$$@@XX$$@@OOooXXOOooooooooooooooOOOO++++@@7777",
"777777777777777777$$>>3322::@@$$66442222222222,,::##OO>>4422222222<<,,,,>>::@@,,>>$$@@XX$$@@OOooXXOOooooooooooooooOOOO++++@@7777",
"77777777777777777777$$>>::##XX$$4422,,,,,,,,,,,,::##oo::22<<,,>>>>>>>>>>>>::@@>>>>$$@@XX$$@@OOoo++oo..  ....XXXXXXooooOO++@@7777",
"77777777777777777777$$>>::##XX$$4422,,,,,,,,,,,,::##oo::22<<,,>>>>>>>>>>>>::@@>>>>$$@@XX$$@@OOoo++oo..  ....XXXXXXooooOO++@@7777",
"7777777777777777777777$$##@@XXOO++$$>>>>>>::::::##oooo++,,>>>>>>::$$::>>$$##oo$$@@++++XX++OOooXXXX..  ......XXXXXXooooOOOO++@@77",
"7777777777777777777777$$##@@XXOO++$$>>>>>>::::::##oooo++,,>>>>>>::$$::>>$$##oo$$@@++++XX++OOooXXXX..  ......XXXXXXooooOOOO++@@77",
"77777777777777777777777777OOOOOOOOOO++++++++++++oooo++++@@@@@@@@OOOO@@@@OOoo  ooooooooooooooooooooooooooooooooooooooooOO++@@@@77",
"77777777777777777777777777OOOOOOOOOO++++++++++++oooo++++@@@@@@@@OOOO@@@@OOoo  ooooooooooooooooooooooooooooooooooooooooOO++@@@@77",
"77777777777777777777777777777777777777@@@@@@@@@@@@@@@@@@@@@@@@@@@@@@@@@@@@@@@@@@@@@@@@@@@@@@@@@@@@@@@@@@@@@@@@@@@@@@@@@@@@@@7777",
"77777777777777777777777777777777777777@@@@@@@@@@@@@@@@@@@@@@@@@@@@@@@@@@@@@@@@@@@@@@@@@@@@@@@@@@@@@@@@@@@@@@@@@@@@@@@@@@@@@@7777"
};
