/* XPM */
static char *_556199747328[] = {
/* columns rows colors chars-per-pixel */
"128 128 22 1 ",
"  c black",
". c #202020",
"X c #2C2C2C",
"o c gray22",
"O c gray25",
"+ c #484848",
"@ c #4C4C4C",
"# c gray33",
"$ c gray36",
"% c #646464",
"& c gray44",
"* c #7C7C7C",
"= c gray55",
"- c #989898",
"; c gray66",
": c #B4B4B4",
"> c #C0C0C0",
", c #D0D0D0",
"< c gainsboro",
"1 c #ECECEC",
"2 c gray99",
"3 c None",
/* pixels */
"33333333333333333333333333333333333333333333333333;;;;;;;;==============&&&&&&&&%%3333333333333333333333333333333333333333333333",
"33333333333333333333333333333333333333333333333333;;;;;;;;==============&&&&&&&&%%3333333333333333333333333333333333333333333333",
"3333333333333333333333333333333333333333;;;;<<<<,,,,,,>>>>>>::::;;;;----====**&&&&%%##++####333333333333333333333333333333333333",
"3333333333333333333333333333333333333333;;;;<<<<,,,,,,>>>>>>::::;;;;----====**&&&&%%##++####333333333333333333333333333333333333",
"333333333333333333333333333333333333>>2222111111<<<<<<,,,,,,>>>>::::;;--&&>>==**&&%%##++OOooooXX33333333333333333333333333333333",
"333333333333333333333333333333333333>>2222111111<<<<<<,,,,,,>>>>::::;;--&&>>==**&&%%##++OOooooXX33333333333333333333333333333333",
"33333333333333333333333333333333331122222222111111222222<<<<,,>>>>::::;;----==****++##++OOoooo..XX333333333333333333333333333333",
"33333333333333333333333333333333331122222222111111222222<<<<,,>>>>::::;;----==****++##++OOoooo..XX333333333333333333333333333333",
"33333333333333333333333333333333<<111122222222222211<<,,>>>>::::;;;;--==****&&%%%%%%%%ooOOooXX..XXXX3333333333333333333333333333",
"33333333333333333333333333333333<<111122222222222211<<,,>>>>::::;;;;--==****&&%%%%%%%%ooOOooXX..XXXX3333333333333333333333333333",
"33333333333333333333333333333333<<<<11112222221111,,,,,,>>>>;;,,;;;;--==****&&%%%%##OO++XXXX....XXXX3333333333333333333333333333",
"33333333333333333333333333333333<<<<11112222221111,,,,,,>>>>;;,,;;;;--==****&&%%%%##OO++XXXX....XXXX3333333333333333333333333333",
"33333333333333333333333333333333>><<<<22112222111111<<<<,,,,>>>>::::;;--==**&&%%##++OOXXoo....XXXXXX3333333333333333333333333333",
"33333333333333333333333333333333>><<<<22112222111111<<<<,,,,>>>>::::;;--==**&&%%##++OOXXoo....XXXXXX3333333333333333333333333333",
"3333333333333333333333333333333333>>>>221111222211112222<<<<,,>>>>;;;;--==**&&%%##OOooXX......XXXX333333333333333333333333333333",
"3333333333333333333333333333333333>>>>221111222211112222<<<<,,>>>>;;;;--==**&&%%##OOooXX......XXXX333333333333333333333333333333",
"33333333333333333333333333333333333333::11112222222211<<,,>>;;::--==**&&%%##++OOXXooXX........3333333333333333333333333333333333",
"33333333333333333333333333333333333333::11112222222211<<,,>>;;::--==**&&%%##++OOXXooXX........3333333333333333333333333333333333",
"3333333333333333333333333333333333333333::>>>>22222211<<,,>>::;;--==**&&%%##++OOooXXXX....XX333333333333333333333333333333333333",
"3333333333333333333333333333333333333333::>>>>22222211<<,,>>::;;--==**&&%%##++OOooXXXX....XX333333333333333333333333333333333333",
"333333333333333333333333333333333333333333-->>11222211<<,,>>::;;--==**&&##%%++OOooXX....XX33333333333333333333333333333333333333",
"333333333333333333333333333333333333333333-->>11222211<<,,>>::;;--==**&&##%%++OOooXX....XX33333333333333333333333333333333333333",
"333333333333333333333333333333333333333333-->>11222211<<,,>>::;;--==**&&%%##++OOooXX....XX33333333333333333333333333333333333333",
"333333333333333333333333333333333333333333-->>11222211<<,,>>::;;--==**&&%%##++OOooXX....XX33333333333333333333333333333333333333",
"333333333333333333333333333333333333333333-->>22222211<<,,>>::;;==;;**&&%%##++OOXXoo....XX33333333333333333333333333333333333333",
"333333333333333333333333333333333333333333-->>22222211<<,,>>::;;==;;**&&%%##++OOXXoo....XX33333333333333333333333333333333333333",
"333333333333333333333333333333333333333333-->>22222211<<,,>>::==--;;**&&%%##++OOooXX....XX33333333333333333333333333333333333333",
"333333333333333333333333333333333333333333-->>22222211<<,,>>::==--;;**&&%%##++OOooXX....XX33333333333333333333333333333333333333",
"333333333333333333333333333333333333333333-->>22222211<<,,>>::;;--==**&&%%OO%%OOooXX....XX33333333333333333333333333333333333333",
"333333333333333333333333333333333333333333-->>22222211<<,,>>::;;--==**&&%%OO%%OOooXX....XX33333333333333333333333333333333333333",
"333333333333333333333333333333333333333333-->>22222211<<,,>>::;;--==**&&%%##%%OOooXX....XX33333333333333333333333333333333333333",
"333333333333333333333333333333333333333333-->>22222211<<,,>>::;;--==**&&%%##%%OOooXX....XX33333333333333333333333333333333333333",
"333333333333333333333333333333333333333333-->>1111<<,,>>::;;--==**&&%%##++OO++XX........XX33333333333333333333333333333333333333",
"333333333333333333333333333333333333333333-->>1111<<,,>>::;;--==**&&%%##++OO++XX........XX33333333333333333333333333333333333333",
"333333333333333333333333333333333333333333--==;;::;;;;====**&&&&%%%%##++OOooXX............33333333333333333333333333333333333333",
"333333333333333333333333333333333333333333--==;;::;;;;====**&&&&%%%%##++OOooXX............33333333333333333333333333333333333333",
"33333333333333333333333333333333333333333333<<22<<11222211<<,,>>::;;--==**&&##%%++oo..XX3333333333333333333333333333333333333333",
"33333333333333333333333333333333333333333333<<22<<11222211<<,,>>::;;--==**&&##%%++oo..XX3333333333333333333333333333333333333333",
"333333333333333333333333333333333333333333>><<22222222<<,,>>::;;--==**&&%%##++##ooXXXX..oo33333333333333333333333333333333333333",
"333333333333333333333333333333333333333333>><<22222222<<,,>>::;;--==**&&%%##++##ooXXXX..oo33333333333333333333333333333333333333",
"333333333333333333333333333333333333333333>><<22222211<<,,,,::;;--**==&&%%##++OOooXX....XX33333333333333333333333333333333333333",
"333333333333333333333333333333333333333333>><<22222211<<,,,,::;;--**==&&%%##++OOooXX....XX33333333333333333333333333333333333333",
"333333333333333333333333333333333333333333-->>22222211<<::11::;;--==&&**%%##++OOooXX....XX33333333333333333333333333333333333333",
"333333333333333333333333333333333333333333-->>22222211<<::11::;;--==&&**%%##++OOooXX....XX33333333333333333333333333333333333333",
"333333333333333333333333333333333333333333-->>22222211<<>>11::;;--==**&&%%##++OOXXoo....XX33333333333333333333333333333333333333",
"333333333333333333333333333333333333333333-->>22222211<<>>11::;;--==**&&%%##++OOXXoo....XX33333333333333333333333333333333333333",
"333333333333333333333333333333333333333333-->>22222211<<,,,,::;;--==**&&##%%++OOooXX  ..XX33333333333333333333333333333333333333",
"333333333333333333333333333333333333333333-->>22222211<<,,,,::;;--==**&&##%%++OOooXX  ..XX33333333333333333333333333333333333333",
"333333333333333333333333333333333333333333-->>22222211<<,,>>::;;--==**&&%%##++XX++XX....XX33333333333333333333333333333333333333",
"333333333333333333333333333333333333333333-->>22222211<<,,>>::;;--==**&&%%##++XX++XX....XX33333333333333333333333333333333333333",
"333333333333333333333333333333333333333333--;;22222211::22>>::;;--==**&&%%##++OOooXX....XX33333333333333333333333333333333333333",
"333333333333333333333333333333333333333333--;;22222211::22>>::;;--==**&&%%##++OOooXX....XX33333333333333333333333333333333333333",
"333333333333333333333333333333333333333333--<<22222211<<,,>>::;;--**--&&%%##++ooOOXX....XX33333333333333333333333333333333333333",
"333333333333333333333333333333333333333333--<<22222211<<,,>>::;;--**--&&%%##++ooOOXX....XX33333333333333333333333333333333333333",
"333333333333333333333333333333333333333333-->>22222211<<::<<::;;--==**&&%%++##OOooXX....XX33333333333333333333333333333333333333",
"333333333333333333333333333333333333333333-->>22222211<<::<<::;;--==**&&%%++##OOooXX....XX33333333333333333333333333333333333333",
"333333333333333333333333333333333333333333-->>22222211<<,,>>::;;==--**&&%%##++OOXXoo....XX33333333333333333333333333333333333333",
"333333333333333333333333333333333333333333-->>22222211<<,,>>::;;==--**&&%%##++OOXXoo....XX33333333333333333333333333333333333333",
"333333333333333333333333333333333333333333**--<<11<<,,>>::;;--==**&&%%##++OOooXX..........33333333333333333333333333333333333333",
"333333333333333333333333333333333333333333**--<<11<<,,>>::;;--==**&&%%##++OOooXX..........33333333333333333333333333333333333333",
"33333333333333333333333333333333333333333333**--;;--====****&&&&%%%%##++OOooXX....      3333333333333333333333333333333333333333",
"33333333333333333333333333333333333333333333**--;;--====****&&&&%%%%##++OOooXX....      3333333333333333333333333333333333333333",
"333333333333333333333333333333333333333333;;,,2222222222>><<,,>>::;;--==**&&%%##++ooXXXXoo33333333333333333333333333333333333333",
"333333333333333333333333333333333333333333;;,,2222222222>><<,,>>::;;--==**&&%%##++ooXXXXoo33333333333333333333333333333333333333",
"333333333333333333333333333333333333333333-->>22222211<<11>>::;;--==**&&%%##++OOooXX....XX33333333333333333333333333333333333333",
"333333333333333333333333333333333333333333-->>22222211<<11>>::;;--==**&&%%##++OOooXX....XX33333333333333333333333333333333333333",
"333333333333333333333333333333333333333333-->>22222211<<,,>>::;;==--**%%**##++OOXXOO  ..XX33333333333333333333333333333333333333",
"333333333333333333333333333333333333333333-->>22222211<<,,>>::;;==--**%%**##++OOXXOO  ..XX33333333333333333333333333333333333333",
"333333333333333333333333333333333333333333-->>22222211<<::11::;;--==**&&%%##OO++ooXX....XX33333333333333333333333333333333333333",
"333333333333333333333333333333333333333333-->>22222211<<::11::;;--==**&&%%##OO++ooXX....XX33333333333333333333333333333333333333",
"333333333333333333333333333333333333333333-->>2222<<22<<,,>>::;;--==**&&%%++##OOoo..XX..XX33333333333333333333333333333333333333",
"333333333333333333333333333333333333333333-->>2222<<22<<,,>>::;;--==**&&%%++##OOoo..XX..XX33333333333333333333333333333333333333",
"333333333333333333333333333333333333333333-->>22112211<<::>>;;::--**==&&%%####OOooXX......33333333333333333333333333333333333333",
"333333333333333333333333333333333333333333-->>22112211<<::>>;;::--**==&&%%####OOooXX......33333333333333333333333333333333333333",
"333333333333333333333333333333333333333333-->>22222211::22>>::;;--==**&&%%##++ooOOXX....XX33333333333333333333333333333333333333",
"333333333333333333333333333333333333333333-->>22222211::22>>::;;--==**&&%%##++ooOOXX....XX33333333333333333333333333333333333333",
"333333333333333333333333333333333333333333-->>2222221122,,>>::;;--==&&**%%##++OOooXX....XX33333333333333333333333333333333333333",
"333333333333333333333333333333333333333333-->>2222221122,,>>::;;--==&&**%%##++OOooXX....XX33333333333333333333333333333333333333",
"333333333333333333333333333333333333333333-->>2222<<22<<,,>>::;;==--**&&%%##OO++XXoo....XX33333333333333333333333333333333333333",
"333333333333333333333333333333333333333333-->>2222<<22<<,,>>::;;==--**&&%%##OO++XXoo....XX33333333333333333333333333333333333333",
"333333333333333333333333333333333333333333-->>22222211<<,,::<<;;--==**&&##%%++OOooXX....XX33333333333333333333333333333333333333",
"333333333333333333333333333333333333333333-->>22222211<<,,::<<;;--==**&&##%%++OOooXX....XX33333333333333333333333333333333333333",
"333333333333333333333333333333333333333333-->>22222211,,11>>::;;--==&&**%%##++OOXXoo....XX33333333333333333333333333333333333333",
"333333333333333333333333333333333333333333-->>22222211,,11>>::;;--==&&**%%##++OOXXoo....XX33333333333333333333333333333333333333",
"333333333333333333333333333333333333333333**>>11221111<<,,>>::----==**&&%%++##OOooXX....oo33333333333333333333333333333333333333",
"333333333333333333333333333333333333333333**>>11221111<<,,>>::----==**&&%%++##OOooXX....oo33333333333333333333333333333333333333",
"33333333333333333333333333333333333333333333;;,,<<>>>>>>::;;--&&--&&%%##++OOooXX........3333333333333333333333333333333333333333",
"33333333333333333333333333333333333333333333;;,,<<>>>>>>::;;--&&--&&%%##++OOooXX........3333333333333333333333333333333333333333",
"333333333333333333333333333333333333333333;;11::>>,,>>--==**&&##%%%%##++OOooXX............33333333333333333333333333333333333333",
"333333333333333333333333333333333333333333;;11::>>,,>>--==**&&##%%%%##++OOooXX............33333333333333333333333333333333333333",
"333333333333333333333333333333333333333333--,,221122222211<<,,>>::==--==**&&%%##++oo..XXXX33333333333333333333333333333333333333",
"333333333333333333333333333333333333333333--,,221122222211<<,,>>::==--==**&&%%##++oo..XXXX33333333333333333333333333333333333333",
"333333333333333333333333333333333333333333-->>22222211<<,,>>::;;--**--&&%%##++OOXXOO....XX33333333333333333333333333333333333333",
"333333333333333333333333333333333333333333-->>22222211<<,,>>::;;--**--&&%%##++OOXXOO....XX33333333333333333333333333333333333333",
"333333333333333333333333333333333333333333-->>222222,,22,,>>--<<--==**&&%%##++OOooXX....XX33333333333333333333333333333333333333",
"333333333333333333333333333333333333333333-->>222222,,22,,>>--<<--==**&&%%##++OOooXX....XX33333333333333333333333333333333333333",
"333333333333333333333333333333333333333333-->>22222211<<,,>>::;;--**--&&%%++##OOooXX....XX33333333333333333333333333333333333333",
"333333333333333333333333333333333333333333-->>22222211<<,,>>::;;--**--&&%%++##OOooXX....XX33333333333333333333333333333333333333",
"333333333333333333333333333333333333333333-->>22222211<<,,>>::;;--==**&&##%%++OOooXX....XX33333333333333333333333333333333333333",
"333333333333333333333333333333333333333333-->>22222211<<,,>>::;;--==**&&##%%++OOooXX....XX33333333333333333333333333333333333333",
"333333333333333333333333333333333333333333-->>22222211<<,,>>-->>--==**%%&&##++OOooXX....XX33333333333333333333333333333333333333",
"333333333333333333333333333333333333333333-->>22222211<<,,>>-->>--==**%%&&##++OOooXX....XX33333333333333333333333333333333333333",
"333333333333333333333333333333333333333333-->>22222211<<,,;;<<;;--==**&&%%##OO##ooXX....XX33333333333333333333333333333333333333",
"333333333333333333333333333333333333333333-->>22222211<<,,;;<<;;--==**&&%%##OO##ooXX....XX33333333333333333333333333333333333333",
"333333333333333333333333333333333333333333-->>112222,,22,,>>::;;--==**&&%%##++OOooXX....XX33333333333333333333333333333333333333",
"333333333333333333333333333333333333333333-->>112222,,22,,>>::;;--==**&&%%##++OOooXX....XX33333333333333333333333333333333333333",
"333333333333333333333333333333333333333333-->>112222,,22,,>>::;;--==**&&%%++##OOooXX....XX33333333333333333333333333333333333333",
"333333333333333333333333333333333333333333-->>112222,,22,,>>::;;--==**&&%%++##OOooXX....XX33333333333333333333333333333333333333",
"3333333333333333333333333333333333333333::<<>>22222211<<,,>>::--::==**&&%%##++OOooXXoo....XX333333333333333333333333333333333333",
"3333333333333333333333333333333333333333::<<>>22222211<<,,>>::--::==**&&%%##++OOooXXoo....XX333333333333333333333333333333333333",
"33333333333333333333333333333333333333::11112222222211<<,,>>::;;--==**&&%%##++OOXXooXX......XXXX33333333333333333333333333333333",
"33333333333333333333333333333333333333::11112222222211<<,,>>::;;--==**&&%%##++OOXXooXX......XXXX33333333333333333333333333333333",
"3333333333333333333333333333333333>>>>221122222211112222<<<<,,>>>>;;;;--==**&&%%##OOooXX......XXXXXXOO++@@####$$$$%%%%3333333333",
"3333333333333333333333333333333333>>>>221122222211112222<<<<,,>>>>;;;;--==**&&%%##OOooXX......XXXXXXOO++@@####$$$$%%%%3333333333",
"33333333333333333333333333333333>><<<<22112222111111<<<<,,,,>>>>::::;;--==**&&%%##++OOXXoo....XXXXXXooooOO++++@@####$$%%%%333333",
"33333333333333333333333333333333>><<<<22112222111111<<<<,,,,>>>>::::;;--==**&&%%##++OOXXoo....XXXXXXooooOO++++@@####$$%%%%333333",
"33333333333333333333333333333333<<<<11112222221111,,,,,,>>>>::::;;;;==;;****&&%%%%##OO++XXXX....XXXXooooooooOO++++@@##$$$$%%3333",
"33333333333333333333333333333333<<<<11112222221111,,,,,,>>>>::::;;;;==;;****&&%%%%##OO++XXXX....XXXXooooooooOO++++@@##$$$$%%3333",
"33333333333333333333333333333333<<111122222222222211<<,,>>>>::::;;;;--==****&&%%%%&&%%@@@@ooXX..XXXXooooooooOO++++@@##$$$$%%3333",
"33333333333333333333333333333333<<111122222222222211<<,,>>>>::::;;;;--==****&&%%%%&&%%@@@@ooXX..XXXXooooooooOO++++@@##$$$$%%3333",
"33333333333333333333333333333333331122222222111111222222<<<<,,>>>>::::;;----==****&&$$OO$$oooo..XXooooooOOOO++@@@@##$$$$%%333333",
"33333333333333333333333333333333331122222222111111222222<<<<,,>>>>::::;;----==****&&$$OO$$oooo..XXooooooOOOO++@@@@##$$$$%%333333",
"333333333333333333333333333333333333>>2222111111<<<<<<,,,,,,>>::,,::;;----==**==&&%%$$++OOooooXXOOOOOO++++++@@##$$$$%%3333333333",
"333333333333333333333333333333333333>>2222111111<<<<<<,,,,,,>>::,,::;;----==**==&&%%$$++OOooooXXOOOOOO++++++@@##$$$$%%3333333333",
"3333333333333333333333333333333333333333;;;;<<<<,,,,,,>>>>>>::::;;;;----====**&&&&%%##++OOOO++##$$$$$$%%%%%%%%%%%%33333333333333",
"3333333333333333333333333333333333333333;;;;<<<<,,,,,,>>>>>>::::;;;;----====**&&&&%%##++OOOO++##$$$$$$%%%%%%%%%%%%33333333333333",
"33333333333333333333333333333333333333333333333333;;;;;;;;==============&&&&&&&&%%##OOOO++##$$%%%%333333333333333333333333333333",
"33333333333333333333333333333333333333333333333333;;;;;;;;==============&&&&&&&&%%##OOOO++##$$%%%%333333333333333333333333333333"
};
