/* XPM */
static char *_556199734800[] = {
/* columns rows colors chars-per-pixel */
"128 128 50 1 ",
"  c black",
". c #2C2C2C",
"X c gray22",
"o c #044000",
"O c #044C00",
"+ c #045800",
"@ c #046400",
"# c #047000",
"$ c #047C00",
"% c #404000",
"& c #585400",
"* c #706C00",
"= c #484848",
"- c gray33",
"; c #646464",
": c gray44",
"> c #7C7C7C",
", c #048800",
"< c #049800",
"1 c #04A400",
"2 c #00A800",
"3 c #04B000",
"4 c #04BC00",
"5 c #04C800",
"6 c #00D400",
"7 c #00E000",
"8 c #00FC00",
"9 c #54FC54",
"0 c #60FC5C",
"q c #848400",
"w c #9C9C00",
"e c #B4AC00",
"r c #CCC400",
"t c #E4D800",
"y c #FCF400",
"u c #FCF440",
"i c #FCFC54",
"p c #FCFC7C",
"a c gray55",
"s c #989898",
"d c gray66",
"f c #B4B4B4",
"g c #FCFC9C",
"h c #FCFCB8",
"j c #C0C0C0",
"k c #D0D0D0",
"l c #FCFCD8",
"z c #ECECEC",
"x c gray99",
"c c None",
/* pixels */
"cccccccccccccccccccccccccccccccccccccccccccccccccccccccccccccccccccccccccccccccccccccccccccccccccccccccccccccccccccccccccccccccc",
"cccccccccccccccccccccccccccccccccccccccccccccccccccccccccccccccccccccccccccccccccccccccccccccccccccccccccccccccccccccccccccccccc",
"cccccccccccccccccccccccccccccccccccccccccccccccccccccccccccccccccccccccccccccccccccccccccccccccccccccccccccccccccccccccccccccccc",
"cccccccccccccccccccccccccccccccccccccccccccccccccccccccccccccccccccccccccccccccccccccccccccccccccccccccccccccccccccccccccccccccc",
"cccccccccccccccccccccccccccccccccccccccccccccccccccccccccccccccccccccccccccccccccccccccccccccccccccccccccccccccccccccccccccccccc",
"cccccccccccccccccccccccccccccccccccccccccccccccccccccccccccccccccccccccccccccccccccccccccccccccccccccccccccccccccccccccccccccccc",
"cccccccccccccccccccccccccccccccccccccccccccccccccccccccccccccccccccccccccccccccccccccccccccccccccccccccccccccccccccccccccccccccc",
"cccccccccccccccccccccccccccccccccccccccccccccccccccccccccccccccccccccccccccccccccccccccccccccccccccccccccccccccccccccccccccccccc",
"cccccccccccccccccccccccccccccccccccccccccccccccccccccccccccccccccccccccccccccccccccccccccccccccccccccccccccccccccccccccccccccccc",
"cccccccccccccccccccccccccccccccccccccccccccccccccccccccccccccccccccccccccccccccccccccccccccccccccccccccccccccccccccccccccccccccc",
"cccccccccccccccccccccccccccccccccccccccccccccccccccccccccccccccccccccccccccccccccccccccccccccccccccccccccccccccccccccccccccccccc",
"cccccccccccccccccccccccccccccccccccccccccccccccccccccccccccccccccccccccccccccccccccccccccccccccccccccccccccccccccccccccccccccccc",
"cccccccccccccccccccccccccccccccccccccccccccccccccccccccccccccccccccccccccccccccccccccccccccccccccccccccccccccccccccccccccccccccc",
"cccccccccccccccccccccccccccccccccccccccccccccccccccccccccccccccccccccccccccccccccccccccccccccccccccccccccccccccccccccccccccccccc",
"cccccccccccccccccccccccccccccccccccccccccccccccccccccccccccccccccccccccccccccccccccccccccccccccccccccccccccccccccccccccccccccccc",
"cccccccccccccccccccccccccccccccccccccccccccccccccccccccccccccccccccccccccccccccccccccccccccccccccccccccccccccccccccccccccccccccc",
"cccccccccccccccccccccccccccccccccccccccccccccccccccccccccccccccccccccccccccccccccccccccccccccccccccccccccccccccccccccccccccccccc",
"cccccccccccccccccccccccccccccccccccccccccccccccccccccccccccccccccccccccccccccccccccccccccccccccccccccccccccccccccccccccccccccccc",
"cccccccccccccccccccccccccccccccccccccccccccccccccccccccccccccccccccccccccccccccccccccccccccccccccccccccccccccccccccccccccccccccc",
"cccccccccccccccccccccccccccccccccccccccccccccccccccccccccccccccccccccccccccccccccccccccccccccccccccccccccccccccccccccccccccccccc",
"cccccccccccccccccccccccccccccccccccccccccccccccccccccccccccc66cccccccccccccccccccccccccccccccccccccccccccccccccccccccccccccccccc",
"cccccccccccccccccccccccccccccccccccccccccccccccccccccccccccc66cccccccccccccccccccccccccccccccccccccccccccccccccccccccccccccccccc",
"cccccccccccccccccccccccccccccccccccccccccccccccccccccccccc6699##cccccccccccccccccccccccccccccccccccccccccccccccccccccccccccccccc",
"cccccccccccccccccccccccccccccccccccccccccccccccccccccccccc6699##cccccccccccccccccccccccccccccccccccccccccccccccccccccccccccccccc",
"cccccccccccccccccccccccccccccccccccccccccccccccccccccccccc<<<<##cccc11cccccccccccccccccccccccccccccccccccccccccccccccccccccccccc",
"cccccccccccccccccccccccccccccccccccccccccccccccccccccccccc<<<<##cccc11cccccccccccccccccccccccccccccccccccccccccccccccccccccccccc",
"cccccccccccccccccccccccccccccccccccccccccccccccccccccccccccc@@@@cc115511##cccccccccccccccccccccccccccccccccccccccccccccccccccccc",
"cccccccccccccccccccccccccccccccccccccccccccccccccccccccccccc@@@@cc115511##cccccccccccccccccccccccccccccccccccccccccccccccccccccc",
"cccccccccccccccccccccccccccccccccccccccccccccccccccccc44cccc6666<<cc666622++cccccccccccccccccccccccccccccccccccccccccccccccccccc",
"cccccccccccccccccccccccccccccccccccccccccccccccccccccc44cccc6666<<cc666622++cccccccccccccccccccccccccccccccccccccccccccccccccccc",
"cccccccccccccccccccccccccccccccccccccccccccccccccccc4499$$oo446699##669911++cccccccccccccccccccccccccccccccccccccccccccccccccccc",
"cccccccccccccccccccccccccccccccccccccccccccccccccccc4499$$oo446699##669911++cccccccccccccccccccccccccccccccccccccccccccccccccccc",
"cccccccccccccccccccccccccccccccccccccccccccccccccccccc$$@@22$$11####++11++cccccccccccccccccccccccccccccccccccccccccccccccccccccc",
"cccccccccccccccccccccccccccccccccccccccccccccccccccccc$$@@22$$11####++11++cccccccccccccccccccccccccccccccccccccccccccccccccccccc",
"cccccccccccccccccccccccccccccccccccccccccccccccc4411,,@@@@oo33##<<++22oocccccccccccccccccccccccccccccccccccccccccccccccccccccccc",
"cccccccccccccccccccccccccccccccccccccccccccccccc4411,,@@@@oo33##<<++22oocccccccccccccccccccccccccccccccccccccccccccccccccccccccc",
"cccccccccccccccccccccccccccccccccccccccccc1133cc0099,,99113399##++33993322<<<<cc@@11@@cccccccccccccccccccccccccccccccccccccccccc",
"cccccccccccccccccccccccccccccccccccccccccc1133cc0099,,99113399##++33993322<<<<cc@@11@@cccccccccccccccccccccccccccccccccccccccccc",
"cccccccccccccccccccccccccccccccccccccccc118899,,8855,,99@@<<33++++339933$$6666##oo,,22##cccccccccccccccccccccccccccccccccccccccc",
"cccccccccccccccccccccccccccccccccccccccc118899,,8855,,99@@<<33++++339933$$6666##oo,,22##cccccccccccccccccccccccccccccccccccccccc",
"cccccccccccccccccccccccccccccccccccccccc1155@@22@@22@@@@6699<<++oooo##OO$$<<66oo22,,22##cccccccccccccccccccccccccccccccccccccccc",
"cccccccccccccccccccccccccccccccccccccccc1155@@22@@22@@@@6699<<++oooo##OO$$<<66oo22,,22##cccccccccccccccccccccccccccccccccccccccc",
"cccccccccccccccccccccccccccccccccccccccccc##22@@$$@@@@OO996699<<99##ooccoo$$@@####oocccccccccccccccccccccccccccccccccccccccccccc",
"cccccccccccccccccccccccccccccccccccccccccc##22@@$$@@@@OO996699<<99##ooccoo$$@@####oocccccccccccccccccccccccccccccccccccccccccccc",
"cccccccccccccccccccccccccccccccccccccccccccc##ccoo77OOoo@@99@@22oo22##oo2211@@@@3333##cccccccccccccccccccccccccccccccccccccccccc",
"cccccccccccccccccccccccccccccccccccccccccccc##ccoo77OOoo@@99@@22oo22##oo2211@@@@3333##cccccccccccccccccccccccccccccccccccccccccc",
"cccccccccccccccccccccccccccccccccccccccccc##22$$9944,,9944,,oo@@@@22,,##oo2211++<<33##cccc@@<<cccccccccccccccccccccccccccccccccc",
"cccccccccccccccccccccccccccccccccccccccccc##22$$9944,,9944,,oo@@@@22,,##oo2211++<<33##cccc@@<<cccccccccccccccccccccccccccccccccc",
"cccccccccccccccccccccccccccccccccccccccc888822oo$$$$224444226677@@##<<66##22oo++oo<<++cc##@@@@##cccccccccccccccccccccccccccccccc",
"cccccccccccccccccccccccccccccccccccccccc888822oo$$$$224444226677@@##<<66##22oo++oo<<++cc##@@@@##cccccccccccccccccccccccccccccccc",
"cccccccccccccccccccccccccccccccccccccc448877$$666666$$8888,,6699,,++2277++ooccoo++++OOoooo++@@##cccccccccccccccccccccccccccccccc",
"cccccccccccccccccccccccccccccccccccccc448877$$666666$$8888,,6699,,++2277++ooccoo++++OOoooo++@@##cccccccccccccccccccccccccccccccc",
"cccccccccccccccccccccccccccccccccccc44cc88$$6699661199888899,,++22####@@oocc##++oooo@@cccccc##cccccccccccccccccccccccccccccccccc",
"cccccccccccccccccccccccccccccccccccc44cc88$$6699661199888899,,++22####@@oocc##++oooo@@cccccc##cccccccccccccccccccccccccccccccccc",
"cccccccccccccccccccccccccccccccccc4422<<$$++6666cc$$889933,,++7722++ooooOO##<<<<++##22##++cccccccccccccccccccccccccccccccccccccc",
"cccccccccccccccccccccccccccccccccc4422<<$$++6666cc$$889933,,++7722++ooooOO##<<<<++##22##++cccccccccccccccccccccccccccccccccccccc",
"cccccccccccccccccccccccccccccccccccc44<<99oo11,,##,,3377##++oo22##--cc##22OO<<,,<<####++<<++cccccccccccccccccccccccccccccccccccc",
"cccccccccccccccccccccccccccccccccccc44<<99oo11,,##,,3377##++oo22##--cc##22OO<<,,<<####++<<++cccccccccccccccccccccccccccccccccccc",
"cccccccccccccccccccccccccccccccccccccccc++223399,,oo######22##22##oo8833##ooOO++33ccoocc++cccccccccccccccccccccccccccccccccccccc",
"cccccccccccccccccccccccccccccccccccccccc++223399,,oo######22##22##oo8833##ooOO++33ccoocc++cccccccccccccccccccccccccccccccccccccc",
"cccccccccccccccccccccccccccccccccccccc6666$$99332266oo##oo##cc##22oo6633oo,,oo##33++@@++cccccccccccccccccccccccccccccccccccccccc",
"cccccccccccccccccccccccccccccccccccccc6666$$99332266oo##oo##cc##22oo6633oo,,oo##33++@@++cccccccccccccccccccccccccccccccccccccccc",
"cccccccccccccccccccccccccccccccccccc1199$$oo$$oo6666++oocc##oo##22--@@$$oooo++ccccoo@@++cc++##++cccccccccccccccccccccccccccccccc",
"cccccccccccccccccccccccccccccccccccc1199$$oo$$oo6666++oocc##oo##22--@@$$oooo++ccccoo@@++cc++##++cccccccccccccccccccccccccccccccc",
"cccccccccccccccccccccccccccccccccccccc11oocc$$cc66$$99##oo##22##oo--##22$$++22++cc++++++oocc++##++cccccccccccccccccccccccccccccc",
"cccccccccccccccccccccccccccccccccccccc11oocc$$cc66$$99##oo##22##oo--##22$$++22++cc++++++oocc++##++cccccccccccccccccccccccccccccc",
"cccccccccccccccccccccccccccccccccccccccccccccc$$22$$1111cccc887766--##22$$####22++22++cccccccc++cccccccccccccccccccccccccccccccc",
"cccccccccccccccccccccccccccccccccccccccccccccc$$22$$1111cccc887766--##22$$####22++22++cccccccc++cccccccccccccccccccccccccccccccc",
"cccccccccccccccccccccccccccccccccccccccccccccc$$22$$779977cc889966--ccoo##11oo22++oo++++cccccccccccccccccccccccccccccccccccccccc",
"cccccccccccccccccccccccccccccccccccccccccccccc$$22$$779977cc889966--ccoo##11oo22++oo++++cccccccccccccccccccccccccccccccccccccccc",
"cccccccccccccccccccccccccccccccccccccccccccc77cc$$$$889988##cc--;;--cc6622##cc++cccc++oo++cccccccccccccccccccccccccccccccccccccc",
"cccccccccccccccccccccccccccccccccccccccccccc77cc$$$$889988##cc--;;--cc6622##cc++cccc++oo++cccccccccccccccccccccccccccccccccccccc",
"cccccccccccccccccccccccccccccccccccccccccc7711$$99$$118822##cc::>>;;cc6622##cccccccccc++cccccccccccccccccccccccccccccccccccccccc",
"cccccccccccccccccccccccccccccccccccccccccc7711$$99$$118822##cc::>>;;cc6622##cccccccccc++cccccccccccccccccccccccccccccccccccccccc",
"cccccccccccccccccccccccccccccccccccccccccc7711cc$$cccccc##cccc::aa::ccccoocccccccccccccccccccccccccccccccccccccccccccccccccccccc",
"cccccccccccccccccccccccccccccccccccccccccc7711cc$$cccccc##cccc::aa::ccccoocccccccccccccccccccccccccccccccccccccccccccccccccccccc",
"cccccccccccccccccccccccccccccccccccccccccc11ccccccccccccccccccaakkaacccccccccccccccccccccccccccccccccccccccccccccccccccccccccccc",
"cccccccccccccccccccccccccccccccccccccccccc11ccccccccccccccccccaakkaacccccccccccccccccccccccccccccccccccccccccccccccccccccccccccc",
"ccccccccccccccccccccccccccccccccccccccccccccccccccccccccccccccaassaacccccccccccccccccccccccccccccccccccccccccccccccccccccccccccc",
"ccccccccccccccccccccccccccccccccccccccccccccccccccccccccccccccaassaacccccccccccccccccccccccccccccccccccccccccccccccccccccccccccc",
"ccccccccccccccccccccccccccccccccccccccccccccccccccccccccccccccaa>>aa::cccccccccccccccccccccccccccccccccccccccccccccccccccccccccc",
"ccccccccccccccccccccccccccccccccccccccccccccccccccccccccccccccaa>>aa::cccccccccccccccccccccccccccccccccccccccccccccccccccccccccc",
"ccccccccccccccccccccccccccccccccccccccccccccccccccccccccccccccff>>aa::cccccccccccccccccccccccccccccccccccccccccccccccccccccccccc",
"ccccccccccccccccccccccccccccccccccccccccccccccccccccccccccccccff>>aa::cccccccccccccccccccccccccccccccccccccccccccccccccccccccccc",
"ccccccccccccccccccccccccccccccccccccccccccccccccccccccccccccccffssddaacccccccccccccccccccccccccccccccccccccccccccccccccccccccccc",
"ccccccccccccccccccccccccccccccccccccccccccccccccccccccccccccccffssddaacccccccccccccccccccccccccccccccccccccccccccccccccccccccccc",
"ccccccccccccccccccccccccccccccccccccccccccccccccccccccccccccccjjffkkjjjjcccccccccccccccccccccccccccccccccccccccccccccccccccccccc",
"ccccccccccccccccccccccccccccccccccccccccccccccccccccccccccccccjjffkkjjjjcccccccccccccccccccccccccccccccccccccccccccccccccccccccc",
"ccccccccccccccccccccccccccccccccccccccccccccccccccccccccccccccjjzzxxxxjj::cccccccccccccccccccccccccccccccccccccccccccccccccccccc",
"ccccccccccccccccccccccccccccccccccccccccccccccccccccccccccccccjjzzxxxxjj::cccccccccccccccccccccccccccccccccccccccccccccccccccccc",
"ccccccccccccccccccccccccccccccccccccccccccccccccccccccccccccccjjzzxxxxdd::cccccccccccccccccccccccccccccccccccccccccccccccccccccc",
"ccccccccccccccccccccccccccccccccccccccccccccccccccccccccccccccjjzzxxxxdd::cccccccccccccccccccccccccccccccccccccccccccccccccccccc",
"ccccccccccccccccccccccccccccccccccccccccccccccccccccccccccccccjjkkxxkk::cccccccccccccccccccccccccccccccccccccccccccccccccccccccc",
"ccccccccccccccccccccccccccccccccccccccccccccccccccccccccccccccjjkkxxkk::cccccccccccccccccccccccccccccccccccccccccccccccccccccccc",
"ccccccccccccccccccccccccccccccccccccccccccccccccccccccccccccccjjzzxxdd::cccccccccccccccccccccccccccccccccccccccccccccccccccccccc",
"ccccccccccccccccccccccccccccccccccccccccccccccccccccccccccccccjjzzxxdd::cccccccccccccccccccccccccccccccccccccccccccccccccccccccc",
"ccccccccccccccccccccccccccccccccccccccccccccccccccccccccccccccjjzzxxddaacccccccccccccccccccccccccccccccccccccccccccccccccccccccc",
"ccccccccccccccccccccccccccccccccccccccccccccccccccccccccccccccjjzzxxddaacccccccccccccccccccccccccccccccccccccccccccccccccccccccc",
"ccccccccccccccccccccccccccccccccccccccccccccccccccccccccccccccjjzzxxddaacccccccccccccccccccccccccccccccccccccccccccccccccccccccc",
"ccccccccccccccccccccccccccccccccccccccccccccccccccccccccccccccjjzzxxddaacccccccccccccccccccccccccccccccccccccccccccccccccccccccc",
"ccccccccccccccccccccccccccccccccccccccccccccccccccccccccccccccjjzzxxkkaacccccccccccccccccccccccccccccccccccccccccccccccccccccccc",
"ccccccccccccccccccccccccccccccccccccccccccccccccccccccccccccccjjzzxxkkaacccccccccccccccccccccccccccccccccccccccccccccccccccccccc",
"ccccccccccccccccccccccccccccccccccccccccccccccccccccccccccccccjjzzkkxxaaaacccccccccccccccccccccccccccccccccccccccccccccccccccccc",
"ccccccccccccccccccccccccccccccccccccccccccccccccccccccccccccccjjzzkkxxaaaacccccccccccccccccccccccccccccccccccccccccccccccccccccc",
"ccccccccccccccccccccccccccccccccccccccccccccccccccccccyyyyyyyyjjzzkkxxaa--rreeeeqqcccccccccccccccccccccccccccccccccccccccccccccc",
"ccccccccccccccccccccccccccccccccccccccccccccccccccccccyyyyyyyyjjzzkkxxaa--rreeeeqqcccccccccccccccccccccccccccccccccccccccccccccc",
"ccccccccccccccccccccccccccccccccccccccccccccccccccggggee&&&&&&ffzzxxkkaa--&&&&&&&&qq%%cccccccccccccccccccccccccccccccccccccccccc",
"ccccccccccccccccccccccccccccccccccccccccccccccccccggggee&&&&&&ffzzxxkkaa--&&&&&&&&qq%%cccccccccccccccccccccccccccccccccccccccccc",
"ccccccccccccccccccccccccccccccccccccccccccccccccyyxxee%%      aakkkkffaa--      %%&&qq%%cccccccccccccccccccccccccccccccccccccccc",
"ccccccccccccccccccccccccccccccccccccccccccccccccyyxxee%%      aakkkkffaa--      %%&&qq%%cccccccccccccccccccccccccccccccccccccccc",
"ccccccccccccccccccccccccccccccccccccccccccccccccyyxxxx**%%    ;;dddd;;;;      %%**qq**%%cccccccccccccccccccccccccccccccccccccccc",
"ccccccccccccccccccccccccccccccccccccccccccccccccyyxxxx**%%    ;;dddd;;;;      %%**qq**%%cccccccccccccccccccccccccccccccccccccccc",
"ccccccccccccccccccccccccccccccccccccccccccccccccccrrggxxxxiixxiiiitteettqqqqeeqq**&&%%cccccccccccccccccccccccccccccccccccccccccc",
"ccccccccccccccccccccccccccccccccccccccccccccccccccrrggxxxxiixxiiiitteettqqqqeeqq**&&%%cccccccccccccccccccccccccccccccccccccccccc",
"ccccccccccccccccccccccccccccccccccccccccccccccccccyyrrwwqq****&&&&&&%%%%%%%%%%%%%%%%%%cccccccccccccccccccccccccccccccccccccccccc",
"ccccccccccccccccccccccccccccccccccccccccccccccccccyyrrwwqq****&&&&&&%%%%%%%%%%%%%%%%%%cccccccccccccccccccccccccccccccccccccccccc",
"ccccccccccccccccccccccccccccccccccccccccccccccccccyyhhuuttrrwwwwqq****&&&&&&&&&&&&&&%%cccccccccccccccccccccccccccccccccccccccccc",
"ccccccccccccccccccccccccccccccccccccccccccccccccccyyhhuuttrrwwwwqq****&&&&&&&&&&&&&&%%cccccccccccccccccccccccccccccccccccccccccc",
"ccccccccccccccccccccccccccccccccccccccccccccccccccyyhhllxxhhiiyyyytttteeqq********&&%%cccccc;;cccc;;;;cc;;;;cccccccccccccccccccc",
"ccccccccccccccccccccccccccccccccccccccccccccccccccyyhhllxxhhiiyyyytttteeqq********&&%%cccccc;;cccc;;;;cc;;;;cccccccccccccccccccc",
"ccccccccccccccccccccccccccccccccccccccccccccccccccyyhhllgghhiiyyyytttteeeeqq**qq**&&%%========----------;;;;;;cc;;cccccccccccccc",
"ccccccccccccccccccccccccccccccccccccccccccccccccccyyhhllgghhiiyyyytttteeeeqq**qq**&&%%========----------;;;;;;cc;;cccccccccccccc",
"ccccccccccccccccccccccccccccccccccccccccccccccccccyyhhllpphhiiyyyytttteeeeqq**qq**&&%%..XXXXXXXXXXXXXXXX==----;;cc;;cccccccccccc",
"ccccccccccccccccccccccccccccccccccccccccccccccccccyyhhllpphhiiyyyytttteeeeqq**qq**&&%%..XXXXXXXXXXXXXXXX==----;;cc;;cccccccccccc",
"ccccccccccccccccccccccccccccccccccccccccccccccccccccyylluuhhiiyyyytttteeeeqq**qq&&%%    ..............XXXX====--;;;;;;cccccccccc",
"ccccccccccccccccccccccccccccccccccccccccccccccccccccyylluuhhiiyyyytttteeeeqq**qq&&%%    ..............XXXX====--;;;;;;cccccccccc",
"ccccccccccccccccccccccccccccccccccccccccccccccccccccccyyyyyyyytttttteeeeqq******%%..............XXXXXXXX====--;;cccccccccccccccc",
"ccccccccccccccccccccccccccccccccccccccccccccccccccccccyyyyyyyytttttteeeeqq******%%..............XXXXXXXX====--;;cccccccccccccccc"
};
