/* XPM */
static char *_556199707200[] = {
/* columns rows colors chars-per-pixel */
"128 128 28 1 ",
"  c #044C00",
". c #045800",
"X c #046400",
"o c #047000",
"O c #047C00",
"+ c #646464",
"@ c #7C7C7C",
"# c #048800",
"$ c #049800",
"% c #04A400",
"& c #00A800",
"* c #04B000",
"= c #04BC00",
"- c #04C800",
"; c #00E000",
": c #00EC00",
"> c #00FC00",
", c #80FC7C",
"< c #FCFC54",
"1 c gray55",
"2 c #989898",
"3 c gray66",
"4 c #BCFCB8",
"5 c #FCFC9C",
"6 c #FCFCB8",
"7 c #D8FCD8",
"8 c gray99",
"9 c None",
/* pixels */
"99999999999999999999999999999999999999999999999999999999999999++99++999999999999999999999999999999999999999999999999999999999999",
"99999999999999999999999999999999999999999999999999999999999999++99++999999999999999999999999999999999999999999999999999999999999",
"99999999999999999999999999999999999999999999999999999999999999@@11@@999999999999999999999999999999999999999999999999999999999999",
"99999999999999999999999999999999999999999999999999999999999999@@11@@999999999999999999999999999999999999999999999999999999999999",
"99999999999999999999999999999999999999999999999999999999999999  XX  999999999999999999999999999999999999999999999999999999999999",
"99999999999999999999999999999999999999999999999999999999999999  XX  999999999999999999999999999999999999999999999999999999999999",
"99999999999999999999999999999999999999999999999999999999XXooOOOOOOooooXX..999999999999999999999999999999999999999999999999999999",
"99999999999999999999999999999999999999999999999999999999XXooOOOOOOooooXX..999999999999999999999999999999999999999999999999999999",
"9999999999999999999999999999999999999999999999999999XX##$$**----**$$$$##OOXX..99999999999999999999999999999999999999999999999999",
"9999999999999999999999999999999999999999999999999999XX##$$**----**$$$$##OOXX..99999999999999999999999999999999999999999999999999",
"99999999999999999999999999999999999999999999999999XX%%==::::::::;;--&&$$##OOXX..999999999999999999999999999999999999999999999999",
"99999999999999999999999999999999999999999999999999XX%%==::::::::;;--&&$$##OOXX..999999999999999999999999999999999999999999999999",
"999999999999999999999999999999999999999999999999XX**--;;>>>>>>>>;;;;--**%%##OOXX..9999999999999999999999999999999999999999999999",
"999999999999999999999999999999999999999999999999XX**--;;>>>>>>>>;;;;--**%%##OOXX..9999999999999999999999999999999999999999999999",
"9999999999999999999999999999999999999999999999XX%%;;>>,,44776688<<55667744,,>>;;$$XX99999999999999999999999999999999999999999999",
"9999999999999999999999999999999999999999999999XX%%;;>>,,44776688<<55667744,,>>;;$$XX99999999999999999999999999999999999999999999",
"9999999999999999999999999999999999999999999999OO$$::,,,,,,44776666667744,,,,,,::$$OO99999999999999999999999999999999999999999999",
"9999999999999999999999999999999999999999999999OO$$::,,,,,,44776666667744,,,,,,::$$OO99999999999999999999999999999999999999999999",
"99999999999999999999999999999999999999999999999999$$--;;>>,,,,,,,,,,,,,,>>;;--$$999999999999999999999999999999999999999999999999",
"99999999999999999999999999999999999999999999999999$$--;;>>,,,,,,,,,,,,,,>>;;--$$999999999999999999999999999999999999999999999999",
"99999999999999999999999999999999999999999999999999999999999999999999999999999999999999999999999999999999999999999999999999999999",
"99999999999999999999999999999999999999999999999999999999999999999999999999999999999999999999999999999999999999999999999999999999",
"99999999999999999999999999999999999999999999999999999999999999999999999999999999999999999999999999999999999999999999999999999999",
"99999999999999999999999999999999999999999999999999999999999999999999999999999999999999999999999999999999999999999999999999999999",
"99999999999999999999999999999999999999999999999999999999999999999999999999999999999999999999999999999999999999999999999999999999",
"99999999999999999999999999999999999999999999999999999999999999999999999999999999999999999999999999999999999999999999999999999999",
"99999999999999999999999999999999999999999999999999999999999999999999999999999999999999999999999999999999999999999999999999999999",
"99999999999999999999999999999999999999999999999999999999999999999999999999999999999999999999999999999999999999999999999999999999",
"99999999999999999999999999999999999999999999999999999999999999999999999999999999999999999999999999999999999999999999999999999999",
"99999999999999999999999999999999999999999999999999999999999999999999999999999999999999999999999999999999999999999999999999999999",
"99999999999999999999999999999999999999999999999999999999999999999999999999999999999999999999999999999999999999999999999999999999",
"99999999999999999999999999999999999999999999999999999999999999999999999999999999999999999999999999999999999999999999999999999999",
"99999999999999999999999999999999999999999999999999999999999999999999999999999999999999999999999999999999999999999999999999999999",
"99999999999999999999999999999999999999999999999999999999999999999999999999999999999999999999999999999999999999999999999999999999",
"99999999999999999999999999999999999999999999999999999999999999999999999999999999999999999999999999999999999999999999999999999999",
"99999999999999999999999999999999999999999999999999999999999999999999999999999999999999999999999999999999999999999999999999999999",
"99999999999999999999999999999999999999999999999999999999999999999999999999999999999999999999999999999999999999999999999999999999",
"99999999999999999999999999999999999999999999999999999999999999999999999999999999999999999999999999999999999999999999999999999999",
"99999999999999999999999999999999999999999999999999999999999999999999999999999999999999999999999999999999999999999999999999999999",
"99999999999999999999999999999999999999999999999999999999999999999999999999999999999999999999999999999999999999999999999999999999",
"99999999999999999999999999999999999999999999999999999999999999999999999999999999999999999999999999999999999999999999999999999999",
"99999999999999999999999999999999999999999999999999999999999999999999999999999999999999999999999999999999999999999999999999999999",
"99999999999999999999999999999999999999999999999999999999999999999999999999999999999999999999999999999999999999999999999999999999",
"99999999999999999999999999999999999999999999999999999999999999999999999999999999999999999999999999999999999999999999999999999999",
"99999999999999999999999999999999999999999999999999999999999999999999999999999999999999999999999999999999999999999999999999999999",
"99999999999999999999999999999999999999999999999999999999999999999999999999999999999999999999999999999999999999999999999999999999",
"99999999999999999999999999999999999999999999999999999999999999999999999999999999999999999999999999999999999999999999999999999999",
"99999999999999999999999999999999999999999999999999999999999999999999999999999999999999999999999999999999999999999999999999999999",
"99999999999999999999999999999999999999999999999999999999999999999999999999999999999999999999999999999999999999999999999999999999",
"99999999999999999999999999999999999999999999999999999999999999999999999999999999999999999999999999999999999999999999999999999999",
"99999999999999999999999999999999999999999999999999999999999999999999999999999999999999999999999999999999999999999999999999999999",
"99999999999999999999999999999999999999999999999999999999999999999999999999999999999999999999999999999999999999999999999999999999",
"99999999999999999999999999999999999999999999999999999999999999999999999999999999999999999999999999999999999999999999999999999999",
"99999999999999999999999999999999999999999999999999999999999999999999999999999999999999999999999999999999999999999999999999999999",
"99999999999999999999999999999999999999999999999999999999999999999999999999999999999999999999999999999999999999999999999999999999",
"99999999999999999999999999999999999999999999999999999999999999999999999999999999999999999999999999999999999999999999999999999999",
"99999999999999999999999999999999999999999999999999999999999999999999999999999999999999999999999999999999999999999999999999999999",
"99999999999999999999999999999999999999999999999999999999999999999999999999999999999999999999999999999999999999999999999999999999",
"99999999999999999999999999999999999999999999999999999999999999999999999999999999999999999999999999999999999999999999999999999999",
"99999999999999999999999999999999999999999999999999999999999999999999999999999999999999999999999999999999999999999999999999999999",
"99999999999999999999999999999999999999999999999999999999999999999999999999999999999999999999999999999999999999999999999999999999",
"99999999999999999999999999999999999999999999999999999999999999999999999999999999999999999999999999999999999999999999999999999999",
"99999999999999999999999999999999999999999999999999999999999999999999999999999999999999999999999999999999999999999999999999999999",
"99999999999999999999999999999999999999999999999999999999999999999999999999999999999999999999999999999999999999999999999999999999",
"99999999999999999999999999999999999999999999999999999999999999999999999999999999999999999999999999999999999999999999999999999999",
"99999999999999999999999999999999999999999999999999999999999999999999999999999999999999999999999999999999999999999999999999999999",
"99999999999999999999999999999999999999999999999999999999999999999999999999999999999999999999999999999999999999999999999999999999",
"99999999999999999999999999999999999999999999999999999999999999999999999999999999999999999999999999999999999999999999999999999999",
"99999999999999999999999999999999999999999999999999999999999999999999999999999999999999999999999999999999999999999999999999999999",
"99999999999999999999999999999999999999999999999999999999999999999999999999999999999999999999999999999999999999999999999999999999",
"99999999999999999999999999999999999999999999999999999999999999999999999999999999999999999999999999999999999999999999999999999999",
"99999999999999999999999999999999999999999999999999999999999999999999999999999999999999999999999999999999999999999999999999999999",
"99999999999999999999999999999999999999999999999999999999999999999999999999999999999999999999999999999999999999999999999999999999",
"99999999999999999999999999999999999999999999999999999999999999999999999999999999999999999999999999999999999999999999999999999999",
"99999999999999999999999999999999999999999999999999999999999999999999999999999999999999999999999999999999999999999999999999999999",
"99999999999999999999999999999999999999999999999999999999999999999999999999999999999999999999999999999999999999999999999999999999",
"99999999999999999999999999999999999999999999999999999999999999999999999999999999999999999999999999999999999999999999999999999999",
"99999999999999999999999999999999999999999999999999999999999999999999999999999999999999999999999999999999999999999999999999999999",
"99999999999999999999999999999999999999999999999999999999999999999999999999999999999999999999999999999999999999999999999999999999",
"99999999999999999999999999999999999999999999999999999999999999999999999999999999999999999999999999999999999999999999999999999999",
"99999999999999999999999999999999999999999999999999999999999999999999999999999999999999999999999999999999999999999999999999999999",
"99999999999999999999999999999999999999999999999999999999999999999999999999999999999999999999999999999999999999999999999999999999",
"99999999999999999999999999999999999999999999999999999999999999999999999999999999999999999999999999999999999999999999999999999999",
"99999999999999999999999999999999999999999999999999999999999999999999999999999999999999999999999999999999999999999999999999999999",
"99999999999999999999999999999999999999999999999999999999999999999999999999999999999999999999999999999999999999999999999999999999",
"99999999999999999999999999999999999999999999999999999999999999999999999999999999999999999999999999999999999999999999999999999999",
"99999999999999999999999999999999999999999999999999999999999999999999999999999999999999999999999999999999999999999999999999999999",
"99999999999999999999999999999999999999999999999999999999999999999999999999999999999999999999999999999999999999999999999999999999",
"99999999999999999999999999999999999999999999999999999999999999999999999999999999999999999999999999999999999999999999999999999999",
"99999999999999999999999999999999999999999999999999999999999999999999999999999999999999999999999999999999999999999999999999999999",
"99999999999999999999999999999999999999999999999999999999999999999999999999999999999999999999999999999999999999999999999999999999",
"99999999999999999999999999999999999999999999999999999999999999999999999999999999999999999999999999999999999999999999999999999999",
"99999999999999999999999999999999999999999999999999999999999999999999999999999999999999999999999999999999999999999999999999999999",
"99999999999999999999999999999999999999999999999999999999999999999999999999999999999999999999999999999999999999999999999999999999",
"99999999999999999999999999999999999999999999999999999999999999999999999999999999999999999999999999999999999999999999999999999999",
"99999999999999999999999999999999999999999999999999999999999999999999999999999999999999999999999999999999999999999999999999999999",
"99999999999999999999999999999999999999999999999999999999999999999999999999999999999999999999999999999999999999999999999999999999",
"99999999999999999999999999999999999999999999999999999999999999999999999999999999999999999999999999999999999999999999999999999999",
"99999999999999999999999999999999999999999999999999999999999999999999999999999999999999999999999999999999999999999999999999999999",
"99999999999999999999999999999999999999999999999999999999999999999999999999999999999999999999999999999999999999999999999999999999",
"99999999999999999999999999999999999999999999999999999999999999999999999999999999999999999999999999999999999999999999999999999999",
"99999999999999999999999999999999999999999999999999999999999999999999999999999999999999999999999999999999999999999999999999999999",
"99999999999999999999999999999999999999999999999999999999999999999999999999999999999999999999999999999999999999999999999999999999",
"99999999999999999999999999999999999999999999999999999999999999999999999999999999999999999999999999999999999999999999999999999999",
"99999999999999999999999999999999999999999999999999999999999999999999999999999999999999999999999999999999999999999999999999999999",
"99999999999999999999999999999999999999999999999999999999999999999999999999999999999999999999999999999999999999999999999999999999",
"99999999999999999999999999999999999999999999999999999999999999999999999999999999999999999999999999999999999999999999999999999999",
"99999999999999999999999999999999999999999999999999999999999999999999999999999999999999999999999999999999999999999999999999999999",
"99999999999999999999999999999999999999999999999999999999999999999999999999999999999999999999999999999999999999999999999999999999",
"99999999999999999999999999999999999999999999999999999999999999999999999999999999999999999999999999999999999999999999999999999999",
"99999999999999999999999999999999999999999999999999999999999999999999999999999999999999999999999999999999999999999999999999999999",
"99999999999999999999999999999999999999999999999999999999999999999999999999999999999999999999999999999999999999999999999999999999",
"99999999999999999999999999999999999999999999999999999999999999999999999999999999999999999999999999999999999999999999999999999999",
"99999999999999999999999999999999999999999999999999999999999999999999999999999999999999999999999999999999999999999999999999999999",
"99999999999999999999999999999999999999999999999999999999999999999999999999999999999999999999999999999999999999999999999999999999",
"99999999999999999999999999999999999999999999999999999999999999999999999999999999999999999999999999999999999999999999999999999999",
"99999999999999999999999999999999999999999999999999999999999999999999999999999999999999999999999999999999999999999999999999999999",
"99999999999999999999999999999999999999999999999999999999999999999999999999999999999999999999999999999999999999999999999999999999",
"99999999999999@@@@@@@@@@@@@@@@@@@@@@@@@@@@@@@@@@@@@@@@@@@@@@@@@@@@@@@@@@@@@@@@@@@@@@@@@@@@@@@@@@@@@@@@@@@@@@@@@@@@99999999999999",
"99999999999999@@@@@@@@@@@@@@@@@@@@@@@@@@@@@@@@@@@@@@@@@@@@@@@@@@@@@@@@@@@@@@@@@@@@@@@@@@@@@@@@@@@@@@@@@@@@@@@@@@@@99999999999999",
"999999@@@@@@@@1111111111111111111111111111111111111111111111111111111111111111111111111111111111111111111111111111@@@@@@99999999",
"999999@@@@@@@@1111111111111111111111111111111111111111111111111111111111111111111111111111111111111111111111111111@@@@@@99999999",
"99@@@@@@11111111112222222222222222222222222222222222222222222222222222222222222222222222222222222222222222222222111111@@@@@@@@99",
"99@@@@@@11111111112222222222222222222222222222222222222222222222222222222222222222222222222222222222222222222222111111@@@@@@@@99",
"99@@@@11111111222222223333333333333333333333333333333333333333333333333333333333333333333333333333333333333322222222111111@@@@99",
"99@@@@11111111222222223333333333333333333333333333333333333333333333333333333333333333333333333333333333333322222222111111@@@@99",
"999999@@@@111111111111111111111111111111111111111111111111111111111111111111111111111111111111111111111111111111111111@@@@999999",
"999999@@@@111111111111111111111111111111111111111111111111111111111111111111111111111111111111111111111111111111111111@@@@999999"
};
